<svg width="238" height="201" viewBox="0 0 238 201" fill="none" xmlns="http://www.w3.org/2000/svg">
<g opacity="0.8">
<path d="M102.053 0C101.395 0 101 0.38046 101 1.01456C101 1.64866 101.395 2.02912 102.053 2.02912C102.711 2.02912 103.106 1.64866 103.106 1.01456C103.106 0.38046 102.579 0 102.053 0Z" fill="#CDC6BD"/>
<path d="M113.239 0C112.713 0 112.186 0.38046 112.186 1.01456C112.186 1.64866 112.581 2.02912 113.239 2.02912C113.897 2.02912 114.292 1.64866 114.292 1.01456C114.292 0.38046 113.897 0 113.239 0Z" fill="#CDC6BD"/>
<path d="M124.557 0C124.031 0 123.504 0.38046 123.504 1.01456C123.504 1.64866 123.899 2.02912 124.557 2.02912C125.084 2.02912 125.61 1.64866 125.61 1.01456C125.61 0.38046 125.084 0 124.557 0Z" fill="#CDC6BD"/>
<path d="M135.744 0C135.217 0 134.691 0.38046 134.691 1.01456C134.691 1.64866 135.085 2.02912 135.744 2.02912C136.27 2.02912 136.796 1.64866 136.796 1.01456C136.796 0.38046 136.27 0 135.744 0Z" fill="#CDC6BD"/>
<path d="M147.061 0C146.535 0 146.009 0.38046 146.009 1.01456C146.009 1.64866 146.403 2.02912 147.061 2.02912C147.588 2.02912 148.114 1.64866 148.114 1.01456C148.114 0.38046 147.588 0 147.061 0Z" fill="#CDC6BD"/>
<path d="M158.248 0C157.721 0 157.195 0.38046 157.195 1.01456C157.195 1.64866 157.59 2.02912 158.248 2.02912C158.906 2.02912 159.301 1.64866 159.301 1.01456C159.301 0.38046 158.774 0 158.248 0Z" fill="#CDC6BD"/>
<path d="M169.434 0C168.908 0 168.381 0.38046 168.381 1.01456C168.381 1.64866 168.776 2.02912 169.434 2.02912C169.961 2.02912 170.487 1.64866 170.487 1.01456C170.487 0.38046 170.092 0 169.434 0Z" fill="#CDC6BD"/>
<path d="M180.752 0C180.226 0 179.699 0.38046 179.699 1.01456C179.699 1.64866 180.094 2.02912 180.752 2.02912C181.41 2.02912 181.805 1.64866 181.805 1.01456C181.805 0.38046 181.279 0 180.752 0Z" fill="#CDC6BD"/>
<path d="M191.939 0C191.412 0 190.886 0.38046 190.886 1.01456C190.886 1.64866 191.281 2.02912 191.939 2.02912C192.597 2.02912 192.991 1.64866 192.991 1.01456C192.991 0.38046 192.597 0 191.939 0Z" fill="#CDC6BD"/>
<path d="M203.256 0C202.73 0 202.204 0.38046 202.204 1.01456C202.204 1.64866 202.598 2.02912 203.256 2.02912C203.783 2.02912 204.309 1.64866 204.309 1.01456C204.309 0.38046 203.783 0 203.256 0Z" fill="#CDC6BD"/>
<path d="M214.443 0C213.916 0 213.39 0.38046 213.39 1.01456C213.39 1.64866 213.785 2.02912 214.443 2.02912C215.101 2.02912 215.496 1.52184 215.496 1.01456C215.496 0.50728 215.101 0 214.443 0Z" fill="#CDC6BD"/>
<path d="M225.761 0C225.103 0 224.708 0.38046 224.708 1.01456C224.708 1.64866 225.103 2.02912 225.761 2.02912C226.419 2.02912 226.814 1.64866 226.814 1.01456C226.814 0.38046 226.287 0 225.761 0Z" fill="#CDC6BD"/>
<path d="M236.947 0C236.421 0 235.894 0.38046 235.894 1.01456C235.894 1.64866 236.289 2.02912 236.947 2.02912C237.605 2.02912 238 1.64866 238 1.01456C238 0.38046 237.474 0 236.947 0Z" fill="#CDC6BD"/>
<path d="M102.053 9.38469C101.395 9.38469 101 9.76515 101 10.3992C101 10.9065 101.395 11.4138 102.053 11.4138C102.711 11.4138 103.106 11.0333 103.106 10.3992C103.106 9.76515 102.579 9.38469 102.053 9.38469Z" fill="#CDC6BD"/>
<path d="M113.239 9.38469C112.713 9.38469 112.186 9.76515 112.186 10.3992C112.186 10.9065 112.581 11.4138 113.239 11.4138C113.897 11.4138 114.292 11.0333 114.292 10.3992C114.292 9.76515 113.897 9.38469 113.239 9.38469Z" fill="#CDC6BD"/>
<path d="M124.557 9.38469C124.031 9.38469 123.504 9.76515 123.504 10.3992C123.504 10.9065 123.899 11.4138 124.557 11.4138C125.084 11.4138 125.61 11.0333 125.61 10.3992C125.478 9.76515 125.084 9.38469 124.557 9.38469Z" fill="#CDC6BD"/>
<path d="M135.744 9.38469C135.217 9.38469 134.691 9.76515 134.691 10.3992C134.691 10.9065 135.085 11.4138 135.744 11.4138C136.27 11.4138 136.796 11.0333 136.796 10.3992C136.796 9.76515 136.27 9.38469 135.744 9.38469Z" fill="#CDC6BD"/>
<path d="M147.061 9.38469C146.535 9.38469 146.009 9.76515 146.009 10.3992C146.009 10.9065 146.403 11.4138 147.061 11.4138C147.588 11.4138 148.114 11.0333 148.114 10.3992C147.983 9.76515 147.588 9.38469 147.061 9.38469Z" fill="#CDC6BD"/>
<path d="M158.248 9.38469C157.721 9.38469 157.195 9.76515 157.195 10.3992C157.195 10.9065 157.59 11.4138 158.248 11.4138C158.906 11.4138 159.301 11.0333 159.301 10.3992C159.301 9.76515 158.774 9.38469 158.248 9.38469Z" fill="#CDC6BD"/>
<path d="M169.434 9.38469C168.908 9.38469 168.381 9.76515 168.381 10.3992C168.381 10.9065 168.776 11.4138 169.434 11.4138C169.961 11.4138 170.487 11.0333 170.487 10.3992C170.487 9.76515 170.092 9.38469 169.434 9.38469Z" fill="#CDC6BD"/>
<path d="M180.752 9.38469C180.226 9.38469 179.699 9.76515 179.699 10.3992C179.699 10.9065 180.094 11.4138 180.752 11.4138C181.41 11.4138 181.805 11.0333 181.805 10.3992C181.805 9.76515 181.279 9.38469 180.752 9.38469Z" fill="#CDC6BD"/>
<path d="M191.939 9.38469C191.412 9.38469 190.886 9.76515 190.886 10.3992C190.886 10.9065 191.281 11.4138 191.939 11.4138C192.597 11.4138 192.991 11.0333 192.991 10.3992C192.991 9.76515 192.597 9.38469 191.939 9.38469Z" fill="#CDC6BD"/>
<path d="M203.256 9.38469C202.73 9.38469 202.204 9.76515 202.204 10.3992C202.204 10.9065 202.598 11.4138 203.256 11.4138C203.783 11.4138 204.309 11.0333 204.309 10.3992C204.309 9.76515 203.783 9.38469 203.256 9.38469Z" fill="#CDC6BD"/>
<path d="M214.443 9.38469C213.916 9.38469 213.39 9.76515 213.39 10.3992C213.39 10.9065 213.785 11.4138 214.443 11.4138C215.101 11.4138 215.496 10.9065 215.496 10.3992C215.496 9.76515 215.101 9.38469 214.443 9.38469Z" fill="#CDC6BD"/>
<path d="M225.761 9.38469C225.234 9.38469 224.708 9.76515 224.708 10.3992C224.708 10.9065 225.103 11.4138 225.761 11.4138C226.419 11.4138 226.814 11.0333 226.814 10.3992C226.682 9.76515 226.287 9.38469 225.761 9.38469Z" fill="#CDC6BD"/>
<path d="M236.947 9.38469C236.421 9.38469 235.894 9.76515 235.894 10.3992C235.894 10.9065 236.289 11.4138 236.947 11.4138C237.605 11.4138 238 11.0333 238 10.3992C238 9.76515 237.474 9.38469 236.947 9.38469Z" fill="#CDC6BD"/>
<path d="M102.053 20.6717C102.634 20.6717 103.106 20.2174 103.106 19.6571C103.106 19.0968 102.634 18.6426 102.053 18.6426C101.471 18.6426 101 19.0968 101 19.6571C101 20.2174 101.471 20.6717 102.053 20.6717Z" fill="#CDC6BD"/>
<path d="M113.239 20.6717C113.821 20.6717 114.292 20.2174 114.292 19.6571C114.292 19.0968 113.821 18.6426 113.239 18.6426C112.658 18.6426 112.186 19.0968 112.186 19.6571C112.186 20.2174 112.658 20.6717 113.239 20.6717Z" fill="#CDC6BD"/>
<path d="M124.557 20.6717C125.139 20.6717 125.61 20.2174 125.61 19.6571C125.61 19.0968 125.139 18.6426 124.557 18.6426C123.976 18.6426 123.504 19.0968 123.504 19.6571C123.504 20.2174 123.976 20.6717 124.557 20.6717Z" fill="#CDC6BD"/>
<path d="M135.744 20.6717C136.325 20.6717 136.796 20.2174 136.796 19.6571C136.796 19.0968 136.325 18.6426 135.744 18.6426C135.162 18.6426 134.691 19.0968 134.691 19.6571C134.691 20.2174 135.162 20.6717 135.744 20.6717Z" fill="#CDC6BD"/>
<path d="M147.061 20.6717C147.643 20.6717 148.114 20.2174 148.114 19.6571C148.114 19.0968 147.643 18.6426 147.061 18.6426C146.48 18.6426 146.009 19.0968 146.009 19.6571C146.009 20.2174 146.48 20.6717 147.061 20.6717Z" fill="#CDC6BD"/>
<path d="M158.248 20.6717C158.829 20.6717 159.301 20.2174 159.301 19.6571C159.301 19.0968 158.829 18.6426 158.248 18.6426C157.666 18.6426 157.195 19.0968 157.195 19.6571C157.195 20.2174 157.666 20.6717 158.248 20.6717Z" fill="#CDC6BD"/>
<path d="M169.434 20.6717C170.016 20.6717 170.487 20.2174 170.487 19.6571C170.487 19.0968 170.016 18.6426 169.434 18.6426C168.853 18.6426 168.381 19.0968 168.381 19.6571C168.381 20.2174 168.853 20.6717 169.434 20.6717Z" fill="#CDC6BD"/>
<path d="M180.752 20.6717C181.334 20.6717 181.805 20.2174 181.805 19.6571C181.805 19.0968 181.334 18.6426 180.752 18.6426C180.171 18.6426 179.699 19.0968 179.699 19.6571C179.699 20.2174 180.171 20.6717 180.752 20.6717Z" fill="#CDC6BD"/>
<path d="M191.939 20.6717C192.52 20.6717 192.991 20.2174 192.991 19.6571C192.991 19.0968 192.52 18.6426 191.939 18.6426C191.357 18.6426 190.886 19.0968 190.886 19.6571C190.886 20.2174 191.357 20.6717 191.939 20.6717Z" fill="#CDC6BD"/>
<path d="M203.256 20.6717C203.838 20.6717 204.309 20.2174 204.309 19.6571C204.309 19.0968 203.838 18.6426 203.256 18.6426C202.675 18.6426 202.204 19.0968 202.204 19.6571C202.204 20.2174 202.675 20.6717 203.256 20.6717Z" fill="#CDC6BD"/>
<path d="M214.443 20.6717C215.024 20.6717 215.496 20.2174 215.496 19.6571C215.496 19.0968 215.024 18.6426 214.443 18.6426C213.861 18.6426 213.39 19.0968 213.39 19.6571C213.39 20.2174 213.861 20.6717 214.443 20.6717Z" fill="#CDC6BD"/>
<path d="M225.761 20.6717C226.342 20.6717 226.814 20.2174 226.814 19.6571C226.814 19.0968 226.342 18.6426 225.761 18.6426C225.179 18.6426 224.708 19.0968 224.708 19.6571C224.708 20.2174 225.179 20.6717 225.761 20.6717Z" fill="#CDC6BD"/>
<path d="M236.947 18.7694C236.421 18.7694 235.894 19.1498 235.894 19.7839C235.894 20.418 236.289 20.7985 236.947 20.7985C237.605 20.7985 238 20.418 238 19.7839C238 19.1498 237.474 18.7694 236.947 18.7694Z" fill="#CDC6BD"/>
<path d="M102.053 30.0564C102.634 30.0564 103.106 29.6021 103.106 29.0418C103.106 28.4815 102.634 28.0272 102.053 28.0272C101.471 28.0272 101 28.4815 101 29.0418C101 29.6021 101.471 30.0564 102.053 30.0564Z" fill="#CDC6BD"/>
<path d="M113.239 30.0564C113.821 30.0564 114.292 29.6021 114.292 29.0418C114.292 28.4815 113.821 28.0272 113.239 28.0272C112.658 28.0272 112.186 28.4815 112.186 29.0418C112.186 29.6021 112.658 30.0564 113.239 30.0564Z" fill="#CDC6BD"/>
<path d="M124.557 30.0564C125.139 30.0564 125.61 29.6021 125.61 29.0418C125.61 28.4815 125.139 28.0272 124.557 28.0272C123.976 28.0272 123.504 28.4815 123.504 29.0418C123.504 29.6021 123.976 30.0564 124.557 30.0564Z" fill="#CDC6BD"/>
<path d="M135.744 30.0564C136.325 30.0564 136.796 29.6021 136.796 29.0418C136.796 28.4815 136.325 28.0272 135.744 28.0272C135.162 28.0272 134.691 28.4815 134.691 29.0418C134.691 29.6021 135.162 30.0564 135.744 30.0564Z" fill="#CDC6BD"/>
<path d="M147.061 30.0564C147.643 30.0564 148.114 29.6021 148.114 29.0418C148.114 28.4815 147.643 28.0272 147.061 28.0272C146.48 28.0272 146.009 28.4815 146.009 29.0418C146.009 29.6021 146.48 30.0564 147.061 30.0564Z" fill="#CDC6BD"/>
<path d="M158.248 30.0564C158.829 30.0564 159.301 29.6021 159.301 29.0418C159.301 28.4815 158.829 28.0272 158.248 28.0272C157.666 28.0272 157.195 28.4815 157.195 29.0418C157.195 29.6021 157.666 30.0564 158.248 30.0564Z" fill="#CDC6BD"/>
<path d="M169.434 30.0564C170.016 30.0564 170.487 29.6021 170.487 29.0418C170.487 28.4815 170.016 28.0272 169.434 28.0272C168.853 28.0272 168.381 28.4815 168.381 29.0418C168.381 29.6021 168.853 30.0564 169.434 30.0564Z" fill="#CDC6BD"/>
<path d="M180.752 30.0564C181.334 30.0564 181.805 29.6021 181.805 29.0418C181.805 28.4815 181.334 28.0272 180.752 28.0272C180.171 28.0272 179.699 28.4815 179.699 29.0418C179.699 29.6021 180.171 30.0564 180.752 30.0564Z" fill="#CDC6BD"/>
<path d="M191.939 30.0564C192.52 30.0564 192.991 29.6021 192.991 29.0418C192.991 28.4815 192.52 28.0272 191.939 28.0272C191.357 28.0272 190.886 28.4815 190.886 29.0418C190.886 29.6021 191.357 30.0564 191.939 30.0564Z" fill="#CDC6BD"/>
<path d="M203.256 30.0564C203.838 30.0564 204.309 29.6021 204.309 29.0418C204.309 28.4815 203.838 28.0272 203.256 28.0272C202.675 28.0272 202.204 28.4815 202.204 29.0418C202.204 29.6021 202.675 30.0564 203.256 30.0564Z" fill="#CDC6BD"/>
<path d="M214.443 30.0564C215.024 30.0564 215.496 29.6021 215.496 29.0418C215.496 28.4815 215.024 28.0272 214.443 28.0272C213.861 28.0272 213.39 28.4815 213.39 29.0418C213.39 29.6021 213.861 30.0564 214.443 30.0564Z" fill="#CDC6BD"/>
<path d="M225.761 30.0564C226.342 30.0564 226.814 29.6021 226.814 29.0418C226.814 28.4815 226.342 28.0272 225.761 28.0272C225.179 28.0272 224.708 28.4815 224.708 29.0418C224.708 29.6021 225.179 30.0564 225.761 30.0564Z" fill="#CDC6BD"/>
<path d="M236.947 28.0272C236.421 28.0272 235.894 28.4077 235.894 29.0418C235.894 29.5491 236.289 30.0564 236.947 30.0564C237.605 30.0564 238 29.6759 238 29.0418C238 28.5345 237.474 28.0272 236.947 28.0272Z" fill="#CDC6BD"/>
<path d="M102.053 37.4119C101.526 37.4119 101 37.7924 101 38.4265C101 38.9338 101.395 39.441 102.053 39.441C102.711 39.441 103.106 39.0606 103.106 38.4265C103.106 37.9192 102.579 37.4119 102.053 37.4119Z" fill="#CDC6BD"/>
<path d="M113.239 37.4119C112.713 37.4119 112.186 37.7924 112.186 38.4265C112.186 38.9338 112.581 39.441 113.239 39.441C113.897 39.441 114.292 39.0606 114.292 38.4265C114.292 37.9192 113.897 37.4119 113.239 37.4119Z" fill="#CDC6BD"/>
<path d="M124.557 37.4119C124.031 37.4119 123.504 37.7924 123.504 38.4265C123.504 38.9338 123.899 39.441 124.557 39.441C125.084 39.441 125.61 39.0606 125.61 38.4265C125.478 37.9192 125.084 37.4119 124.557 37.4119Z" fill="#CDC6BD"/>
<path d="M135.744 37.4119C135.217 37.4119 134.691 37.7924 134.691 38.4265C134.691 38.9338 135.085 39.441 135.744 39.441C136.27 39.441 136.796 39.0606 136.796 38.4265C136.796 37.9192 136.27 37.4119 135.744 37.4119Z" fill="#CDC6BD"/>
<path d="M147.061 37.4119C146.535 37.4119 146.009 37.7924 146.009 38.4265C146.009 38.9338 146.403 39.441 147.061 39.441C147.588 39.441 148.114 39.0606 148.114 38.4265C147.983 37.9192 147.588 37.4119 147.061 37.4119Z" fill="#CDC6BD"/>
<path d="M158.248 37.4119C157.721 37.4119 157.195 37.7924 157.195 38.4265C157.195 38.9338 157.59 39.441 158.248 39.441C158.906 39.441 159.301 39.0606 159.301 38.4265C159.301 37.9192 158.774 37.4119 158.248 37.4119Z" fill="#CDC6BD"/>
<path d="M169.434 37.4119C168.908 37.4119 168.381 37.7924 168.381 38.4265C168.381 38.9338 168.776 39.441 169.434 39.441C169.961 39.441 170.487 39.0606 170.487 38.4265C170.487 37.9192 170.092 37.4119 169.434 37.4119Z" fill="#CDC6BD"/>
<path d="M180.752 37.4119C180.226 37.4119 179.699 37.7924 179.699 38.4265C179.699 38.9338 180.094 39.441 180.752 39.441C181.41 39.441 181.805 39.0606 181.805 38.4265C181.805 37.9192 181.279 37.4119 180.752 37.4119Z" fill="#CDC6BD"/>
<path d="M191.939 37.4119C191.412 37.4119 190.886 37.7924 190.886 38.4265C190.886 38.9338 191.281 39.441 191.939 39.441C192.597 39.441 192.991 39.0606 192.991 38.4265C192.991 37.9192 192.597 37.4119 191.939 37.4119Z" fill="#CDC6BD"/>
<path d="M203.256 37.4119C202.73 37.4119 202.204 37.7924 202.204 38.4265C202.204 38.9338 202.598 39.441 203.256 39.441C203.783 39.441 204.309 39.0606 204.309 38.4265C204.309 37.9192 203.783 37.4119 203.256 37.4119Z" fill="#CDC6BD"/>
<path d="M214.443 37.4119C213.916 37.4119 213.39 37.7924 213.39 38.4265C213.39 38.9338 213.785 39.441 214.443 39.441C215.101 39.441 215.496 39.0606 215.496 38.4265C215.496 37.9192 215.101 37.4119 214.443 37.4119Z" fill="#CDC6BD"/>
<path d="M225.761 37.4119C225.234 37.4119 224.708 37.7924 224.708 38.4265C224.708 38.9338 225.103 39.441 225.761 39.441C226.419 39.441 226.814 39.0606 226.814 38.4265C226.682 37.9192 226.287 37.4119 225.761 37.4119Z" fill="#CDC6BD"/>
<path d="M236.947 37.4119C236.421 37.4119 235.894 37.7924 235.894 38.4265C235.894 38.9338 236.289 39.441 236.947 39.441C237.605 39.441 238 39.0606 238 38.4265C238 37.9192 237.474 37.4119 236.947 37.4119Z" fill="#CDC6BD"/>
<path d="M102.053 46.7966C101.526 46.7966 101 47.1771 101 47.8112C101 48.4453 101.395 48.8257 102.053 48.8257C102.711 48.8257 103.106 48.4453 103.106 47.8112C103.106 47.1771 102.579 46.7966 102.053 46.7966Z" fill="#CDC6BD"/>
<path d="M113.239 46.7966C112.713 46.7966 112.186 47.1771 112.186 47.8112C112.186 48.4453 112.581 48.8257 113.239 48.8257C113.897 48.8257 114.292 48.4453 114.292 47.8112C114.292 47.1771 113.897 46.7966 113.239 46.7966Z" fill="#CDC6BD"/>
<path d="M124.557 46.7966C124.031 46.7966 123.504 47.1771 123.504 47.8112C123.504 48.4453 123.899 48.8257 124.557 48.8257C125.084 48.8257 125.61 48.4453 125.61 47.8112C125.61 47.1771 125.084 46.7966 124.557 46.7966Z" fill="#CDC6BD"/>
<path d="M135.744 46.7966C135.217 46.7966 134.691 47.1771 134.691 47.8112C134.691 48.4453 135.085 48.8257 135.744 48.8257C136.27 48.8257 136.796 48.4453 136.796 47.8112C136.796 47.1771 136.27 46.7966 135.744 46.7966Z" fill="#CDC6BD"/>
<path d="M147.061 46.7966C146.535 46.7966 146.009 47.1771 146.009 47.8112C146.009 48.4453 146.403 48.8257 147.061 48.8257C147.588 48.8257 148.114 48.4453 148.114 47.8112C148.114 47.1771 147.588 46.7966 147.061 46.7966Z" fill="#CDC6BD"/>
<path d="M158.248 46.7966C157.721 46.7966 157.195 47.1771 157.195 47.8112C157.195 48.4453 157.59 48.8257 158.248 48.8257C158.906 48.8257 159.301 48.4453 159.301 47.8112C159.301 47.1771 158.774 46.7966 158.248 46.7966Z" fill="#CDC6BD"/>
<path d="M169.434 46.7966C168.908 46.7966 168.381 47.1771 168.381 47.8112C168.381 48.4453 168.776 48.8257 169.434 48.8257C169.961 48.8257 170.487 48.4453 170.487 47.8112C170.487 47.1771 170.092 46.7966 169.434 46.7966Z" fill="#CDC6BD"/>
<path d="M180.752 46.7966C180.226 46.7966 179.699 47.1771 179.699 47.8112C179.699 48.4453 180.094 48.8257 180.752 48.8257C181.41 48.8257 181.805 48.4453 181.805 47.8112C181.805 47.1771 181.279 46.7966 180.752 46.7966Z" fill="#CDC6BD"/>
<path d="M191.939 46.7966C191.412 46.7966 190.886 47.1771 190.886 47.8112C190.886 48.4453 191.281 48.8257 191.939 48.8257C192.597 48.8257 192.991 48.4453 192.991 47.8112C192.991 47.1771 192.597 46.7966 191.939 46.7966Z" fill="#CDC6BD"/>
<path d="M203.256 46.7966C202.73 46.7966 202.204 47.1771 202.204 47.8112C202.204 48.4453 202.598 48.8257 203.256 48.8257C203.783 48.8257 204.309 48.4453 204.309 47.8112C204.309 47.1771 203.783 46.7966 203.256 46.7966Z" fill="#CDC6BD"/>
<path d="M214.443 46.7966C213.916 46.7966 213.39 47.1771 213.39 47.8112C213.39 48.4453 213.785 48.8257 214.443 48.8257C215.101 48.8257 215.496 48.4453 215.496 47.8112C215.496 47.1771 215.101 46.7966 214.443 46.7966Z" fill="#CDC6BD"/>
<path d="M225.761 46.7966C225.234 46.7966 224.708 47.1771 224.708 47.8112C224.708 48.4453 225.103 48.8257 225.761 48.8257C226.419 48.8257 226.814 48.4453 226.814 47.8112C226.814 47.1771 226.287 46.7966 225.761 46.7966Z" fill="#CDC6BD"/>
<path d="M236.947 46.7966C236.421 46.7966 235.894 47.1771 235.894 47.8112C235.894 48.4453 236.289 48.8257 236.947 48.8257C237.605 48.8257 238 48.4453 238 47.8112C238 47.1771 237.474 46.7966 236.947 46.7966Z" fill="#CDC6BD"/>
<path d="M102.053 58.2104C102.634 58.2104 103.106 57.7562 103.106 57.1959C103.106 56.6355 102.634 56.1813 102.053 56.1813C101.471 56.1813 101 56.6355 101 57.1959C101 57.7562 101.471 58.2104 102.053 58.2104Z" fill="#CDC6BD"/>
<path d="M113.239 58.2104C113.821 58.2104 114.292 57.7562 114.292 57.1959C114.292 56.6355 113.821 56.1813 113.239 56.1813C112.658 56.1813 112.186 56.6355 112.186 57.1959C112.186 57.7562 112.658 58.2104 113.239 58.2104Z" fill="#CDC6BD"/>
<path d="M124.557 58.2104C125.139 58.2104 125.61 57.7562 125.61 57.1959C125.61 56.6355 125.139 56.1813 124.557 56.1813C123.976 56.1813 123.504 56.6355 123.504 57.1959C123.504 57.7562 123.976 58.2104 124.557 58.2104Z" fill="#CDC6BD"/>
<path d="M135.744 58.2104C136.325 58.2104 136.796 57.7562 136.796 57.1959C136.796 56.6355 136.325 56.1813 135.744 56.1813C135.162 56.1813 134.691 56.6355 134.691 57.1959C134.691 57.7562 135.162 58.2104 135.744 58.2104Z" fill="#CDC6BD"/>
<path d="M147.061 58.2104C147.643 58.2104 148.114 57.7562 148.114 57.1959C148.114 56.6355 147.643 56.1813 147.061 56.1813C146.48 56.1813 146.009 56.6355 146.009 57.1959C146.009 57.7562 146.48 58.2104 147.061 58.2104Z" fill="#CDC6BD"/>
<path d="M158.248 58.2104C158.829 58.2104 159.301 57.7562 159.301 57.1959C159.301 56.6355 158.829 56.1813 158.248 56.1813C157.666 56.1813 157.195 56.6355 157.195 57.1959C157.195 57.7562 157.666 58.2104 158.248 58.2104Z" fill="#CDC6BD"/>
<path d="M169.434 58.2104C170.016 58.2104 170.487 57.7562 170.487 57.1959C170.487 56.6355 170.016 56.1813 169.434 56.1813C168.853 56.1813 168.381 56.6355 168.381 57.1959C168.381 57.7562 168.853 58.2104 169.434 58.2104Z" fill="#CDC6BD"/>
<path d="M180.752 58.2104C181.334 58.2104 181.805 57.7562 181.805 57.1959C181.805 56.6355 181.334 56.1813 180.752 56.1813C180.171 56.1813 179.699 56.6355 179.699 57.1959C179.699 57.7562 180.171 58.2104 180.752 58.2104Z" fill="#CDC6BD"/>
<path d="M191.939 58.2104C192.52 58.2104 192.991 57.7562 192.991 57.1959C192.991 56.6355 192.52 56.1813 191.939 56.1813C191.357 56.1813 190.886 56.6355 190.886 57.1959C190.886 57.7562 191.357 58.2104 191.939 58.2104Z" fill="#CDC6BD"/>
<path d="M203.256 58.2104C203.838 58.2104 204.309 57.7562 204.309 57.1959C204.309 56.6355 203.838 56.1813 203.256 56.1813C202.675 56.1813 202.204 56.6355 202.204 57.1959C202.204 57.7562 202.675 58.2104 203.256 58.2104Z" fill="#CDC6BD"/>
<path d="M214.443 58.2104C215.024 58.2104 215.496 57.7562 215.496 57.1959C215.496 56.6355 215.024 56.1813 214.443 56.1813C213.861 56.1813 213.39 56.6355 213.39 57.1959C213.39 57.7562 213.861 58.2104 214.443 58.2104Z" fill="#CDC6BD"/>
<path d="M225.761 58.2104C226.342 58.2104 226.814 57.7562 226.814 57.1959C226.814 56.6355 226.342 56.1813 225.761 56.1813C225.179 56.1813 224.708 56.6355 224.708 57.1959C224.708 57.7562 225.179 58.2104 225.761 58.2104Z" fill="#CDC6BD"/>
<path d="M236.947 56.1813C236.421 56.1813 235.894 56.5618 235.894 57.1959C235.894 57.7031 236.289 58.2104 236.947 58.2104C237.605 58.2104 238 57.83 238 57.1959C238 56.5618 237.474 56.1813 236.947 56.1813Z" fill="#CDC6BD"/>
<path d="M102.053 67.4683C102.634 67.4683 103.106 67.014 103.106 66.4537C103.106 65.8934 102.634 65.4392 102.053 65.4392C101.471 65.4392 101 65.8934 101 66.4537C101 67.014 101.471 67.4683 102.053 67.4683Z" fill="#CDC6BD"/>
<path d="M113.239 67.4683C113.821 67.4683 114.292 67.014 114.292 66.4537C114.292 65.8934 113.821 65.4392 113.239 65.4392C112.658 65.4392 112.186 65.8934 112.186 66.4537C112.186 67.014 112.658 67.4683 113.239 67.4683Z" fill="#CDC6BD"/>
<path d="M124.557 67.4683C125.139 67.4683 125.61 67.014 125.61 66.4537C125.61 65.8934 125.139 65.4392 124.557 65.4392C123.976 65.4392 123.504 65.8934 123.504 66.4537C123.504 67.014 123.976 67.4683 124.557 67.4683Z" fill="#CDC6BD"/>
<path d="M135.744 67.4683C136.325 67.4683 136.796 67.014 136.796 66.4537C136.796 65.8934 136.325 65.4392 135.744 65.4392C135.162 65.4392 134.691 65.8934 134.691 66.4537C134.691 67.014 135.162 67.4683 135.744 67.4683Z" fill="#CDC6BD"/>
<path d="M147.061 67.4683C147.643 67.4683 148.114 67.014 148.114 66.4537C148.114 65.8934 147.643 65.4392 147.061 65.4392C146.48 65.4392 146.009 65.8934 146.009 66.4537C146.009 67.014 146.48 67.4683 147.061 67.4683Z" fill="#CDC6BD"/>
<path d="M158.248 67.4683C158.829 67.4683 159.301 67.014 159.301 66.4537C159.301 65.8934 158.829 65.4392 158.248 65.4392C157.666 65.4392 157.195 65.8934 157.195 66.4537C157.195 67.014 157.666 67.4683 158.248 67.4683Z" fill="#CDC6BD"/>
<path d="M169.434 67.4683C170.016 67.4683 170.487 67.014 170.487 66.4537C170.487 65.8934 170.016 65.4392 169.434 65.4392C168.853 65.4392 168.381 65.8934 168.381 66.4537C168.381 67.014 168.853 67.4683 169.434 67.4683Z" fill="#CDC6BD"/>
<path d="M180.752 67.4683C181.334 67.4683 181.805 67.014 181.805 66.4537C181.805 65.8934 181.334 65.4392 180.752 65.4392C180.171 65.4392 179.699 65.8934 179.699 66.4537C179.699 67.014 180.171 67.4683 180.752 67.4683Z" fill="#CDC6BD"/>
<path d="M191.939 67.4683C192.52 67.4683 192.991 67.014 192.991 66.4537C192.991 65.8934 192.52 65.4392 191.939 65.4392C191.357 65.4392 190.886 65.8934 190.886 66.4537C190.886 67.014 191.357 67.4683 191.939 67.4683Z" fill="#CDC6BD"/>
<path d="M203.256 67.4683C203.838 67.4683 204.309 67.014 204.309 66.4537C204.309 65.8934 203.838 65.4392 203.256 65.4392C202.675 65.4392 202.204 65.8934 202.204 66.4537C202.204 67.014 202.675 67.4683 203.256 67.4683Z" fill="#CDC6BD"/>
<path d="M214.443 67.4683C215.024 67.4683 215.496 67.014 215.496 66.4537C215.496 65.8934 215.024 65.4392 214.443 65.4392C213.861 65.4392 213.39 65.8934 213.39 66.4537C213.39 67.014 213.861 67.4683 214.443 67.4683Z" fill="#CDC6BD"/>
<path d="M225.761 67.4683C226.342 67.4683 226.814 67.014 226.814 66.4537C226.814 65.8934 226.342 65.4392 225.761 65.4392C225.179 65.4392 224.708 65.8934 224.708 66.4537C224.708 67.014 225.179 67.4683 225.761 67.4683Z" fill="#CDC6BD"/>
<path d="M236.947 65.566C236.421 65.566 235.894 65.9464 235.894 66.5805C235.894 67.0878 236.289 67.5951 236.947 67.5951C237.605 67.5951 238 67.2146 238 66.5805C238 65.9464 237.474 65.566 236.947 65.566Z" fill="#CDC6BD"/>
<path d="M102.053 76.853C102.634 76.853 103.106 76.3987 103.106 75.8384C103.106 75.2781 102.634 74.8238 102.053 74.8238C101.471 74.8238 101 75.2781 101 75.8384C101 76.3987 101.471 76.853 102.053 76.853Z" fill="#CDC6BD"/>
<path d="M113.239 76.853C113.821 76.853 114.292 76.3987 114.292 75.8384C114.292 75.2781 113.821 74.8238 113.239 74.8238C112.658 74.8238 112.186 75.2781 112.186 75.8384C112.186 76.3987 112.658 76.853 113.239 76.853Z" fill="#CDC6BD"/>
<path d="M124.557 76.853C125.139 76.853 125.61 76.3987 125.61 75.8384C125.61 75.2781 125.139 74.8238 124.557 74.8238C123.976 74.8238 123.504 75.2781 123.504 75.8384C123.504 76.3987 123.976 76.853 124.557 76.853Z" fill="#CDC6BD"/>
<path d="M135.744 76.853C136.325 76.853 136.796 76.3987 136.796 75.8384C136.796 75.2781 136.325 74.8238 135.744 74.8238C135.162 74.8238 134.691 75.2781 134.691 75.8384C134.691 76.3987 135.162 76.853 135.744 76.853Z" fill="#CDC6BD"/>
<path d="M147.061 76.853C147.643 76.853 148.114 76.3987 148.114 75.8384C148.114 75.2781 147.643 74.8238 147.061 74.8238C146.48 74.8238 146.009 75.2781 146.009 75.8384C146.009 76.3987 146.48 76.853 147.061 76.853Z" fill="#CDC6BD"/>
<path d="M158.248 76.853C158.829 76.853 159.301 76.3987 159.301 75.8384C159.301 75.2781 158.829 74.8238 158.248 74.8238C157.666 74.8238 157.195 75.2781 157.195 75.8384C157.195 76.3987 157.666 76.853 158.248 76.853Z" fill="#CDC6BD"/>
<path d="M169.434 76.853C170.016 76.853 170.487 76.3987 170.487 75.8384C170.487 75.2781 170.016 74.8238 169.434 74.8238C168.853 74.8238 168.381 75.2781 168.381 75.8384C168.381 76.3987 168.853 76.853 169.434 76.853Z" fill="#CDC6BD"/>
<path d="M180.752 76.853C181.334 76.853 181.805 76.3987 181.805 75.8384C181.805 75.2781 181.334 74.8238 180.752 74.8238C180.171 74.8238 179.699 75.2781 179.699 75.8384C179.699 76.3987 180.171 76.853 180.752 76.853Z" fill="#CDC6BD"/>
<path d="M191.939 76.853C192.52 76.853 192.991 76.3987 192.991 75.8384C192.991 75.2781 192.52 74.8238 191.939 74.8238C191.357 74.8238 190.886 75.2781 190.886 75.8384C190.886 76.3987 191.357 76.853 191.939 76.853Z" fill="#CDC6BD"/>
<path d="M203.256 76.853C203.838 76.853 204.309 76.3987 204.309 75.8384C204.309 75.2781 203.838 74.8238 203.256 74.8238C202.675 74.8238 202.204 75.2781 202.204 75.8384C202.204 76.3987 202.675 76.853 203.256 76.853Z" fill="#CDC6BD"/>
<path d="M214.443 76.853C215.024 76.853 215.496 76.3987 215.496 75.8384C215.496 75.2781 215.024 74.8238 214.443 74.8238C213.861 74.8238 213.39 75.2781 213.39 75.8384C213.39 76.3987 213.861 76.853 214.443 76.853Z" fill="#CDC6BD"/>
<path d="M225.761 76.853C226.342 76.853 226.814 76.3987 226.814 75.8384C226.814 75.2781 226.342 74.8238 225.761 74.8238C225.179 74.8238 224.708 75.2781 224.708 75.8384C224.708 76.3987 225.179 76.853 225.761 76.853Z" fill="#CDC6BD"/>
<path d="M236.947 74.8238C236.421 74.8238 235.894 75.2043 235.894 75.8384C235.894 76.4725 236.289 76.853 236.947 76.853C237.605 76.853 238 76.4725 238 75.8384C238 75.2043 237.474 74.8238 236.947 74.8238Z" fill="#CDC6BD"/>
</g>
<circle opacity="0.14" cx="81" cy="119.256" r="53" stroke="#DCD648" stroke-width="56"/>
</svg>
