<svg width="269" height="254" viewBox="0 0 269 254" fill="none" xmlns="http://www.w3.org/2000/svg">
<path d="M154.736 115.023C156.814 97.3743 166.936 74.7684 147.338 63.2395C122.421 48.5864 93.8895 75.7367 69.1147 77.1439C48.6131 78.3058 58.2055 55.4934 65.2287 46.0947C73.3621 35.2242 84.0389 26.4969 95.8518 19.9126C124.267 4.07173 157.924 -1.93154 190.2 0.534318C204.337 1.61878 219.816 3.24548 231.423 12.1665C242.125 20.3903 245.727 32.9004 236.561 43.8999C231.552 49.9161 224.89 54.3185 219.235 59.7408C204.324 74.0454 201.561 91.4226 198.334 110.736C196.229 123.337 192.86 144.445 176.218 144.6C155.007 144.794 152.877 130.864 154.736 115.023Z" fill="#009843"/>
<path d="M138.081 138.778C150.423 146.24 162.107 158.027 176.309 157.213C188.961 156.49 196.268 145.581 200.657 134.801C203.678 127.404 205.899 119.593 210.134 112.802C221.662 94.3145 244.901 98.5362 244.798 121.684C244.656 153.16 236.948 187.359 220.914 214.625C206.97 238.329 178.904 254.918 151.03 253.021C139.372 252.233 124.371 245.429 120.717 233.216C117.167 221.377 132.13 221.532 139.85 219.505C149.391 216.988 158.596 213.296 165.257 205.704C172.694 197.222 174.475 186.933 162.069 182.401C146.615 176.76 127.611 177.612 112.467 169.414C98.2402 161.706 93.9669 141.114 112.287 134.375C121.75 130.902 130.064 133.923 138.081 138.778Z" fill="#F9B000"/>
<path d="M131.846 118.173C119 120.122 100.835 123.776 92.1724 134.53C63.1501 170.575 134.234 173.635 122.95 203.045C117.838 216.355 98.0336 213.67 87.0857 211.643C47.5028 204.31 13.5101 177.986 3.2077 138.119C-3.07961 113.835 -1.07852 79.3386 17.835 60.6832C24.2514 54.3443 33.5856 56.5519 39.2661 62.6843C46.8057 70.8178 44.3269 82.2176 44.9595 92.3134C45.6825 103.662 54.3195 113.073 66.1453 109.962C79.0039 106.579 87.5118 94.1208 97.1816 85.897C135.538 53.2727 169.866 112.389 131.846 118.173Z" fill="#1D71B8"/>
<path d="M246.308 57.0814C256.946 53.6731 268.01 60.0378 268.333 71.7087C268.759 87.2527 251.369 92.2231 238.833 92.1199C235.773 92.094 232.52 91.8487 230.015 90.0671C215.13 79.4678 230.764 62.0647 246.308 57.0814Z" fill="#AFCA0B"/>
<path d="M39.5501 16.3236C48.781 12.5151 60.0516 12.6054 64.5315 19.1639C66.6617 22.2881 66.4422 26.7293 64.9317 30.3312C61.2652 39.0457 51.8923 47.6439 42.8551 48.3927C33.6114 49.1544 25.1035 41.4083 25.891 31.1962C26.3945 24.6636 32.3462 19.293 39.5501 16.3236Z" fill="#554596"/>
<path d="M94.9997 222.41C105.044 225.47 113.578 231.68 106.877 242.602C103.882 247.482 98.3693 249.883 92.9857 250.568C82.5284 251.897 70.6897 246.514 66.9845 235.811C65.461 231.409 65.6676 225.844 68.9339 222.772C71.0641 220.771 74.0206 220.216 76.8479 219.996C80.7468 219.699 88.2219 220.332 94.9997 222.41Z" fill="#E84E0F"/>
</svg>
