<svg width="142" height="134" viewBox="0 0 142 134" fill="none" xmlns="http://www.w3.org/2000/svg">
<path d="M81.8827 60.8674C82.9826 51.5283 88.3387 39.5658 77.968 33.465C64.7826 25.7108 49.6842 40.0782 36.5739 40.8228C25.725 41.4377 30.801 29.3659 34.5176 24.3923C38.8216 18.6399 44.4715 14.0216 50.7227 10.5373C65.7595 2.15467 83.5701 -1.02213 100.65 0.282749C108.131 0.856623 116.322 1.71743 122.464 6.43823C128.127 10.7901 130.033 17.4102 125.183 23.2309C122.532 26.4145 119.007 28.7442 116.014 31.6135C108.124 39.1832 106.662 48.3788 104.954 58.5993C103.84 65.2671 102.057 76.4372 93.2508 76.5192C82.0261 76.6216 80.8989 69.2501 81.8827 60.8674Z" fill="#E5F5EC" fill-opacity="0.3"/>
<path d="M73.0696 73.438C79.6008 77.3868 85.7836 83.6243 93.2986 83.1939C99.9938 82.8113 103.861 77.0384 106.183 71.3338C107.782 67.4192 108.957 63.2859 111.198 59.6924C117.299 49.9092 129.596 52.1432 129.541 64.3927C129.466 81.0487 125.388 99.1462 116.903 113.575C109.524 126.118 94.6718 134.897 79.9219 133.893C73.7527 133.476 65.8142 129.876 63.8807 123.413C62.002 117.148 69.9201 117.23 74.0055 116.157C79.0542 114.825 83.9253 112.871 87.4506 108.854C91.3857 104.366 92.3285 98.9208 85.7631 96.5228C77.5854 93.5373 67.5289 93.9882 59.5152 89.65C51.9865 85.5714 49.7252 74.6746 59.4196 71.1084C64.4273 69.2706 68.827 70.8693 73.0696 73.438Z" fill="#E5F5EC" fill-opacity="0.3"/>
<path d="M69.7698 62.5344C62.9722 63.566 53.3598 65.4994 48.7756 71.1903C33.4176 90.2648 71.0337 91.884 65.0627 107.447C62.3573 114.491 51.8773 113.069 46.0839 111.997C25.1375 108.116 7.14924 94.1863 1.69744 73.0896C-1.62966 60.2389 -0.570727 41.9843 9.43791 32.1123C12.8333 28.7578 17.7727 29.9261 20.7788 33.1712C24.7685 37.4753 23.4568 43.5078 23.7916 48.8503C24.1742 54.8554 28.7447 59.8358 35.0026 58.1894C41.8071 56.3994 46.3093 49.8067 51.4264 45.4548C71.7237 28.1908 89.8896 59.4738 69.7698 62.5344Z" fill="#E5F5EC" fill-opacity="0.3"/>
<path d="M130.341 30.2062C135.97 28.4026 141.825 31.7707 141.996 37.9467C142.221 46.1722 133.019 48.8025 126.385 48.7478C124.766 48.7342 123.045 48.6044 121.719 47.6616C113.842 42.0526 122.115 32.8433 130.341 30.2062Z" fill="#E5F5EC" fill-opacity="0.3"/>
<path d="M20.9291 8.6381C25.8139 6.62271 31.7781 6.67053 34.1487 10.1411C35.276 11.7944 35.1598 14.1446 34.3605 16.0506C32.4203 20.6621 27.4603 25.2121 22.6781 25.6084C17.7865 26.0114 13.2843 21.9123 13.701 16.5084C13.9675 13.0515 17.1169 10.2094 20.9291 8.6381Z" fill="#E5F5EC" fill-opacity="0.3"/>
<path d="M50.2717 117.695C55.5869 119.314 60.1027 122.6 56.557 128.38C54.972 130.962 52.0548 132.233 49.206 132.595C43.6722 133.299 37.4074 130.45 35.4466 124.786C34.6405 122.456 34.7498 119.512 36.4783 117.886C37.6055 116.827 39.17 116.533 40.6662 116.417C42.7294 116.26 46.685 116.595 50.2717 117.695Z" fill="#E5F5EC" fill-opacity="0.3"/>
</svg>
