<svg width="20" height="36" viewBox="0 0 20 36" fill="none" xmlns="http://www.w3.org/2000/svg">
<g clip-path="url(#clip0_140_10000)">
<path d="M2.32827 0H17.6717C18.9574 0 20 1.0203 20 2.27841V33.7197C20 34.9778 18.9574 35.9981 17.6717 35.9981H2.32827C1.04263 35.9981 0 34.9778 0 33.7197V2.27841C0 1.0203 1.04263 0 2.32827 0ZM13.4366 1.28496H6.56149C6.42626 1.28496 6.31651 1.39236 6.31651 1.52469C6.31651 1.65702 6.42626 1.76442 6.56149 1.76442H13.4366C13.5718 1.76442 13.6815 1.65702 13.6815 1.52469C13.6815 1.39236 13.5718 1.28496 13.4366 1.28496ZM9.99902 35.3C10.7888 35.3 11.4277 34.6748 11.4277 33.9019C11.4277 33.129 10.7888 32.5038 9.99902 32.5038C9.20921 32.5038 8.57031 33.129 8.57031 33.9019C8.57031 34.6748 9.20921 35.3 9.99902 35.3ZM1.07006 31.4566H18.928V3.14528H1.07006V31.4547V31.4566Z" fill="white"/>
</g>
<defs>
<clipPath id="clip0_140_10000">
<rect width="20" height="36" fill="white" transform="matrix(-1 0 0 1 20 0)"/>
</clipPath>
</defs>
</svg>
