<svg width="10" height="19" viewBox="0 0 10 19" fill="none" xmlns="http://www.w3.org/2000/svg">
<g clip-path="url(#clip0_140_12683)">
<path d="M1.30948 0.757812H8.66593C9.28234 0.757812 9.78223 1.24732 9.78223 1.85091V16.9354C9.78223 17.539 9.28234 18.0285 8.66593 18.0285H1.30948C0.693076 18.0285 0.193186 17.539 0.193186 16.9354V1.85091C0.193186 1.24732 0.693076 0.757812 1.30948 0.757812ZM6.63537 1.37429H3.33911C3.27427 1.37429 3.22165 1.42582 3.22165 1.48931C3.22165 1.5528 3.27427 1.60432 3.33911 1.60432H6.63537C6.7002 1.60432 6.75282 1.5528 6.75282 1.48931C6.75282 1.42582 6.7002 1.37429 6.63537 1.37429ZM4.98724 17.6935C5.36591 17.6935 5.67224 17.3936 5.67224 17.0228C5.67224 16.652 5.36591 16.352 4.98724 16.352C4.60856 16.352 4.30224 16.652 4.30224 17.0228C4.30224 17.3936 4.60856 17.6935 4.98724 17.6935ZM0.706231 15.8496H9.26824V2.26681H0.706231V15.8487V15.8496Z" fill="white"/>
</g>
<defs>
<clipPath id="clip0_140_12683">
<rect width="9.58904" height="17.2716" fill="white" transform="matrix(-1 0 0 1 9.78223 0.757812)"/>
</clipPath>
</defs>
</svg>
