<svg width="14" height="15" viewBox="0 0 14 15" fill="none" xmlns="http://www.w3.org/2000/svg">
<path d="M3.36587 0.679926C3.5753 0.686808 3.77797 0.720451 3.97013 0.777796C4.02117 0.793089 4.07222 0.809145 4.12251 0.827496C4.45579 0.949834 4.68699 1.26027 4.72827 1.61887L5.07131 4.60849C5.09158 4.78359 5.03003 4.96098 4.90017 5.0772C4.58565 5.35705 4.19983 5.55585 3.77647 5.64301C4.68023 7.89708 6.37741 9.61593 8.39361 10.7453C8.51296 10.3224 8.7389 9.947 9.0384 9.65034C9.16226 9.52723 9.34091 9.47983 9.51055 9.51424L12.408 10.1053C12.7548 10.1764 13.04 10.4364 13.1331 10.785C13.1474 10.837 13.1594 10.8905 13.1699 10.9433C13.2104 11.1429 13.2269 11.3516 13.2164 11.5649C13.1519 12.9565 12.5611 14.329 10.5179 14.0813C4.97523 13.4076 0.308547 8.99354 0.7867 3.32854C0.97661 1.08211 1.99897 0.633285 3.36587 0.679926Z" fill="white"/>
</svg>
