<svg width="26" height="28" viewBox="0 0 26 28" fill="none" xmlns="http://www.w3.org/2000/svg">
<g clip-path="url(#clip0_140_10017)">
<path d="M5.44985 0.0061158C5.88666 0.0204592 6.30937 0.0905828 6.71017 0.210111C6.81663 0.241986 6.92309 0.275454 7.02798 0.313703C7.72311 0.568698 8.20532 1.21575 8.29143 1.9632L9.00691 8.19463C9.04918 8.55959 8.9208 8.92933 8.64995 9.17158C7.99396 9.75488 7.18924 10.1692 6.30624 10.3509C8.19123 15.0492 11.7311 18.6319 15.9363 20.9858C16.1852 20.1045 16.6565 19.322 17.2811 18.7036C17.5395 18.447 17.9121 18.3482 18.2659 18.4199L24.3091 19.6519C25.0324 19.8001 25.6274 20.3419 25.8215 21.0687C25.8512 21.177 25.8763 21.2886 25.8982 21.3986C25.9828 21.8145 26.0172 22.2496 25.9953 22.6943C25.8606 25.5948 24.6285 28.4555 20.3669 27.9392C8.80651 26.5351 -0.926855 17.3346 0.0704353 5.52675C0.466533 0.844411 2.59889 -0.0911009 5.44985 0.0061158Z" fill="white"/>
</g>
<defs>
<clipPath id="clip0_140_10017">
<rect width="26" height="28" fill="white"/>
</clipPath>
</defs>
</svg>
