<svg width="280" height="42" viewBox="0 0 280 42" fill="none" xmlns="http://www.w3.org/2000/svg">
<path d="M25.0676 18.6255C25.4078 15.773 27.0434 12.1092 23.8638 10.2381C19.8206 7.86973 15.2016 12.2662 11.1846 12.4887C7.87413 12.685 9.43122 8.98194 10.5696 7.46409C11.8912 5.69764 13.6184 4.28447 15.5288 3.2246C20.1346 0.659966 25.591 -0.308314 30.8119 0.084232C33.1017 0.254335 35.614 0.529117 37.4852 1.96845C39.2255 3.30311 39.8012 5.33126 38.3226 7.1108C37.5113 8.09217 36.4253 8.79875 35.5094 9.67544C33.0887 11.9915 32.6438 14.8047 32.1204 17.932C31.7802 19.9732 31.2306 23.3884 28.5351 23.4145C25.1069 23.4538 24.7667 21.1901 25.0676 18.6255Z" fill="#009843"/>
<path d="M22.3722 22.4723C24.3742 23.6761 26.2584 25.5865 28.5613 25.4556C30.6156 25.3379 31.7933 23.5714 32.4999 21.8311C32.984 20.6273 33.3504 19.3712 34.0308 18.2721C35.9019 15.2756 39.6573 15.956 39.6442 19.7114C39.618 24.8145 38.375 30.3494 35.7711 34.7721C33.5074 38.6059 28.9669 41.3014 24.4527 40.9874C22.5684 40.8565 20.1347 39.7574 19.5458 37.7816C18.9701 35.8581 21.3908 35.8843 22.647 35.5572C24.191 35.1515 25.6826 34.5496 26.7687 33.3197C27.9725 31.9457 28.2604 30.2709 26.2584 29.5381C23.7592 28.6222 20.6711 28.7661 18.2243 27.4315C15.9213 26.1884 15.2278 22.8518 18.1981 21.7526C19.729 21.2031 21.0637 21.6872 22.3722 22.4723Z" fill="#F9B000"/>
<path d="M21.3646 19.1358C19.2841 19.4498 16.34 20.0387 14.9399 21.792C10.2425 27.6279 21.7572 28.1251 19.9253 32.888C19.1009 35.047 15.8821 34.6152 14.1156 34.275C7.70402 33.0843 2.19529 28.8186 0.520427 22.3678C-0.500192 18.4292 -0.17307 12.842 2.88879 9.81938C3.92249 8.79876 5.44033 9.15206 6.35628 10.1465C7.57317 11.4681 7.18062 13.313 7.2853 14.9487C7.40306 16.7805 8.80314 18.3115 10.7135 17.8011C12.794 17.2516 14.181 15.2365 15.7381 13.9019C21.9534 8.62866 27.5145 18.2068 21.3646 19.1358Z" fill="#1D71B8"/>
<path d="M39.9059 9.24359C41.6331 8.69402 43.4257 9.72773 43.4781 11.6119C43.5435 14.1373 40.7302 14.9355 38.7021 14.9224C38.2049 14.9224 37.6815 14.8832 37.2758 14.5953C34.8551 12.8681 37.3805 10.0418 39.9059 9.24359Z" fill="#AFCA0B"/>
<path d="M6.40864 2.63566C7.90031 2.02067 9.73219 2.03375 10.4519 3.09363C10.7921 3.60394 10.7659 4.3236 10.5173 4.89934C9.92847 6.3125 8.41062 7.71258 6.94512 7.83035C5.45344 7.94811 4.06645 6.70505 4.1973 5.04327C4.27581 3.9834 5.24409 3.1198 6.40864 2.63566Z" fill="#554596"/>
<path d="M15.3848 36.0284C17.0073 36.5256 18.3943 37.5331 17.3083 39.2996C16.8241 40.0847 15.9344 40.4772 15.0577 40.595C13.3697 40.8174 11.4463 39.9408 10.8444 38.2005C10.5957 37.4939 10.635 36.591 11.1584 36.0938C11.4986 35.7667 11.9827 35.6751 12.4407 35.6489C13.0819 35.5835 14.2857 35.6882 15.3848 36.0284Z" fill="#E84E0F"/>
<path d="M58.434 31.3833C56.7591 28.3868 55.3983 25.0109 55.3983 20.5098C55.3983 16.7151 56.5236 12.9336 58.434 9.63623H60.3706C58.6957 13.0121 57.8059 16.5712 57.8059 20.5098C57.8059 24.4483 58.6172 28.0335 60.3706 31.3833H58.434Z" fill="#25204D"/>
<path d="M69.3598 10.4082L75.8761 23.2968L73.861 25.0371L69.399 15.5505L64.9371 25.3249L62.8304 23.5454L69.3598 10.4082ZM76.9621 10.0026H79.5922V16.231H81.7119V18.9264H79.5922V30.9907H76.9621V10.0026Z" fill="#25204D"/>
<path d="M85.9645 9.62305C87.6394 12.6456 88.9871 16.0215 88.9871 20.5227C88.9871 24.3173 87.888 28.0989 85.9645 31.3832H84.0149C85.6898 28.0334 86.6057 24.4744 86.6057 20.5227C86.6057 16.5842 85.7813 12.9989 84.0149 9.62305H85.9645Z" fill="#25204D"/>
<path d="M106.024 18.4947L104.152 20.5228L99.3111 14.7131L94.8491 21.4649L92.9387 19.2274L99.2325 10.3297L106.024 18.4947ZM102.386 31.03C98.9447 31.03 94.522 30.4804 94.522 26.2409C94.522 21.9883 99.0101 21.478 102.386 21.478C105.762 21.478 110.25 22.0014 110.25 26.2409C110.25 30.4935 105.775 31.03 102.386 31.03ZM102.386 24.0688C99.4157 24.0688 97.1128 24.3567 97.1128 26.2409C97.1128 28.1251 99.4026 28.3868 102.386 28.3868C105.356 28.3868 107.659 28.1513 107.659 26.2409C107.659 24.3567 105.369 24.0688 102.386 24.0688ZM110.041 22.0799H107.411V15.8254H104.545V13.1299H107.411V9.9895H110.041V22.0799Z" fill="#25204D"/>
<path d="M132.219 21.635H113.953V18.9395H121.752V17.8273H117.761C116.439 17.8273 115.379 17.2778 115.379 15.3935V10.4736H130.754V13.1691H118.009V15.158H130.754V17.8535H124.355L124.382 18.9657H132.219V21.635ZM123.06 30.9776C118.978 30.9776 115.091 30.7159 115.091 26.6073C115.091 22.4986 118.978 22.2238 123.06 22.2238C127.143 22.2238 131.029 22.5248 131.029 26.6073C131.029 30.729 127.143 30.9776 123.06 30.9776ZM123.06 24.7492C120.469 24.7492 117.682 24.6315 117.682 26.6204C117.682 28.5962 120.469 28.413 123.06 28.413C125.651 28.413 128.438 28.5307 128.438 26.6204C128.438 24.6315 125.651 24.7492 123.06 24.7492Z" fill="#25204D"/>
<path d="M153.443 22.8912H145.605V31.0038H142.975V22.8912H135.177V20.1826H153.443V22.8912ZM152.004 19.1882H149.348V13.1691H136.838V10.4736H152.004V19.1882Z" fill="#25204D"/>
<path d="M169.25 23.2837L167.078 24.9586L162.786 18.1675L158.285 25.338L155.995 23.7155L162.707 13.3785L169.25 23.2837ZM168.595 13.313H156.845V10.6176H168.595V13.313ZM175.112 19.633H172.77V31.0038H170.139V10.0026H172.77V16.9114H175.112V19.633Z" fill="#25204D"/>
<path d="M195.04 26.5419H192.41V25.6259H188.772V22.9174H192.41V22.1584H185.972V25.4689H183.342V22.1584H177.65V19.463H192.41V9.97644H195.04V26.5419ZM184.637 18.4947C182.518 18.4947 178.775 18.4423 178.775 14.4384C178.775 10.4213 182.518 10.3821 184.637 10.3821C186.757 10.3821 190.499 10.4344 190.499 14.4384C190.499 18.4554 186.757 18.4947 184.637 18.4947ZM195.341 30.7683H182.02C181.026 30.7683 179.731 30.4673 179.731 28.4261V23.4669H182.361V28.0728H195.341V30.7683ZM184.637 12.999C183.211 12.999 181.366 13.0252 181.366 14.4384C181.366 15.8777 183.211 15.8777 184.637 15.8777C186.064 15.8777 187.909 15.8515 187.909 14.4384C187.909 13.0252 186.051 12.999 184.637 12.999Z" fill="#25204D"/>
<path d="M217.18 21.9884H198.887V19.2929H206.699V18.233H202.603C201.504 18.233 200.326 17.7358 200.326 15.917V10.356H202.956V11.9131H213.071V10.356H215.701V18.233H209.355V19.2929H217.167V21.9884H217.18ZM208.02 31.0039C204.723 31.0039 200.078 31.0693 200.078 26.8298C200.078 22.5903 204.736 22.6819 208.02 22.6819C211.304 22.6819 215.989 22.5903 215.989 26.8298C215.989 31.0693 211.318 31.0039 208.02 31.0039ZM208.02 25.2073C204.618 25.2073 202.668 25.1811 202.668 26.8298C202.668 28.4785 204.618 28.4523 208.02 28.4523C211.422 28.4523 213.398 28.4785 213.398 26.8298C213.398 25.1811 211.422 25.2073 208.02 25.2073ZM213.084 15.6161V14.3861H202.969V15.6161H213.084Z" fill="#25204D"/>
<path d="M226.391 10.4082L232.908 23.2968L230.892 25.0371L226.431 15.5505L221.969 25.3249L219.875 23.5454L226.391 10.4082ZM234.007 10.0026H236.637V16.231H238.756V18.9264H236.637V30.9907H234.007V10.0026Z" fill="#25204D"/>
<path d="M255.165 25.3249H252.535V16.6366H250.297L252.024 19.5153L250.023 21.2817L246.66 15.2103L243.48 21.792L241.373 19.9732L246.62 10.4213L250.127 16.3226V13.8495H252.535V10.0026H255.165V25.3249ZM259.012 30.7682H245.862C244.815 30.7682 243.467 30.3626 243.467 28.2952V23.1005H246.123V28.0335H259.025V30.7682H259.012ZM258.776 25.3249H256.146V10.0026H258.776V25.3249Z" fill="#25204D"/>
<path d="M263.199 10.6176H274.91V13.3261H265.842V16.087H273V18.7302H265.842V21.9621H275.46V24.6707H265.371C264.416 24.6707 263.199 24.2651 263.199 22.3285V10.6176ZM277.37 10.0026H280V31.0038H277.37V18.6647H274.033V15.9562H277.37V10.0026Z" fill="#25204D"/>
</svg>
