<svg width="130" height="51" viewBox="0 0 130 51" fill="none" xmlns="http://www.w3.org/2000/svg">
<path d="M99.997 0.451172H95.7475L87.819 22.9275H91.9259L93.7226 17.771H102.05L103.733 22.9275H107.84L99.997 0.451172ZM94.7094 14.6188L97.8181 5.14516L101.012 14.6188H94.7094Z" fill="#06487B"/>
<path d="M27.5048 11.427L38.023 0.451553H32.8438L26.712 6.87581V0.428711H22.1602V22.9507H26.712V16.2923L32.9864 22.945H38.4223L27.5048 11.427Z" fill="#06487B"/>
<path d="M90.9049 3.77465C90.4314 2.95806 89.8439 2.30136 89.0454 1.80455C88.2468 1.30774 87.3342 0.970823 86.2675 0.753826C85.2009 0.536829 84.0943 0.451172 82.9079 0.451172H77.4206V3.6376H82.366C83.9403 3.6376 85.0355 3.83747 85.8454 4.45991C86.6554 5.08235 86.9634 5.85897 86.9634 7.01819V9.03398C86.9634 11.4324 85.5602 12.7458 82.3603 12.7458H71.9562V22.9561H76.5023V15.9322H82.5884C83.7749 15.9322 84.9157 15.7095 86.0108 15.4925C87.106 15.2755 88.0814 14.8529 88.9313 14.3333C89.7812 13.8193 90.3573 13.1227 90.8535 12.3061C91.3555 11.4895 91.5038 10.4445 91.5038 9.22242V6.80119C91.5038 5.602 91.3669 4.59696 90.8935 3.78036L90.9049 3.77465Z" fill="#06487B"/>
<path d="M76.5081 0.451172H71.962V11.3753H76.5081V0.451172Z" fill="#06487B"/>
<path d="M105.307 0.451172H103.26H103.071H101.024L103.049 6.29932H105.091H105.359H107.406L105.307 0.451172Z" fill="#46A4C6"/>
<path d="M67.2332 7.52637C67.159 6.96104 66.9765 6.43568 66.6856 5.95029C66.3947 5.4649 66.0239 5.05375 65.5733 4.71683C65.1227 4.37421 64.615 4.10581 64.0389 3.90595C63.4685 3.70608 62.8525 3.609 62.1965 3.609C61.09 3.609 60.1488 3.826 59.3673 4.26C58.5916 4.69399 57.9585 5.28217 57.4679 6.01881C56.9831 6.75546 56.6237 7.61774 56.4013 8.60565C56.1788 9.58785 56.0647 10.6214 56.0647 11.7007C56.0647 12.7229 56.1788 13.7108 56.4013 14.6701C56.6237 15.6295 56.9888 16.4746 57.485 17.2113C57.9813 17.9479 58.6144 18.5361 59.3845 18.9701C60.1545 19.4041 61.09 19.6211 62.1965 19.6211C62.9438 19.6211 63.6339 19.4841 64.2614 19.21C64.8888 18.9359 65.4307 18.5647 65.8813 18.1021C66.3319 17.6396 66.6856 17.0971 66.948 16.4804C67.2104 15.8636 67.3472 15.3782 67.3872 14.9442L71.1062 14.9328C70.9921 15.995 70.724 17.0229 70.2392 18.0736C69.7486 19.1243 69.1155 20.0266 68.3283 20.7746C67.5412 21.5227 66.6285 22.0994 65.5847 22.5049C64.5409 22.9103 63.4115 23.1159 62.1965 23.1159C60.6393 23.1159 59.2419 22.819 58.0041 22.2365C56.7663 21.6483 55.7168 20.8374 54.8555 19.8096C53.9942 18.776 53.3325 17.5653 52.8705 16.172C52.4142 14.7786 52.1803 13.2882 52.1803 11.7007C52.1803 10.1132 52.4085 8.51999 52.8705 7.09809C53.3325 5.67619 53.9942 4.44273 54.8669 3.39201C55.7396 2.34128 56.7891 1.51327 58.0155 0.907962C59.2419 0.302654 60.6336 0 62.1908 0C63.3145 0 64.3869 0.177024 65.4136 0.525361C66.4346 0.873699 67.3415 1.37622 68.1287 2.03292C68.9159 2.68391 69.5604 3.47766 70.0567 4.40276C70.5529 5.32785 70.8495 6.37286 70.9408 7.52637H67.2275H67.2332Z" fill="#06487B"/>
<path d="M71.1691 12.7686H67.4272V14.282H71.1691V12.7686Z" fill="#46A4C6"/>
<path d="M39.0612 0.451172L28.5886 11.4324H32.4731L42.9228 0.451172H39.0612Z" fill="#46A4C6"/>
<path d="M39.0554 0.451172V9.55363H43.6072V3.82605H55.6541V0.451172H39.0554Z" fill="#06487B"/>
<path d="M39.0728 10.4558V22.9389H43.6188V14.1333H49.8077L51.0055 10.4558H39.0728Z" fill="#06487B"/>
<path d="M0.655762 46.7744H1.4258V48.6876L2.77195 46.7744H3.66177L2.22436 48.779L3.81008 50.9435H2.89173L1.4258 48.8818V50.9435H0.655762V46.7801V46.7744Z" fill="#0F1736"/>
<path d="M4.78538 50.8062C4.55722 50.6806 4.37469 50.5035 4.2435 50.2694C4.1123 50.0352 4.04956 49.7611 4.04956 49.4413C4.04956 49.1214 4.1123 48.8473 4.2435 48.6189C4.37469 48.3847 4.55151 48.2077 4.78538 48.082C5.01354 47.9564 5.27022 47.8936 5.55542 47.8936C5.84062 47.8936 6.0973 47.9564 6.31975 48.0763C6.54792 48.202 6.72474 48.379 6.85593 48.6131C6.98142 48.8473 7.04987 49.1214 7.04987 49.4413C7.04987 49.7611 6.98712 50.0352 6.85593 50.2694C6.72474 50.5035 6.54792 50.6863 6.31975 50.8062C6.09159 50.9319 5.83491 50.9947 5.55542 50.9947C5.27592 50.9947 5.01354 50.9319 4.78538 50.8062ZM5.02495 50.138C5.15614 50.3036 5.33296 50.3836 5.55542 50.3836C5.77787 50.3836 5.94329 50.3036 6.08019 50.138C6.21708 49.9724 6.27983 49.7439 6.27983 49.447C6.27983 49.15 6.21138 48.9215 6.08019 48.7616C5.94329 48.6017 5.77217 48.5218 5.55542 48.5218C5.33867 48.5218 5.16184 48.6017 5.02495 48.7616C4.88805 48.9215 4.8196 49.15 4.8196 49.447C4.8196 49.7439 4.88805 49.9781 5.02495 50.138Z" fill="#0F1736"/>
<path d="M7.70028 47.9684H8.47033V48.3339C8.56729 48.1911 8.68708 48.0883 8.81827 48.0198C8.95517 47.9513 9.09777 47.917 9.25748 47.917C9.38297 47.917 9.49134 47.917 9.56549 47.9341L9.44001 48.5795C9.37726 48.5566 9.286 48.5395 9.16051 48.5395C9.02932 48.5395 8.90953 48.5852 8.80686 48.6766C8.69849 48.7679 8.61863 48.8993 8.55589 49.0706C8.49885 49.242 8.46462 49.4418 8.46462 49.676V50.9267H7.69458V47.9741L7.70028 47.9684Z" fill="#0F1736"/>
<path d="M10.6092 50.8062C10.3925 50.6806 10.2157 50.5035 10.0902 50.2694C9.96469 50.0352 9.89624 49.7611 9.89624 49.4413C9.89624 49.1214 9.95328 48.8473 10.0731 48.6131C10.1928 48.379 10.3583 48.1962 10.5636 48.0763C10.769 47.9507 11.0028 47.8936 11.2595 47.8936C11.6131 47.8936 11.9269 48.0021 12.2007 48.2248C12.4745 48.4418 12.6285 48.8359 12.6456 49.3899C12.6456 49.4584 12.6456 49.5669 12.6456 49.704H10.6834C10.7062 49.921 10.7747 50.0923 10.8944 50.2123C11.0142 50.3322 11.1625 50.395 11.3451 50.395C11.6531 50.395 11.8641 50.2694 11.9782 50.0238L12.5828 50.3322C12.4687 50.5492 12.3033 50.7091 12.0809 50.8233C11.8584 50.9319 11.6074 50.989 11.3336 50.989C11.0599 50.989 10.8317 50.9261 10.6149 50.8005L10.6092 50.8062ZM11.8584 49.1329C11.8128 48.7045 11.6246 48.4932 11.288 48.4932C11.1283 48.4932 10.9971 48.5503 10.8944 48.6646C10.7918 48.7788 10.729 48.933 10.6948 49.1329H11.8584Z" fill="#0F1736"/>
<path d="M13.5412 50.6006C13.3131 50.3379 13.199 49.9553 13.199 49.4413C13.199 49.1271 13.2503 48.853 13.3587 48.6246C13.4671 48.3904 13.6154 48.2134 13.815 48.082C14.0089 47.9564 14.2371 47.8936 14.4938 47.8936C14.8075 47.8936 15.0699 47.9964 15.2695 48.2077V47.9678H16.0396V50.9204H15.2695V50.6349C15.0642 50.869 14.7961 50.989 14.471 50.989C14.0717 50.989 13.7637 50.8576 13.5355 50.5949L13.5412 50.6006ZM14.1344 50.1437C14.2428 50.2979 14.4025 50.3779 14.6079 50.3779C14.7562 50.3779 14.8931 50.3208 15.0186 50.2065C15.144 50.0923 15.2239 49.9324 15.2695 49.7268V49.2299C15.2296 49.0129 15.1554 48.8416 15.0357 48.7102C14.9159 48.5789 14.779 48.5103 14.625 48.5103C14.4196 48.5103 14.2599 48.5903 14.1458 48.7502C14.0318 48.9101 13.969 49.1386 13.969 49.4413C13.969 49.7439 14.0261 49.9895 14.1344 50.1437Z" fill="#0F1736"/>
<path d="M16.8037 47.9677H17.5738V48.2133C17.6764 48.1048 17.7905 48.0248 17.9274 47.9734C18.0586 47.922 18.2012 47.8992 18.3438 47.8992C18.686 47.8992 18.9712 48.002 19.1994 48.2133C19.4219 48.4246 19.5359 48.7787 19.5359 49.2698V50.926H18.7659V49.2698C18.7659 49.0014 18.7203 48.8072 18.6347 48.693C18.5491 48.5788 18.4236 48.516 18.2525 48.516C18.127 48.516 18.013 48.5559 17.9046 48.6416C17.8019 48.7273 17.7221 48.8472 17.665 49.0071C17.608 49.1613 17.5795 49.3441 17.5795 49.544V50.926H16.8094V47.9677H16.8037Z" fill="#0F1736"/>
<path d="M22.0172 46.7744H24.6354C24.5783 46.8087 24.5498 46.8772 24.5498 46.9857V47.4083H22.7873V48.6077H24.4642V49.2188H22.7873V50.9378H22.0172V46.7744Z" fill="#0F1736"/>
<path d="M25.2628 46.7002H26.1355C26.0785 46.7345 26.05 46.803 26.05 46.9115V47.4655H25.2628V46.7002ZM25.2742 47.9681H26.0443V50.9264H25.2742V47.9681Z" fill="#0F1736"/>
<path d="M26.8145 47.9677H27.5845V48.2133C27.6872 48.1048 27.8012 48.0248 27.9381 47.9734C28.0693 47.922 28.2119 47.8992 28.3545 47.8992C28.7025 47.8992 28.9877 48.002 29.2101 48.2133C29.4326 48.4246 29.5467 48.7787 29.5467 49.2698V50.926H28.7766V49.2698C28.7766 49.0014 28.7367 48.8072 28.6454 48.693C28.5599 48.5788 28.4344 48.516 28.2633 48.516C28.1378 48.516 28.018 48.5559 27.9153 48.6416C27.8127 48.7273 27.7328 48.8472 27.6701 49.0071C27.613 49.1613 27.5845 49.3441 27.5845 49.544V50.926H26.8145V47.9677Z" fill="#0F1736"/>
<path d="M30.539 50.6006C30.3109 50.3379 30.1968 49.9553 30.1968 49.4413C30.1968 49.1271 30.2538 48.853 30.3565 48.6246C30.4649 48.3904 30.6132 48.2134 30.8128 48.082C31.0067 47.9564 31.2349 47.8936 31.4916 47.8936C31.8053 47.8936 32.0677 47.9964 32.2673 48.2077V47.9678H33.0374V50.9204H32.2673V50.6349C32.062 50.869 31.7939 50.989 31.4688 50.989C31.0752 50.989 30.7615 50.8576 30.5333 50.5949L30.539 50.6006ZM31.1322 50.1437C31.2406 50.2979 31.4003 50.3779 31.6057 50.3779C31.754 50.3779 31.8909 50.3208 32.0164 50.2065C32.1418 50.0923 32.2217 49.9324 32.2673 49.7268V49.2299C32.2331 49.0129 32.1533 48.8416 32.0335 48.7102C31.9137 48.5789 31.7768 48.5103 31.6228 48.5103C31.4174 48.5103 31.2577 48.5903 31.1436 48.7502C31.0239 48.9101 30.9668 49.1386 30.9668 49.4413C30.9668 49.7439 31.0182 49.9895 31.1322 50.1437Z" fill="#0F1736"/>
<path d="M33.8018 47.9677H34.5718V48.2133C34.6745 48.1048 34.7886 48.0248 34.9254 47.9734C35.0566 47.922 35.1992 47.8992 35.3418 47.8992C35.6898 47.8992 35.9693 48.002 36.1974 48.2133C36.4199 48.4246 36.534 48.7787 36.534 49.2698V50.926H35.7639V49.2698C35.7639 49.0014 35.724 48.8072 35.6384 48.693C35.5529 48.5788 35.4274 48.516 35.2563 48.516C35.1308 48.516 35.011 48.5559 34.9083 48.6416C34.8057 48.7273 34.7258 48.8472 34.6631 49.0071C34.6003 49.167 34.5775 49.3441 34.5775 49.544V50.926H33.8075V47.9677H33.8018Z" fill="#0F1736"/>
<path d="M37.9201 50.8062C37.6977 50.6806 37.5152 50.5035 37.384 50.2694C37.2471 50.0352 37.1843 49.7611 37.1843 49.4413C37.1843 49.1214 37.2528 48.8473 37.3783 48.6131C37.5095 48.379 37.6863 48.1962 37.9087 48.0763C38.1312 47.9564 38.3708 47.8936 38.6331 47.8936C38.8784 47.8936 39.0952 47.9392 39.2891 48.0306C39.483 48.122 39.637 48.2591 39.7454 48.4361L39.1978 48.8302C39.0781 48.6189 38.8955 48.5161 38.6503 48.5161C38.4506 48.5161 38.2852 48.6017 38.154 48.7731C38.0228 48.9444 37.9601 49.1728 37.9601 49.447C37.9601 49.7211 38.0285 49.9553 38.1597 50.1266C38.2909 50.2979 38.4677 50.3779 38.6788 50.3779C38.9583 50.3779 39.1636 50.2408 39.2891 49.9667L39.9165 50.2808C39.8196 50.5092 39.6599 50.6863 39.426 50.8119C39.1921 50.9376 38.9355 51.0004 38.6503 51.0004C38.3879 51.0004 38.1483 50.9376 37.9201 50.8119V50.8062Z" fill="#0F1736"/>
<path d="M40.35 46.7002H41.2227C41.1656 46.7345 41.1371 46.803 41.1371 46.9115V47.4655H40.35V46.7002ZM40.3614 47.9681H41.1314V50.9264H40.3614V47.9681Z" fill="#0F1736"/>
<path d="M42.1352 50.6006C41.9071 50.3379 41.793 49.9553 41.793 49.4413C41.793 49.1271 41.8443 48.853 41.9527 48.6246C42.0611 48.3904 42.2094 48.2134 42.409 48.082C42.6029 47.9564 42.8311 47.8936 43.0878 47.8936C43.4015 47.8936 43.6639 47.9964 43.8635 48.2077V47.9678H44.6336V50.9204H43.8635V50.6349C43.6582 50.869 43.3901 50.989 43.065 50.989C42.6714 50.989 42.3577 50.8576 42.1295 50.5949L42.1352 50.6006ZM42.7284 50.1437C42.8368 50.2979 42.9965 50.3779 43.2019 50.3779C43.3502 50.3779 43.4871 50.3208 43.6125 50.2065C43.738 50.0923 43.8179 49.9324 43.8635 49.7268V49.2299C43.8293 49.0129 43.7494 48.8416 43.6297 48.7102C43.5099 48.5789 43.373 48.5103 43.219 48.5103C43.0136 48.5103 42.8539 48.5903 42.7398 48.7502C42.6258 48.9101 42.5687 49.1386 42.5687 49.4413C42.5687 49.7439 42.6258 49.9895 42.7341 50.1437H42.7284Z" fill="#0F1736"/>
<path d="M45.3979 46.7002H46.168V50.6922C46.168 50.7494 46.1737 50.8008 46.1908 50.835C46.2079 50.8693 46.2364 50.9036 46.2707 50.9264H45.3979V46.7002Z" fill="#0F1736"/>
<path d="M49.4991 50.7375C49.2196 50.5662 48.9972 50.3206 48.8375 50.0008C48.6778 49.681 48.5979 49.2984 48.5979 48.8586C48.5979 48.4188 48.6778 48.0419 48.8375 47.7221C48.9972 47.4023 49.2196 47.151 49.5048 46.9797C49.7843 46.8083 50.0981 46.7227 50.446 46.7227C50.7654 46.7227 51.0506 46.7855 51.3073 46.9054C51.5583 47.0311 51.7579 47.2138 51.9062 47.4651L51.2959 47.8135C51.2217 47.6479 51.1077 47.5279 50.9594 47.4537C50.8111 47.3794 50.6399 47.3395 50.4517 47.3395C50.2464 47.3395 50.0581 47.3966 49.8984 47.5165C49.733 47.6307 49.6075 47.8078 49.5162 48.0305C49.425 48.2589 49.3736 48.5331 49.3736 48.8529C49.3736 49.344 49.4706 49.721 49.6703 49.978C49.8699 50.2407 50.1323 50.3663 50.4631 50.3663C50.6913 50.3663 50.8966 50.3149 51.0734 50.2121C51.2503 50.1093 51.3815 49.9494 51.4613 49.7381L52.1116 50.018C51.9747 50.3321 51.7636 50.5776 51.467 50.7433C51.1704 50.9089 50.8339 50.9946 50.4574 50.9946C50.1038 50.9946 49.79 50.9089 49.5105 50.7375H49.4991Z" fill="#0F1736"/>
<path d="M52.5907 47.9684H53.3607V48.3339C53.4577 48.1911 53.5775 48.0883 53.7087 48.0198C53.8455 47.9513 53.9881 47.917 54.1422 47.917C54.2676 47.917 54.3703 47.917 54.4502 47.9341L54.3247 48.5795C54.2619 48.5566 54.1707 48.5395 54.0452 48.5395C53.914 48.5395 53.7942 48.5852 53.6915 48.6766C53.5889 48.7679 53.5033 48.8993 53.4463 49.0706C53.3835 49.242 53.355 49.4418 53.355 49.676V50.9267H52.585V47.9741L52.5907 47.9684Z" fill="#0F1736"/>
<path d="M54.9408 46.7002H55.8135C55.7565 46.7345 55.7279 46.803 55.7279 46.9115V47.4655H54.9408V46.7002ZM54.9522 47.9681H55.7222V50.9264H54.9522V47.9681Z" fill="#0F1736"/>
<path d="M56.4977 47.9677H57.2678V48.1447C57.4332 47.9791 57.6385 47.8992 57.8895 47.8992C58.266 47.8992 58.5512 48.0305 58.7394 48.2875C58.9448 48.0305 59.2414 47.8992 59.6292 47.8992C59.943 47.8992 60.2053 47.9963 60.4221 48.1961C60.6331 48.3903 60.7415 48.733 60.7415 49.2241V50.9318H59.9715V49.2241C59.9715 48.9671 59.9315 48.7844 59.8517 48.6816C59.7718 48.5788 59.6692 48.5274 59.5323 48.5274C59.4296 48.5274 59.3383 48.5674 59.2528 48.6473C59.1672 48.7273 59.1045 48.8358 59.0531 48.9843C59.0075 49.1328 58.979 49.3041 58.979 49.4983V50.9318H58.2146V49.2241C58.2146 48.9671 58.1747 48.7844 58.1006 48.6816C58.0264 48.5788 57.9237 48.5274 57.7868 48.5274C57.6328 48.5274 57.5073 48.6131 57.4047 48.7901C57.3077 48.9671 57.2564 49.2013 57.2564 49.4983V50.9318H56.4863V47.9734L56.4977 47.9677Z" fill="#0F1736"/>
<path d="M62.1051 50.8062C61.8883 50.6806 61.7115 50.5035 61.586 50.2694C61.4548 50.0352 61.3921 49.7611 61.3921 49.4413C61.3921 49.1214 61.4491 48.8473 61.5689 48.6131C61.6887 48.379 61.8541 48.1962 62.0595 48.0763C62.2648 47.9507 62.4987 47.8936 62.7553 47.8936C63.109 47.8936 63.4227 48.0021 63.6965 48.2248C63.9703 48.4418 64.1243 48.8359 64.1471 49.3899C64.1471 49.4584 64.1471 49.5669 64.1471 49.704H62.1849C62.2078 49.921 62.2762 50.0923 62.396 50.2123C62.5158 50.3322 62.6641 50.395 62.8466 50.395C63.1546 50.395 63.3657 50.2694 63.4798 50.0238L64.0844 50.3322C63.9703 50.5492 63.8049 50.7091 63.5824 50.8233C63.36 50.9319 63.109 50.989 62.8352 50.989C62.5614 50.989 62.3333 50.9261 62.1165 50.8005L62.1051 50.8062ZM63.3543 49.1329C63.3086 48.7045 63.1204 48.4932 62.7839 48.4932C62.6242 48.4932 62.493 48.5503 62.3903 48.6646C62.2876 48.7788 62.2249 48.933 62.1964 49.1329H63.36H63.3543Z" fill="#0F1736"/>
<path d="M66.5313 46.7744H67.9688C68.4821 46.7744 68.8643 46.8886 69.121 47.1228C69.3776 47.3512 69.5031 47.6882 69.5031 48.1279C69.5031 48.5677 69.3776 48.9046 69.121 49.1331C68.8643 49.3615 68.4821 49.4815 67.9688 49.4815H67.2957V50.9378H66.5256V46.7744H66.5313ZM67.9345 48.859C68.1969 48.859 68.3966 48.7961 68.5334 48.6648C68.6703 48.5334 68.7388 48.3564 68.7388 48.1279C68.7388 47.8995 68.6703 47.7167 68.5334 47.5911C68.3966 47.4597 68.1969 47.3969 67.9345 47.3969H67.3014V48.859H67.9345Z" fill="#0F1736"/>
<path d="M70.1306 47.9684H70.9007V48.3339C70.9976 48.1911 71.1117 48.0883 71.2486 48.0198C71.3855 47.9513 71.5281 47.917 71.6878 47.917C71.8133 47.917 71.916 47.917 71.9958 47.9341L71.8703 48.5795C71.8076 48.5566 71.7163 48.5395 71.5908 48.5395C71.4597 48.5395 71.3399 48.5852 71.2372 48.6766C71.1345 48.7679 71.049 48.8993 70.9919 49.0706C70.9349 49.242 70.9007 49.4418 70.9007 49.676V50.9267H70.1306V47.9741V47.9684Z" fill="#0F1736"/>
<path d="M73.0338 50.8062C72.817 50.6806 72.6402 50.5035 72.5147 50.2694C72.3835 50.0352 72.3208 49.7611 72.3208 49.4413C72.3208 49.1214 72.3835 48.8473 72.5033 48.6131C72.6231 48.379 72.7885 48.1962 72.9939 48.0763C73.1992 47.9507 73.4331 47.8936 73.6898 47.8936C74.0434 47.8936 74.3571 48.0021 74.6309 48.2248C74.9047 48.4418 75.0587 48.8359 75.0758 49.3899C75.0758 49.4584 75.0758 49.5669 75.0758 49.704H73.1137C73.1365 49.921 73.2049 50.0923 73.3247 50.2123C73.4445 50.3322 73.5928 50.395 73.7753 50.395C74.0833 50.395 74.2944 50.2694 74.4085 50.0238L75.0131 50.3322C74.899 50.5492 74.7336 50.7091 74.5111 50.8233C74.2887 50.9376 74.0377 50.989 73.7639 50.989C73.5015 50.989 73.262 50.9261 73.0452 50.8005L73.0338 50.8062ZM74.283 49.1329C74.2373 48.7045 74.0491 48.4932 73.7126 48.4932C73.5529 48.4932 73.4217 48.5503 73.319 48.6646C73.2163 48.7788 73.1536 48.933 73.1194 49.1329H74.283Z" fill="#0F1736"/>
<path d="M75.4639 47.9678H76.2567L76.8328 49.7896L76.9013 50.0923L76.9754 49.7896L77.5515 47.9678H78.333L77.2549 50.9261H76.5362L75.4696 47.9678H75.4639Z" fill="#0F1736"/>
<path d="M79.4278 50.8062C79.2111 50.6806 79.0343 50.5035 78.9088 50.2694C78.7776 50.0352 78.7148 49.7611 78.7148 49.4413C78.7148 49.1214 78.7776 48.8473 78.8917 48.6131C79.0115 48.379 79.1769 48.1962 79.3822 48.0763C79.5876 47.9507 79.8214 47.8936 80.0781 47.8936C80.4317 47.8936 80.7455 48.0021 81.0193 48.2248C81.2931 48.4418 81.4471 48.8359 81.4699 49.3899C81.4699 49.4584 81.4699 49.5669 81.4642 49.704H79.502C79.5248 49.921 79.5933 50.0923 79.713 50.2123C79.8328 50.3322 79.9811 50.395 80.1637 50.395C80.4717 50.395 80.6827 50.2694 80.7968 50.0238L81.4014 50.3322C81.2874 50.5492 81.1219 50.7091 80.8995 50.8233C80.677 50.9376 80.426 50.989 80.1523 50.989C79.8899 50.989 79.6503 50.9261 79.4335 50.8005L79.4278 50.8062ZM80.677 49.1329C80.6314 48.7045 80.4432 48.4932 80.1066 48.4932C79.9469 48.4932 79.8157 48.5503 79.713 48.6646C79.6104 48.7788 79.5476 48.933 79.5191 49.1329H80.6827H80.677Z" fill="#0F1736"/>
<path d="M82.126 47.9677H82.896V48.2133C82.9987 48.1048 83.1128 48.0248 83.2497 47.9734C83.3809 47.922 83.5235 47.8992 83.6661 47.8992C84.014 47.8992 84.2992 48.002 84.5217 48.2133C84.7441 48.4246 84.8582 48.7787 84.8582 49.2698V50.926H84.0882V49.2698C84.0882 49.0014 84.0425 48.8072 83.957 48.693C83.8714 48.5788 83.7459 48.516 83.5748 48.516C83.4493 48.516 83.3352 48.5559 83.2269 48.6416C83.1242 48.7273 83.0443 48.8472 82.9816 49.0071C82.9245 49.1613 82.896 49.3441 82.896 49.544V50.926H82.126V47.9677Z" fill="#0F1736"/>
<path d="M85.8679 49.9784V48.5734H85.366V47.9623H85.8679V47.1514H86.638V47.9623H87.408V48.5734H86.638V49.9841C86.638 50.1383 86.6722 50.2411 86.7406 50.3039C86.8091 50.3667 86.906 50.3953 87.0372 50.3953C87.0943 50.3953 87.1627 50.3838 87.2312 50.3667C87.3053 50.3496 87.3624 50.3267 87.4137 50.2982L87.5335 50.9093C87.4707 50.9321 87.3795 50.955 87.2711 50.9721C87.157 50.9892 87.0601 50.9949 86.9802 50.9949C86.2444 50.9949 85.8736 50.658 85.8736 49.9784H85.8679Z" fill="#0F1736"/>
<path d="M88.024 46.7002H88.8968C88.8397 46.7345 88.8112 46.803 88.8112 46.9115V47.4655H88.024V46.7002ZM88.0354 47.9681H88.8055V50.9264H88.0354V47.9681Z" fill="#0F1736"/>
<path d="M90.2029 50.8062C89.9747 50.6806 89.7922 50.5035 89.661 50.2694C89.5298 50.0352 89.467 49.7611 89.467 49.4413C89.467 49.1214 89.5298 48.8473 89.661 48.6189C89.7922 48.3847 89.969 48.2077 90.2029 48.082C90.431 47.9564 90.6877 47.8936 90.9729 47.8936C91.2581 47.8936 91.5148 47.9564 91.7372 48.0763C91.9654 48.202 92.1422 48.379 92.2734 48.6131C92.4046 48.8473 92.4673 49.1214 92.4673 49.4413C92.4673 49.7611 92.4046 50.0352 92.2734 50.2694C92.1422 50.5035 91.9654 50.6863 91.7372 50.8062C91.5091 50.9319 91.2524 50.9947 90.9729 50.9947C90.6934 50.9947 90.4367 50.9319 90.2029 50.8062ZM90.4424 50.138C90.5793 50.3036 90.7504 50.3836 90.9729 50.3836C91.1954 50.3836 91.3608 50.3036 91.4977 50.138C91.6346 49.9724 91.6973 49.7439 91.6973 49.447C91.6973 49.15 91.6289 48.9215 91.4977 48.7616C91.3608 48.6017 91.1897 48.5218 90.9729 48.5218C90.7561 48.5218 90.5793 48.6017 90.4424 48.7616C90.3055 48.9215 90.2428 49.15 90.2428 49.447C90.2428 49.7439 90.3112 49.9781 90.4424 50.138Z" fill="#0F1736"/>
<path d="M93.1235 47.9677H93.8936V48.2133C93.9963 48.1048 94.1103 48.0248 94.2472 47.9734C94.3784 47.922 94.521 47.8992 94.6636 47.8992C95.0116 47.8992 95.2911 48.002 95.5192 48.2133C95.7417 48.4246 95.8558 48.7787 95.8558 49.2698V50.926H95.0857V49.2698C95.0857 49.0014 95.0401 48.8072 94.9602 48.693C94.8747 48.5788 94.7492 48.516 94.5781 48.516C94.4526 48.516 94.3385 48.5559 94.2301 48.6416C94.1274 48.7273 94.0476 48.8472 93.9905 49.0071C93.9335 49.1613 93.905 49.3441 93.905 49.544V50.926H93.1349V47.9677H93.1235Z" fill="#0F1736"/>
<path d="M99.3122 46.7744H100.168C100.168 46.7744 100.122 46.8315 100.122 46.8715C100.122 46.9058 100.128 46.9457 100.145 46.9857L100.253 47.3398L101.406 50.9378H100.636L100.339 49.9155H99.0499L98.7475 50.9378H97.9718L99.3008 46.7744H99.3122ZM100.162 49.3101L99.8883 48.3678L99.7001 47.6368L99.5119 48.3678L99.2324 49.3101H100.162Z" fill="#0F1736"/>
<path d="M101.628 50.5264L102.136 50.0409C102.221 50.1723 102.341 50.2637 102.484 50.3208C102.626 50.3779 102.763 50.4064 102.894 50.4064C103.054 50.4064 103.18 50.3779 103.265 50.3265C103.351 50.2694 103.396 50.1894 103.396 50.0866C103.396 50.0124 103.368 49.9438 103.311 49.8867C103.254 49.8296 103.174 49.7839 103.06 49.7611L102.461 49.6183C102.221 49.5612 102.039 49.4584 101.913 49.3099C101.788 49.1614 101.725 48.9958 101.725 48.8016C101.725 48.6303 101.771 48.4761 101.862 48.339C101.953 48.202 102.09 48.0934 102.261 48.0135C102.438 47.9335 102.638 47.8936 102.871 47.8936C103.145 47.8936 103.385 47.9335 103.584 48.0192C103.79 48.1049 103.938 48.2362 104.035 48.419L103.408 48.7616C103.316 48.5675 103.145 48.4704 102.9 48.4704C102.775 48.4704 102.672 48.4989 102.592 48.5503C102.518 48.6074 102.478 48.676 102.478 48.7674C102.478 48.8416 102.501 48.9044 102.552 48.9558C102.598 49.0072 102.666 49.0415 102.752 49.0643L103.316 49.2014C103.567 49.2642 103.767 49.3556 103.921 49.4869C104.069 49.6183 104.149 49.8068 104.149 50.0638C104.149 50.3665 104.035 50.5949 103.807 50.7491C103.579 50.9033 103.271 50.9832 102.877 50.9832C102.352 50.9832 101.93 50.8291 101.622 50.5149L101.628 50.5264Z" fill="#0F1736"/>
<path d="M104.423 50.5264L104.931 50.0409C105.016 50.1723 105.13 50.2637 105.279 50.3208C105.421 50.3779 105.558 50.4064 105.689 50.4064C105.849 50.4064 105.974 50.3779 106.06 50.3265C106.146 50.2694 106.191 50.1894 106.191 50.0866C106.191 50.0124 106.163 49.9438 106.106 49.8867C106.049 49.8296 105.969 49.7839 105.86 49.7611L105.261 49.6183C105.022 49.5612 104.839 49.4584 104.708 49.3099C104.583 49.1614 104.52 48.9958 104.52 48.8016C104.52 48.6303 104.566 48.4761 104.657 48.339C104.748 48.202 104.885 48.0934 105.056 48.0135C105.233 47.9335 105.433 47.8936 105.666 47.8936C105.94 47.8936 106.18 47.9335 106.379 48.0192C106.585 48.1049 106.733 48.2362 106.83 48.419L106.203 48.7616C106.111 48.5675 105.94 48.4704 105.695 48.4704C105.569 48.4704 105.467 48.4989 105.387 48.5503C105.313 48.6074 105.273 48.676 105.273 48.7674C105.273 48.8416 105.296 48.9044 105.347 48.9558C105.398 49.0072 105.461 49.0415 105.547 49.0643L106.111 49.2014C106.362 49.2642 106.562 49.3556 106.716 49.4869C106.87 49.6183 106.944 49.8068 106.944 50.0638C106.944 50.3665 106.83 50.5949 106.602 50.7491C106.374 50.9033 106.066 50.9832 105.672 50.9832C105.147 50.9832 104.725 50.8291 104.417 50.5149L104.423 50.5264Z" fill="#0F1736"/>
<path d="M108.091 50.8062C107.863 50.6806 107.68 50.5035 107.549 50.2694C107.418 50.0352 107.355 49.7611 107.355 49.4413C107.355 49.1214 107.418 48.8473 107.549 48.6189C107.68 48.3847 107.857 48.2077 108.091 48.082C108.319 47.9564 108.576 47.8936 108.861 47.8936C109.146 47.8936 109.403 47.9564 109.625 48.0763C109.853 48.202 110.03 48.379 110.161 48.6131C110.293 48.8473 110.355 49.1214 110.355 49.4413C110.355 49.7611 110.293 50.0352 110.161 50.2694C110.03 50.5035 109.853 50.6863 109.625 50.8062C109.397 50.9319 109.14 50.9947 108.861 50.9947C108.581 50.9947 108.319 50.9319 108.091 50.8062ZM108.33 50.138C108.467 50.3036 108.638 50.3836 108.861 50.3836C109.083 50.3836 109.249 50.3036 109.386 50.138C109.523 49.9724 109.585 49.7439 109.585 49.447C109.585 49.15 109.517 48.9215 109.386 48.7616C109.249 48.6017 109.078 48.5218 108.861 48.5218C108.644 48.5218 108.467 48.6017 108.33 48.7616C108.193 48.9215 108.131 49.15 108.131 49.447C108.131 49.7439 108.199 49.9781 108.33 50.138Z" fill="#0F1736"/>
<path d="M111.639 50.8062C111.416 50.6806 111.234 50.5035 111.102 50.2694C110.966 50.0352 110.903 49.7611 110.903 49.4413C110.903 49.1214 110.966 48.8473 111.097 48.6131C111.228 48.379 111.405 48.1962 111.627 48.0763C111.85 47.9507 112.089 47.8936 112.352 47.8936C112.597 47.8936 112.814 47.9392 113.008 48.0306C113.202 48.122 113.356 48.2591 113.464 48.4361L112.916 48.8302C112.797 48.6189 112.614 48.5161 112.369 48.5161C112.169 48.5161 112.004 48.6017 111.873 48.7731C111.747 48.9444 111.679 49.1728 111.679 49.447C111.679 49.7211 111.747 49.9553 111.878 50.1266C112.009 50.2979 112.186 50.3779 112.397 50.3779C112.677 50.3779 112.882 50.2408 113.008 49.9667L113.635 50.2808C113.544 50.5092 113.378 50.6863 113.145 50.8119C112.911 50.9376 112.654 51.0004 112.369 51.0004C112.106 51.0004 111.867 50.9376 111.639 50.8119V50.8062Z" fill="#0F1736"/>
<path d="M114.068 46.7002H114.941C114.884 46.7345 114.856 46.803 114.856 46.9115V47.4655H114.068V46.7002ZM114.08 47.9681H114.85V50.9264H114.08V47.9681Z" fill="#0F1736"/>
<path d="M115.854 50.6006C115.626 50.3379 115.512 49.9553 115.512 49.4413C115.512 49.1271 115.563 48.853 115.671 48.6246C115.78 48.3904 115.928 48.2134 116.128 48.082C116.322 47.9564 116.55 47.8936 116.807 47.8936C117.12 47.8936 117.383 47.9964 117.582 48.2077V47.9678H118.352V50.9204H117.582V50.6349C117.377 50.869 117.109 50.989 116.784 50.989C116.39 50.989 116.076 50.8576 115.848 50.5949L115.854 50.6006ZM116.447 50.1437C116.556 50.2979 116.715 50.3779 116.921 50.3779C117.069 50.3779 117.206 50.3208 117.331 50.2065C117.457 50.0923 117.537 49.9324 117.582 49.7268V49.2299C117.548 49.0129 117.468 48.8416 117.348 48.7102C117.229 48.5789 117.092 48.5103 116.938 48.5103C116.732 48.5103 116.573 48.5903 116.459 48.7502C116.345 48.9101 116.282 49.1386 116.282 49.4413C116.282 49.7439 116.339 49.9895 116.447 50.1437Z" fill="#0F1736"/>
<path d="M119.373 49.9784V48.5734H118.871V47.9623H119.373V47.1514H120.143V47.9623H120.913V48.5734H120.143V49.9841C120.143 50.1383 120.178 50.2411 120.246 50.3039C120.314 50.3667 120.411 50.3953 120.543 50.3953C120.6 50.3953 120.668 50.3838 120.737 50.3667C120.811 50.3496 120.868 50.3267 120.919 50.2982L121.039 50.9093C120.97 50.9321 120.885 50.955 120.776 50.9721C120.668 50.9892 120.565 50.9949 120.486 50.9949C119.75 50.9949 119.379 50.658 119.379 49.9784H119.373Z" fill="#0F1736"/>
<path d="M121.524 46.7002H122.396C122.339 46.7345 122.311 46.803 122.311 46.9115V47.4655H121.524V46.7002ZM121.535 47.9681H122.305V50.9264H121.535V47.9681Z" fill="#0F1736"/>
<path d="M123.703 50.8062C123.474 50.6806 123.292 50.5035 123.161 50.2694C123.03 50.0352 122.967 49.7611 122.967 49.4413C122.967 49.1214 123.03 48.8473 123.161 48.6189C123.292 48.3847 123.474 48.2077 123.703 48.082C123.931 47.9564 124.187 47.8936 124.473 47.8936C124.758 47.8936 125.009 47.9564 125.237 48.0763C125.465 48.202 125.642 48.379 125.767 48.6131C125.899 48.8473 125.961 49.1214 125.961 49.4413C125.961 49.7611 125.899 50.0352 125.767 50.2694C125.636 50.5035 125.459 50.6863 125.237 50.8062C125.009 50.9319 124.752 50.9947 124.473 50.9947C124.193 50.9947 123.931 50.9319 123.703 50.8062ZM123.942 50.138C124.079 50.3036 124.25 50.3836 124.473 50.3836C124.695 50.3836 124.861 50.3036 124.997 50.138C125.134 49.9724 125.197 49.7439 125.197 49.447C125.197 49.15 125.129 48.9215 124.997 48.7616C124.861 48.6017 124.689 48.5218 124.473 48.5218C124.256 48.5218 124.079 48.6017 123.942 48.7616C123.811 48.9215 123.743 49.15 123.743 49.447C123.743 49.7439 123.811 49.9781 123.942 50.138Z" fill="#0F1736"/>
<path d="M126.623 47.9677H127.393V48.2133C127.496 48.1048 127.61 48.0248 127.747 47.9734C127.878 47.922 128.021 47.8992 128.163 47.8992C128.511 47.8992 128.796 48.002 129.019 48.2133C129.241 48.4246 129.355 48.7787 129.355 49.2698V50.926H128.585V49.2698C128.585 49.0014 128.54 48.8072 128.46 48.693C128.374 48.5788 128.243 48.516 128.078 48.516C127.952 48.516 127.832 48.5559 127.73 48.6416C127.627 48.7273 127.547 48.8472 127.49 49.0071C127.433 49.1613 127.404 49.3441 127.404 49.544V50.926H126.634V47.9677H126.623Z" fill="#0F1736"/>
<path d="M0 31.2191H2.82919V30.037H5.08797C4.93397 30.1226 4.85981 30.3111 4.85981 30.5966V31.2133H7.76315C7.60914 31.299 7.53499 31.4874 7.53499 31.773V32.8237H0V31.2133V31.2191ZM1.01531 34.6396C1.28911 34.2227 1.67698 33.8973 2.17323 33.6631C2.66947 33.429 3.23988 33.3091 3.88443 33.3091C4.52898 33.3091 5.11079 33.429 5.60133 33.6631C6.09758 33.8973 6.47405 34.2227 6.74214 34.6396C7.01022 35.0565 7.14142 35.5362 7.14142 36.0729C7.14142 36.6097 7.00452 37.0951 6.73073 37.5177C6.45693 37.946 6.07477 38.2772 5.58422 38.5113C5.08797 38.7454 4.52328 38.8653 3.87872 38.8653C3.23417 38.8653 2.66377 38.7511 2.16752 38.5113C1.67127 38.2772 1.2834 37.946 1.00961 37.5177C0.735817 37.0894 0.598921 36.6097 0.598921 36.0729C0.598921 35.5362 0.735817 35.0565 1.00961 34.6396H1.01531ZM1.81387 39.7219H3.8388V41.7663C3.8388 41.9204 3.91295 41.9947 4.06696 41.9947H10.7235C10.5695 42.0803 10.4897 42.2688 10.4897 42.5543V43.605H3.34825C2.32153 43.605 1.80817 43.1082 1.80817 42.1089V39.7219H1.81387ZM2.87482 36.9923C3.15432 37.2207 3.49085 37.3349 3.87872 37.3349C4.2666 37.3349 4.62024 37.2207 4.89404 36.9923C5.16783 36.7639 5.30473 36.4555 5.30473 36.0729C5.30473 35.6903 5.16783 35.3991 4.89404 35.165C4.62024 34.9366 4.28371 34.8223 3.87872 34.8223C3.47374 34.8223 3.14861 34.9366 2.87482 35.165C2.59532 35.3934 2.45843 35.696 2.45843 36.0729C2.45843 36.4498 2.59532 36.7639 2.87482 36.9923ZM8.33355 30.3568H10.3585V34.1542H12.2123C12.0583 34.2399 11.9841 34.4283 11.9841 34.7138V35.8217H10.3585V40.2244H8.33355V30.3511V30.3568Z" fill="#0F1736"/>
<path d="M14.5167 39.1334H18.1102V36.9463H13.0679V35.3074H21.3444C21.4756 34.348 21.5668 33.3373 21.6011 32.2694H14.4711V30.6591H23.9397C23.7743 30.7561 23.6944 30.9446 23.6944 31.2187V31.5042C23.6944 32.6463 23.5861 33.914 23.3636 35.3017H25.2174C25.0634 35.3873 24.9892 35.5758 24.9892 35.8613V36.9406H20.1294V39.1277H23.8085C23.6545 39.2133 23.5804 39.4018 23.5804 39.6873V43.8331H21.5554V40.738H14.511V39.1277L14.5167 39.1334Z" fill="#0F1736"/>
<path d="M26.2898 35.4787H34.4693C34.6233 34.4051 34.7146 33.3373 34.7431 32.2694H27.6131V30.6591H37.0875C36.9221 30.7561 36.8422 30.9446 36.8422 31.2187V31.5042C36.8422 32.8005 36.7281 34.1253 36.5 35.473H38.4564C38.3024 35.5586 38.2283 35.7471 38.2283 36.0326V37.1119H26.2955V35.473L26.2898 35.4787ZM27.7842 38.5566H37.0989C36.9449 38.6423 36.8707 38.8307 36.8707 39.1162V42.2684C36.8707 43.2677 36.3574 43.7645 35.3306 43.7645H29.3243C28.2976 43.7645 27.7842 43.2677 27.7842 42.2684V38.5566ZM34.8401 41.9258V40.1727H29.8092V41.9258C29.8092 42.08 29.8833 42.1542 30.043 42.1542H34.6119C34.7659 42.1542 34.8401 42.08 34.8401 41.9258Z" fill="#0F1736"/>
<path d="M39.5117 35.9697H51.6727C51.5187 36.0554 51.4445 36.2438 51.4445 36.5294V37.5515H49.0317V39.0191H47.7825C48.2503 39.2704 48.6096 39.5902 48.8549 39.9899C49.1002 40.3896 49.2199 40.8122 49.2199 41.2633C49.2199 41.7544 49.0773 42.2055 48.8035 42.6167C48.524 43.0278 48.1134 43.3648 47.5658 43.616C47.0182 43.8673 46.3565 43.9986 45.5808 43.9986C44.805 43.9986 44.1434 43.873 43.5901 43.616C43.0368 43.359 42.6261 43.0278 42.3466 42.611C42.0671 42.1941 41.9302 41.743 41.9302 41.2633C41.9302 40.8122 42.0557 40.3896 42.3067 39.9899C42.5577 39.5902 42.9113 39.2704 43.3676 39.0191H42.1356V37.5515H39.5174V35.9697H39.5117ZM42.147 31.4356C42.4664 31.053 42.9227 30.7504 43.5216 30.5334C44.1149 30.3164 44.8164 30.2079 45.6207 30.2079C46.425 30.2079 47.1266 30.3164 47.7198 30.5334C48.313 30.7504 48.7693 31.0473 49.083 31.4356C49.3968 31.8182 49.5565 32.2579 49.5565 32.7605C49.5565 33.263 49.3968 33.7027 49.083 34.0853C48.7636 34.4679 48.313 34.7705 47.7198 34.9875C47.1266 35.2045 46.425 35.313 45.6207 35.313C44.8164 35.313 44.1149 35.2045 43.5216 34.9875C42.9284 34.7705 42.4721 34.4736 42.147 34.0853C41.8275 33.7027 41.6678 33.263 41.6678 32.7605C41.6678 32.2579 41.8275 31.8182 42.147 31.4356ZM44.246 33.5085C44.6168 33.6741 45.0731 33.7541 45.6207 33.7541C46.1683 33.7541 46.6246 33.6741 46.984 33.5085C47.349 33.3429 47.5316 33.0974 47.5316 32.7605C47.5316 32.4235 47.349 32.178 46.984 32.0124C46.6189 31.8468 46.1626 31.7668 45.6207 31.7668C45.0788 31.7668 44.6168 31.8468 44.246 32.0124C43.8753 32.178 43.6928 32.4235 43.6928 32.7605C43.6928 33.0974 43.8753 33.3429 44.246 33.5085ZM44.4058 42.1142C44.7081 42.3369 45.0959 42.4454 45.5751 42.4454C46.0542 42.4454 46.4307 42.3369 46.733 42.1142C47.0353 41.8915 47.1836 41.6117 47.1836 41.2633C47.1836 40.915 47.0353 40.6352 46.733 40.4125C46.4307 40.1897 46.0485 40.0813 45.5751 40.0813C45.1016 40.0813 44.7081 40.1897 44.4058 40.4125C44.1034 40.6352 43.9551 40.915 43.9551 41.2633C43.9551 41.6117 44.1034 41.8915 44.4058 42.1142ZM45.5751 38.528C46.1113 38.528 46.6075 38.5965 47.0524 38.7279V37.5458H44.092V38.7279C44.5427 38.5908 45.0332 38.528 45.5694 38.528H45.5751Z" fill="#0F1736"/>
<path d="M53.321 30.5448H55.346V32.1266H57.8044V30.5448H60.0632C59.9092 30.6304 59.835 30.8189 59.835 31.1044V32.7319H61.7915V30.3563H63.8164V37.363H61.7915V34.3422H59.835V35.4672C59.835 36.4665 59.3217 36.9633 58.2949 36.9633H54.8611C53.8344 36.9633 53.321 36.4665 53.321 35.4672V30.5448ZM55.249 42.2683V38.1796H63.9419C63.7879 38.2653 63.7137 38.4537 63.7137 38.7393V42.2626C63.7137 43.2619 63.2004 43.7587 62.1737 43.7587H56.7834C55.7567 43.7587 55.249 43.2619 55.249 42.2626V42.2683ZM55.5798 35.2902H57.5762C57.7302 35.2902 57.8044 35.2159 57.8044 35.0617V33.754H55.346V35.0617C55.346 35.2159 55.4201 35.2902 55.5741 35.2902H55.5798ZM57.5078 42.1541H61.4607C61.6147 42.1541 61.6888 42.0799 61.6888 41.9257V39.7957H57.2739V41.9257C57.2739 42.0799 57.3481 42.1541 57.5021 42.1541H57.5078Z" fill="#0F1736"/>
<path d="M68.1571 34.8447C68.5335 34.5307 68.7674 34.2737 68.8701 34.0738C68.9727 33.8797 69.0241 33.5941 69.0241 33.2344V32.6462H66.4801V30.9788H73.6785C73.5245 31.0644 73.4504 31.2529 73.4504 31.5384V32.6462H71.049V33.2344C71.049 33.5884 71.1003 33.8682 71.2087 34.0738C71.3114 34.2794 71.551 34.5364 71.916 34.8447L74.112 36.7006L72.8458 37.8199L70.3588 35.7356L70.0451 35.4329L69.7143 35.7356L67.2273 37.8199L65.9667 36.7006L68.1628 34.8447H68.1571ZM65.9553 39.8242H69.0583V37.2317H71.0832V39.8071C71.7164 39.79 72.2868 39.7386 72.7944 39.6644C73.3021 39.5901 73.7869 39.4531 74.2489 39.2589L74.6539 40.8578C74.0208 41.1091 73.3762 41.2747 72.7203 41.3604C72.0643 41.446 71.26 41.4917 70.3132 41.4917H65.961V39.8242H65.9553ZM75.0817 30.3563H77.1067V43.536H75.0817V30.3563Z" fill="#0F1736"/>
<path d="M79.9873 31.9838C80.4208 31.1615 81.0882 30.7446 82.0008 30.7446C83.1017 30.7446 83.8717 31.3785 84.2995 32.6462H85.6799V30.3563H87.6763V43.4218H85.6799V38.1968H84.3281C83.9174 39.5216 83.1416 40.184 82.0008 40.184C81.0882 40.184 80.4208 39.7729 79.9873 38.9448C79.5538 38.1225 79.3428 36.9576 79.3428 35.4615C79.3428 33.9653 79.5595 32.8061 79.9873 31.9781V31.9838ZM81.4361 37.7514C81.5502 38.271 81.7385 38.528 81.9951 38.528C82.2518 38.528 82.44 38.271 82.5541 37.7514C82.6682 37.2317 82.7252 36.4722 82.7252 35.4615C82.7252 34.4507 82.6682 33.6912 82.5541 33.1716C82.44 32.6519 82.2518 32.395 81.9951 32.395C81.7385 32.395 81.5502 32.6519 81.4361 33.1716C81.3221 33.6912 81.265 34.4507 81.265 35.4615C81.265 36.4722 81.3221 37.2317 81.4361 37.7514ZM84.6589 35.4672C84.6589 35.8498 84.6418 36.2267 84.6133 36.5864H85.6742V34.2566H84.5962C84.6361 34.5935 84.6532 34.9932 84.6532 35.4672H84.6589ZM88.5947 30.3563H90.5911V43.536H88.5947V30.3563Z" fill="#0F1736"/>
<path d="M92.8499 30.5448H94.8748V32.058H97.3332V30.5448H99.592C99.438 30.6304 99.3638 30.8189 99.3638 31.1044V35.45C99.3638 36.4494 98.8505 36.9462 97.8237 36.9462H94.3899C93.3632 36.9462 92.8499 36.4494 92.8499 35.45V30.5448ZM95.1029 35.2787H97.0993C97.2533 35.2787 97.3275 35.2045 97.3275 35.0503V33.6855H94.8691V35.0503C94.8691 35.2045 94.9432 35.2787 95.0972 35.2787H95.1029ZM97.0822 43.5703C96.5289 43.2962 96.1125 42.9307 95.8273 42.4625C95.5421 41.9999 95.3938 41.4803 95.3938 40.9149C95.3938 40.3496 95.5364 39.8357 95.8273 39.3731C96.1125 38.9106 96.5346 38.5451 97.0822 38.271C97.6298 37.9969 98.2858 37.8599 99.0444 37.8599C99.803 37.8599 100.453 37.9969 101.001 38.271C101.548 38.5451 101.965 38.9106 102.25 39.3731C102.535 39.8357 102.684 40.3439 102.684 40.9149C102.684 41.486 102.541 41.9942 102.25 42.4625C101.965 42.9307 101.543 43.2962 100.995 43.5703C100.442 43.8444 99.7973 43.9815 99.0501 43.9815C98.3029 43.9815 97.6412 43.8444 97.0879 43.5703H97.0822ZM97.8865 41.9942C98.2002 42.274 98.5824 42.4111 99.0444 42.4111C99.5064 42.4111 99.8886 42.274 100.197 41.9942C100.505 41.7144 100.659 41.3547 100.659 40.9149C100.659 40.4752 100.505 40.1155 100.197 39.8414C99.8886 39.5673 99.5064 39.4302 99.0444 39.4302C98.5824 39.4302 98.2002 39.5673 97.8865 39.8414C97.5728 40.1155 97.4188 40.4695 97.4188 40.9149C97.4188 41.3604 97.5728 41.7144 97.8865 41.9942ZM100.898 30.3563H102.923V32.9146H104.777C104.623 33.0003 104.549 33.1887 104.549 33.4742V34.5821H102.923V37.5629H100.898V30.3563Z" fill="#0F1736"/>
<path d="M105.929 31.1619H108.758V30.037H111.017C110.863 30.1226 110.789 30.3111 110.789 30.5966V31.1562H113.692C113.538 31.2419 113.464 31.4303 113.464 31.7159V32.7095H105.935V31.1562L105.929 31.1619ZM106.927 34.3598C107.19 33.9829 107.566 33.6917 108.057 33.4804C108.547 33.2691 109.112 33.1663 109.751 33.1663C110.39 33.1663 110.954 33.2748 111.439 33.4804C111.924 33.6917 112.295 33.9829 112.563 34.3598C112.825 34.7367 112.956 35.1536 112.956 35.6275C112.956 36.1015 112.825 36.5355 112.563 36.9067C112.3 37.2835 111.924 37.5748 111.433 37.7918C110.943 38.0088 110.384 38.1173 109.751 38.1173C109.118 38.1173 108.547 38.0145 108.062 37.8032C107.578 37.5919 107.201 37.295 106.933 36.9181C106.665 36.5412 106.528 36.1129 106.528 35.6275C106.528 35.1421 106.659 34.7367 106.922 34.3598H106.927ZM108.142 42.3145V38.6426H110.167V39.6191H114.582V38.6426H116.841C116.687 38.7283 116.613 38.9167 116.613 39.2023V42.3087C116.613 43.3081 116.099 43.8049 115.073 43.8049H109.682C108.656 43.8049 108.142 43.3081 108.142 42.3087V42.3145ZM108.753 36.3356C108.998 36.5241 109.329 36.6154 109.751 36.6154C110.173 36.6154 110.515 36.5241 110.755 36.3356C110.994 36.1472 111.114 35.913 111.114 35.6218C111.114 35.3306 110.994 35.1079 110.755 34.9251C110.515 34.7367 110.179 34.6453 109.751 34.6453C109.323 34.6453 108.998 34.7367 108.753 34.9251C108.507 35.1136 108.388 35.342 108.388 35.6218C108.388 35.9016 108.507 36.1472 108.753 36.3356ZM110.395 42.2117H114.348C114.502 42.2117 114.576 42.1317 114.576 41.9832V41.1895H110.161V41.9832C110.161 42.1374 110.236 42.2117 110.39 42.2117H110.395ZM113.185 35.736H114.679V35.0907H113.185V33.5089H114.679V30.3568H116.704V37.9517H114.679V37.3178H113.185V35.736Z" fill="#0F1736"/>
<path d="M118.849 40.0129H122.037V38.631C121.358 38.4654 120.811 38.1627 120.406 37.7116C120.001 37.2605 119.796 36.7294 119.796 36.1127C119.796 35.6158 119.932 35.1704 120.206 34.7764C120.48 34.3824 120.868 34.074 121.364 33.8513C121.86 33.6286 122.431 33.5144 123.075 33.5144C123.72 33.5144 124.285 33.6286 124.781 33.8513C125.271 34.0797 125.659 34.3881 125.927 34.7764C126.201 35.1704 126.338 35.6158 126.338 36.1127C126.338 36.7294 126.133 37.2605 125.722 37.7173C125.311 38.1741 124.758 38.4825 124.068 38.6424V40.0072C124.655 39.9901 125.174 39.9272 125.625 39.8302C126.081 39.7274 126.561 39.5446 127.068 39.2762L127.627 40.8466C127.045 41.1835 126.412 41.4062 125.739 41.5147C125.066 41.6232 124.228 41.6803 123.229 41.6803H118.843V40.0129H118.849ZM119.134 31.3616H122.02V30.1395H124.279C124.125 30.2252 124.051 30.4136 124.051 30.6992V31.3616H127.011C126.857 31.4472 126.783 31.6357 126.783 31.9212V32.9719H119.134V31.3616ZM122.066 36.9121C122.345 37.1177 122.682 37.2205 123.07 37.2205C123.458 37.2205 123.8 37.1177 124.074 36.9121C124.353 36.7065 124.49 36.4382 124.49 36.1127C124.49 35.7872 124.353 35.5359 124.074 35.3303C123.794 35.1247 123.463 35.022 123.07 35.022C122.676 35.022 122.34 35.1248 122.066 35.336C121.786 35.5473 121.649 35.8043 121.649 36.1127C121.649 36.4382 121.786 36.7065 122.066 36.9121ZM127.975 30.3565H130V43.5362H127.975V30.3565Z" fill="#0F1736"/>
</svg>
