<svg width="130" height="130" viewBox="0 0 130 130" fill="none" xmlns="http://www.w3.org/2000/svg">
<circle cx="65" cy="65" r="65" fill="#009843" fill-opacity="0.1"/>
<path d="M54.4045 42.8008H73.8249L99.9579 87.7948H79.5039" fill="white"/>
<path d="M99.9559 88.7068H79.5019C79.0033 88.7068 78.5898 88.2933 78.5898 87.7947C78.5898 87.2961 79.0033 86.8827 79.5019 86.8827H98.375L73.3 43.7128H54.4025C53.9039 43.7128 53.4905 43.2993 53.4905 42.8007C53.4905 42.3021 53.9039 41.8887 54.4025 41.8887H73.8229C74.1512 41.8887 74.4431 42.0589 74.6133 42.3386L100.746 87.3326C100.904 87.6123 100.917 87.965 100.746 88.2447C100.588 88.5243 100.284 88.7068 99.9559 88.7068Z" fill="#333333"/>
<path d="M54.4023 42.8008L66.575 65.2978L78.7599 87.7948H54.4023H30.0569L42.2296 65.2978L54.4023 42.8008Z" fill="white"/>
<path d="M78.781 88.7068C78.781 88.7068 78.7689 88.7068 78.7567 88.7068H30.0537C29.7376 88.7068 29.4335 88.5365 29.2755 88.2568C29.1174 87.9771 29.1052 87.6366 29.2633 87.3569L53.5965 42.3629C53.7546 42.0711 54.0586 41.8887 54.3991 41.8887C54.7396 41.8887 55.0436 42.0711 55.2017 42.3629L79.462 87.1988C79.5958 87.3569 79.6809 87.5637 79.6809 87.7947C79.6809 88.2933 79.2796 88.7068 78.7689 88.7068H78.781ZM31.5738 86.8827H77.2123L54.3991 44.7221L31.5738 86.8827Z" fill="#333333"/>
<path d="M54.633 64.7871L60.8106 76.2059L67.0003 87.6368H54.633H42.2657L48.4555 76.2059L54.633 64.7871Z" fill="#009843"/>
<path d="M67.0255 88.547C67.0255 88.547 67.0133 88.547 67.0012 88.547H42.2666C41.9504 88.547 41.6464 88.3767 41.4883 88.097C41.3303 87.8173 41.3181 87.4768 41.4762 87.1971L53.8435 64.3597C54.1596 63.7759 55.1325 63.7759 55.4487 64.3597L67.7308 87.0391C67.8646 87.1972 67.9497 87.4039 67.9497 87.6349C67.9497 88.1335 67.5484 88.547 67.0376 88.547H67.0255ZM43.7988 86.7229H65.4689L54.6339 66.7066L43.7988 86.7229Z" fill="#333333"/>
<path d="M79.2092 88.657C78.7106 88.657 78.2971 88.2436 78.2971 87.745V81.2148C78.2971 80.7162 78.7106 80.3027 79.2092 80.3027C79.7077 80.3027 80.1212 80.7162 80.1212 81.2148V87.745C80.1212 88.2436 79.7077 88.657 79.2092 88.657Z" fill="#333333"/>
<path d="M100.199 88.657C99.7008 88.657 99.2874 88.2436 99.2874 87.745V81.2148C99.2874 80.7162 99.7008 80.3027 100.199 80.3027C100.698 80.3027 101.111 80.7162 101.111 81.2148V87.745C101.111 88.2436 100.698 88.657 100.199 88.657Z" fill="#333333"/>
<path d="M29.801 88.657C29.3024 88.657 28.8889 88.2436 28.8889 87.745V81.2148C28.8889 80.7162 29.3024 80.3027 29.801 80.3027C30.2995 80.3027 30.713 80.7162 30.713 81.2148V87.745C30.713 88.2436 30.2995 88.657 29.801 88.657Z" fill="#333333"/>
<path d="M54.7775 88.1234C54.2789 88.1234 53.8655 87.71 53.8655 87.2114V65.6386C53.8655 65.14 54.2789 64.7266 54.7775 64.7266C55.2761 64.7266 55.6896 65.14 55.6896 65.6386V87.2114C55.6896 87.71 55.2761 88.1234 54.7775 88.1234Z" fill="#333333"/>
<path d="M83.5515 63.4004V67.3769H73.2151V64.0814" fill="white"/>
<path d="M83.5495 68.2889H73.2131C72.7145 68.2889 72.301 67.8754 72.301 67.3768V64.0813C72.301 63.5827 72.7145 63.1693 73.2131 63.1693C73.7116 63.1693 74.1251 63.5827 74.1251 64.0813V66.4648H82.6375V63.4003C82.6375 62.9017 83.0509 62.4883 83.5495 62.4883C84.0481 62.4883 84.4616 62.9017 84.4616 63.4003V67.3768C84.4616 67.8754 84.0481 68.2889 83.5495 68.2889Z" fill="#333333"/>
<path d="M71.4045 59.9961H81.4248L83.5529 63.401H73.2165L71.4045 59.9961Z" fill="#009843"/>
<path d="M83.5763 64.315C83.5763 64.315 83.5641 64.315 83.5519 64.315H73.2155C72.875 64.315 72.571 64.1326 72.4129 63.8285L70.601 60.4236C70.455 60.1439 70.455 59.8034 70.6253 59.5237C70.7955 59.244 71.0874 59.0859 71.4036 59.0859H81.4238C81.74 59.0859 82.0319 59.244 82.2021 59.5116L84.2329 62.7706C84.391 62.9287 84.4883 63.1597 84.4883 63.4029C84.4883 63.9015 84.087 64.315 83.5763 64.315ZM73.7627 62.4909H81.8981L80.9009 60.91H72.9115L73.7505 62.4909H73.7627Z" fill="#333333"/>
</svg>
