<svg width="75" height="75" viewBox="0 0 75 75" fill="none" xmlns="http://www.w3.org/2000/svg">
<mask id="mask0_140_6482" style="mask-type:alpha" maskUnits="userSpaceOnUse" x="0" y="0" width="75" height="75">
<circle cx="37.5" cy="37.5" r="37.5" fill="white"/>
</mask>
<g mask="url(#mask0_140_6482)">
<path d="M50.7505 37.9505C46.8157 43.2385 41.7221 47.5529 35.8619 50.5625C31.9844 52.3626 30.3051 50.8146 29.6547 50.0446L28.2449 48.3762C27.7672 47.8106 27.8374 46.9639 28.4023 46.4856L31.702 43.6902C32.0264 43.4155 32.5662 42.9582 34.896 44.2484C35.4576 44.5595 36.1234 44.6088 36.6802 44.288C39.6385 42.5825 42.2652 40.3574 44.4351 37.7187C44.8435 37.2226 44.9048 36.5569 44.6918 35.9501C43.8065 33.4366 44.3464 32.9793 44.6708 32.7046L47.9705 29.9091C48.5353 29.4308 49.381 29.5011 49.8588 30.0667L51.2685 31.7351C51.919 32.505 52.7332 34.785 50.7505 37.9497V37.9505Z" fill="#00295D"/>
<path d="M41.9961 31.4575C42.364 31.5003 42.6287 31.8356 42.5851 32.204C42.5424 32.5725 42.2075 32.8366 41.8395 32.7938C36.7516 32.1984 32.1276 35.8583 31.5329 40.9532C31.4901 41.3216 31.1552 41.5866 30.7881 41.543C30.4201 41.5002 30.1554 41.1649 30.199 40.7965C30.8801 34.9656 36.1714 30.7756 41.9961 31.4575Z" fill="#00295D"/>
<path d="M42.6173 28.2684C42.9853 28.3112 43.2492 28.6465 43.2064 29.0141C43.1636 29.3825 42.8287 29.6475 42.4616 29.6039C35.4635 28.7846 29.1054 33.8189 28.2872 40.8253C28.2444 41.1938 27.9095 41.458 27.5415 41.4151C27.1735 41.3723 26.9097 41.037 26.9524 40.6694C27.8562 32.9261 34.8833 27.3635 42.6173 28.2684Z" fill="#00295D"/>
<path d="M42.9886 25.0967C34.0538 24.0513 25.0488 31.6297 24.0046 40.5752C23.9651 40.917 24.2088 41.2264 24.5509 41.2668C24.8923 41.3064 25.2013 41.0616 25.2417 40.7199C26.206 32.4571 34.592 25.369 42.8441 26.3345C43.1855 26.3741 43.4945 26.1293 43.5349 25.7875C43.5744 25.4458 43.3299 25.1363 42.9886 25.0959V25.0967Z" fill="#00295D"/>
</g>
</svg>
