<svg width="100" height="100" viewBox="0 0 100 100" fill="none" xmlns="http://www.w3.org/2000/svg">
<mask id="mask0_140_1870" style="mask-type:alpha" maskUnits="userSpaceOnUse" x="0" y="0" width="100" height="100">
<circle cx="50" cy="50" r="50" fill="white"/>
</mask>
<g mask="url(#mask0_140_1870)">
<path d="M52.3656 69.9967L50.1166 64.3265C49.6635 64.3265 49.2169 64.3134 48.7704 64.274L45.6809 69.826L37.5318 65.8138L39.9483 60.2126C39.6265 59.8974 39.3212 59.5691 39.0323 59.2243L32.9221 60.9645L30 52.3656L35.6702 50.1133C35.6669 49.6635 35.6833 49.2137 35.7227 48.7671L30.1707 45.6776L34.1829 37.5285L39.7841 39.945C40.0993 39.6232 40.4276 39.3179 40.7724 39.029L39.0323 32.9188L47.6344 30L49.8867 35.6702C50.3365 35.6702 50.7863 35.6833 51.2329 35.7227L54.3191 30.1707L62.4682 34.1829L60.0517 39.7841C60.3702 40.0993 60.6788 40.4276 60.9677 40.7724L67.0779 39.0323L70 47.6311L64.3298 49.8834C64.3331 50.3333 64.3167 50.7831 64.2773 51.2296L69.826 54.3191L65.8138 62.4682L60.2126 60.0517C59.8974 60.3702 59.5691 60.6788 59.2243 60.9677L60.9645 67.0779L52.3656 70V69.9967ZM51.64 61.9462L53.692 67.1173L58.154 65.6004L56.5879 60.0977L57.2215 59.6249C57.8913 59.1225 58.5086 58.548 59.0569 57.9209L59.6085 57.2872L64.7205 59.4903L66.8021 55.2647L61.8017 52.4805L61.9133 51.6958C62.0315 50.8684 62.0644 50.0279 62.0053 49.1907L61.9494 48.3534L67.1206 46.3014L65.6037 41.8394L60.101 43.4088L59.6282 42.7785C59.1258 42.1087 58.5513 41.4881 57.9209 40.9431L57.2872 40.3915L59.4936 35.2828L55.268 33.2012L52.4838 38.2016L51.7024 38.09C50.8783 37.9718 50.0312 37.9389 49.1972 37.998L48.36 38.0538L46.308 32.8827L41.846 34.3996L43.4154 39.9056L42.7817 40.3784C42.1152 40.8775 41.4947 41.452 40.9464 42.0824L40.3948 42.7128L35.2861 40.5097L33.2045 44.7353L38.2049 47.5195L38.0932 48.3009C37.975 49.125 37.9422 49.9688 38.0013 50.806L38.0571 51.6433L32.886 53.6953L34.4029 58.1573L39.9056 56.5879L40.3784 57.2215C40.8807 57.8913 41.452 58.5086 42.0824 59.0602L42.7128 59.6118L40.5097 64.7205L44.7353 66.8021L47.5195 61.8017L48.3009 61.9133C49.125 62.0315 49.9721 62.0644 50.806 62.0053L51.6433 61.9494L51.64 61.9462Z" fill="#00295D"/>
<path d="M49.9981 59.858C45.7759 59.858 42.0264 57.1722 40.6671 53.1732C39.82 50.6812 39.994 48.0054 41.1563 45.6447C42.3186 43.284 44.3345 41.5144 46.8265 40.6673C47.8542 40.316 48.9212 40.1387 50.0014 40.1387C54.2237 40.1387 57.9732 42.8244 59.3325 46.8267C61.0824 51.9716 58.3179 57.5827 53.1731 59.3326C52.1454 59.6839 51.0751 59.8612 49.9981 59.8612V59.858ZM49.9981 42.437C49.174 42.437 48.3532 42.5716 47.5652 42.8408C45.6544 43.4909 44.108 44.8469 43.2182 46.6592C42.3252 48.4716 42.1938 50.5204 42.8439 52.4312C43.888 55.4978 46.7608 57.5597 49.9981 57.5597C50.8222 57.5597 51.6431 57.4251 52.431 57.1558C56.3775 55.813 58.4952 51.5119 57.1557 47.5654C56.1116 44.4988 53.2354 42.437 50.0014 42.437H49.9981Z" fill="#00295D"/>
<path d="M49.9986 54.8028C47.9433 54.8028 46.1145 53.4927 45.4545 51.5458C44.6042 49.0406 45.947 46.3057 48.4555 45.4553C48.9545 45.2846 49.4765 45.1992 50.0019 45.1992C52.0572 45.1992 53.8827 46.5092 54.5459 48.4562C55.3963 50.9613 54.0534 53.6963 51.545 54.5467C51.0427 54.7174 50.5239 54.8028 49.9986 54.8028ZM49.9986 47.4975C49.7261 47.4975 49.4536 47.5435 49.1942 47.6321C47.8874 48.0754 47.1848 49.5003 47.6314 50.807C47.9761 51.8216 48.9282 52.5045 50.0019 52.5045C50.2744 52.5045 50.5469 52.4585 50.8063 52.3699C52.113 51.9266 52.8123 50.5017 52.3691 49.195C52.0244 48.1804 51.0722 47.4975 49.9986 47.4975Z" fill="#00295D"/>
</g>
</svg>
