<svg width="100" height="100" viewBox="0 0 100 100" fill="none" xmlns="http://www.w3.org/2000/svg">
<mask id="mask0_140_1851" style="mask-type:alpha" maskUnits="userSpaceOnUse" x="0" y="0" width="100" height="100">
<circle cx="50" cy="50" r="50" fill="white"/>
</mask>
<g mask="url(#mask0_140_1851)">
<path d="M67.4277 60.9279H33.6237C31.9764 60.9279 30.6377 59.5893 30.6377 57.9419V38.4433C30.6377 36.7996 31.9764 35.4609 33.6237 35.4609H67.4313C69.0751 35.4609 70.4137 36.7996 70.4137 38.4433V57.9419C70.4137 59.5893 69.0751 60.9279 67.4313 60.9279H67.4277ZM33.6237 37.9732C33.3689 37.9732 33.1499 38.1885 33.1499 38.4433V57.9419C33.1499 58.1968 33.3653 58.4157 33.6237 58.4157H67.4313C67.6861 58.4157 67.9015 58.2003 67.9015 57.9419V38.4433C67.9015 38.1885 67.6861 37.9732 67.4313 37.9732H33.6237Z" fill="#00295D"/>
<path d="M51.7803 59.6719H49.2681V67.5998H51.7803V59.6719Z" fill="#00295D"/>
<path d="M60.4223 51.0671C60.1172 51.0671 59.6614 50.9702 59.202 50.5108L53.1403 44.4491C52.6343 43.9466 52.462 43.3293 52.663 42.7587C52.864 42.1881 53.3844 41.8184 54.095 41.7394L60.4581 41.054C61.1221 40.9822 61.7143 41.2119 62.127 41.6677C62.4931 42.0768 62.6617 42.6187 62.6007 43.193L61.9152 49.5525C61.8004 50.5969 61.0862 51.0635 60.4294 51.0635L60.4223 51.0671ZM55.4911 43.7564L59.8947 48.16L60.4258 43.2253L55.4911 43.7564Z" fill="#00295D"/>
<path d="M40.7838 53.7767C40.5074 53.7767 40.2311 53.6726 40.0229 53.4609C39.603 53.041 39.603 52.3591 40.0229 51.9392L45.4279 46.5343C45.8478 46.1144 46.5297 46.1144 46.9496 46.5343L51.3029 50.8876L56.2018 45.9888C56.6217 45.5689 57.3036 45.5689 57.7235 45.9888C58.1434 46.4087 58.1434 47.0906 57.7235 47.5105L52.0638 53.1702C51.6439 53.5901 50.962 53.5901 50.5421 53.1702L46.1887 48.8168L41.5446 53.4609C41.3329 53.6726 41.0601 53.7767 40.7838 53.7767Z" fill="#00295D"/>
<path d="M58.3874 69.0005H42.51C41.8174 69.0005 41.2539 68.4371 41.2539 67.7444C41.2539 67.0517 41.8174 66.4883 42.51 66.4883H58.3874C59.0801 66.4883 59.6435 67.0517 59.6435 67.7444C59.6435 68.4371 59.0801 69.0005 58.3874 69.0005Z" fill="#00295D"/>
<path d="M71.6377 37.9732H29.2561C28.5635 37.9732 28 37.4097 28 36.7171C28 36.0244 28.5635 35.4609 29.2561 35.4609H71.6377C72.3304 35.4609 72.8938 36.0244 72.8938 36.7171C72.8938 37.4097 72.3304 37.9732 71.6377 37.9732Z" fill="#00295D"/>
<path d="M56.0259 37.5929H44.8679C44.1753 37.5929 43.6118 37.0294 43.6118 36.3367V32.2561C43.6118 31.5635 44.1753 31 44.8679 31H56.0259C56.7186 31 57.282 31.5635 57.282 32.2561V36.3367C57.282 37.0294 56.7186 37.5929 56.0259 37.5929ZM46.1241 35.0806H54.7698V33.5122H46.1241V35.0806Z" fill="#00295D"/>
</g>
</svg>
