<svg width="100" height="100" viewBox="0 0 100 100" fill="none" xmlns="http://www.w3.org/2000/svg">
<circle cx="50" cy="50" r="50" fill="white"/>
<path d="M62.2518 30.8385H53.5908V28.5366C53.5908 28.2407 53.3501 28 53.0542 28H46.9358C46.6399 28 46.3992 28.2407 46.3992 28.5366V30.8385H37.7432C36.2287 30.8385 35 32.0672 35 33.5817V60.4373C35 61.9519 36.2287 63.1805 37.7432 63.1805H40.9228L36.4544 72.5336H39.7593L40.6871 70.4373H59.7242L60.6469 72.5336H63.9519L59.4835 63.1805H62.2568C63.7713 63.1805 65 61.9519 65 60.4373V33.5817C65 32.0672 63.7713 30.8385 62.2568 30.8385H62.2518ZM38.3852 36.8516C38.3852 35.337 39.1725 34.5496 40.6871 34.5496H59.3029C60.8175 34.5496 61.6048 35.337 61.6048 36.8516V43.8275C61.6048 45.342 60.8175 46.5707 59.3029 46.5707H40.6921C39.1775 46.5707 38.3902 45.7833 38.3902 44.2688V36.8516H38.3852ZM38.0642 54.6349C38.0642 53.0301 39.3631 51.7312 40.9679 51.7312C42.5727 51.7312 43.8716 53.0301 43.8716 54.6349C43.8716 56.2397 42.5727 57.5386 40.9679 57.5386C39.3631 57.5386 38.0642 56.2397 38.0642 54.6349ZM41.6048 68.341L42.3872 66.5657H58.004L58.7864 68.341H41.6048ZM57.0863 64.4744H43.3149L43.8816 63.1856H56.5145L57.0812 64.4744H57.0863ZM58.8666 57.5386C57.2618 57.5386 55.9629 56.2397 55.9629 54.6349C55.9629 53.0301 57.2618 51.7312 58.8666 51.7312C60.4714 51.7312 61.7703 53.0301 61.7703 54.6349C61.7703 56.2397 60.4714 57.5386 58.8666 57.5386Z" fill="black"/>
</svg>
