<svg width="100" height="100" viewBox="0 0 100 100" fill="none" xmlns="http://www.w3.org/2000/svg">
<circle cx="50" cy="50" r="50" fill="white"/>
<path d="M50 27C42.6199 27 36 32.9395 36 40.2665C36 43.3417 37.5991 48.6679 40.4294 53.8179C40.6046 54.1355 40.782 54.453 40.9617 54.7705C41.1522 55.1054 41.345 55.4382 41.54 55.7688C45.31 62.1367 49.8708 67.7347 49.9978 67.7347C50.1336 67.7347 55.1742 61.5386 59.0361 54.7727C59.2158 54.4552 59.3954 54.1376 59.5685 53.8201C60.8478 51.493 61.8729 49.1312 62.6156 46.9563C63.5159 44.3182 63.9978 41.9542 63.9978 40.2687C64 32.9395 57.3801 27 50 27ZM58.4096 44.7554C56.9244 47.7284 53.8861 49.7988 50.3461 49.925C50.2322 49.9293 50.1161 49.9315 50 49.9315C44.8171 49.9315 40.6156 45.7602 40.6156 40.6145C40.6156 35.4688 44.8171 31.2975 50 31.2975C55.1829 31.2975 59.3844 35.4688 59.3844 40.6145C59.3844 42.1021 59.034 43.507 58.4096 44.7554Z" fill="black"/>
<path d="M57.9037 72.369C57.9037 72.717 54.3637 72.9997 50.0001 72.9997C45.6364 72.9997 42.0964 72.717 42.0964 72.369C42.0964 72.021 45.6364 71.7383 50.0001 71.7383C54.3637 71.7383 57.9037 72.021 57.9037 72.369Z" fill="black"/>
</svg>
