<svg width="75" height="75" viewBox="0 0 75 75" fill="none" xmlns="http://www.w3.org/2000/svg">
<mask id="mask0_140_6496" style="mask-type:alpha" maskUnits="userSpaceOnUse" x="0" y="0" width="75" height="75">
<circle cx="37.5" cy="37.5" r="37.5" fill="white"/>
</mask>
<g mask="url(#mask0_140_6496)">
</g>
<path d="M26.5015 33.7985L26.5015 33.7984C26.5864 27.5598 31.6476 22.5 38.0003 22.5C44.3652 22.5 49.5799 27.5689 49.4991 33.7851C49.4226 39.6667 46.507 44.2855 43.5737 47.4543C42.1091 49.0366 40.6484 50.248 39.5542 51.0633C39.0075 51.4707 38.5533 51.7785 38.2372 51.9836C38.1496 52.0404 38.0727 52.0894 38.0074 52.1303C37.9377 52.0844 37.8547 52.029 37.7596 51.9642C37.4347 51.7431 36.9686 51.4132 36.4087 50.9811C35.2881 50.1164 33.7961 48.8459 32.3103 47.2236C29.3306 43.9701 26.4248 39.3567 26.5015 33.7985ZM32.21 34.7224C32.21 37.8773 34.8104 40.4203 37.9993 40.4203C41.1882 40.4203 43.7886 37.8773 43.7886 34.7224C43.7886 31.5675 41.1882 29.0244 37.9993 29.0244C34.8104 29.0244 32.21 31.5675 32.21 34.7224Z" fill="#00295D" stroke="#EEEEEE"/>
</svg>
