<svg width="100" height="100" viewBox="0 0 100 100" fill="none" xmlns="http://www.w3.org/2000/svg">
<circle cx="50" cy="50" r="50" fill="white"/>
<path d="M64.7027 53.7551C63.424 52.3654 57.1197 48.612 57.1197 47.9055V44.5776C57.1197 43.7099 56.5894 42.9287 55.7832 42.6211C55.7386 42.6045 55.6923 42.5862 55.6477 42.5696C50.8997 40.7893 49.1022 40.7893 44.3542 42.5696C44.3096 42.5862 44.2633 42.6045 44.2187 42.6211C43.4125 42.9287 42.8822 43.7099 42.8822 44.5776V47.9055C42.8822 48.612 36.5795 52.3654 35.2992 53.7551C34.944 54.1407 34.749 54.6477 34.749 55.1747V65.0519C34.749 66.2072 35.6808 67.1448 36.829 67.1448H63.1729C64.3211 67.1448 65.2529 66.2072 65.2529 65.0519V55.1747C65.2529 54.6477 65.0579 54.1407 64.7027 53.7551Z" fill="black"/>
<path d="M68.2793 48.9796C67.8663 49.3968 67.4071 49.7409 66.918 50.0086C66.315 50.341 65.6658 50.5588 65.0016 50.6618L58.2496 45.7548C58.0398 44.4715 58.2496 43.1317 58.8758 41.9615C56.2324 40.5685 53.224 39.7822 50.0339 39.7822H49.938C46.7479 39.7988 43.7444 40.6017 41.1077 42.008C41.7421 43.1766 41.9569 44.5131 41.7553 45.798L35.0298 50.7433C34.3656 50.6435 33.7164 50.4291 33.11 50.1C32.6194 49.834 32.1585 49.4949 31.7438 49.0793C29.4276 46.7621 29.4177 42.9937 31.7207 40.6632C36.3845 35.9457 42.8341 33.02 49.9694 33.0001C57.1031 32.9802 63.5693 35.8725 68.2562 40.5635C70.5724 42.8807 70.5823 46.6491 68.2793 48.9796Z" fill="black"/>
<path d="M50.0009 62.7993C46.4721 62.7993 43.6008 59.9102 43.6008 56.3596C43.6008 52.809 46.4721 49.9199 50.0009 49.9199C53.5297 49.9199 56.401 52.809 56.401 56.3596C56.401 59.9102 53.5297 62.7993 50.0009 62.7993ZM50.0009 51.5656C47.3725 51.5656 45.2347 53.7166 45.2347 56.3613C45.2347 59.0059 47.3725 61.1569 50.0009 61.1569C52.6294 61.1569 54.7672 59.0059 54.7672 56.3613C54.7672 53.7166 52.6294 51.5656 50.0009 51.5656Z" fill="white"/>
</svg>
