<svg width="100" height="100" viewBox="0 0 100 100" fill="none" xmlns="http://www.w3.org/2000/svg">
<circle cx="50" cy="50" r="50" fill="white"/>
<path d="M35.7285 65.4141H42.5043V67.1559C42.5043 68.8068 41.1457 70.1479 39.4732 70.1479H38.7611C37.0887 70.1479 35.7301 68.8068 35.7301 67.1559V65.4141H35.7285Z" fill="black"/>
<path d="M57.4941 65.4141H64.2699V67.1559C64.2699 68.8068 62.9113 70.1479 61.2388 70.1479H60.5267C58.8542 70.1479 57.4956 68.8068 57.4956 67.1559V65.4141H57.4941Z" fill="black"/>
<path d="M65.8674 52.854H66.7872C68.0083 52.854 68.9999 51.3572 68.9999 49.509C68.9999 47.6624 68.0099 46.1641 66.7872 46.1641H65.8674V52.8524V52.854Z" fill="black"/>
<path d="M34.1279 52.854H33.2097C31.9885 52.854 31 51.3572 31 49.509C31 47.6624 31.9901 46.1641 33.2097 46.1641H34.1279V52.8524V52.854Z" fill="black"/>
<path d="M63.5093 33.2613C59.877 31.6705 54.1553 31 49.9999 31C45.8444 31 40.1212 31.6705 36.4889 33.2613C34.3635 34.1924 32.994 35.4748 32.994 37.7685V63.7945C32.994 65.0122 33.995 66.0003 35.2287 66.0003H64.7695C66.0031 66.0003 67.0041 65.0122 67.0041 63.7945V37.7685C67.0041 35.4748 65.633 34.1924 63.5093 33.2613ZM44.8294 33.3368H55.1688C55.5373 33.3368 55.8371 33.6328 55.8371 33.9966C55.8371 34.3604 55.5373 34.6563 55.1688 34.6563H44.8294C44.4609 34.6563 44.161 34.3604 44.161 33.9966C44.161 33.6328 44.4609 33.3368 44.8294 33.3368ZM36.5107 38.7643C38.241 35.9758 42.5042 35.7461 49.4064 35.7461C55.6669 35.7461 60.5157 36.0097 62.3021 38.7643C64.0621 41.4773 62.3021 51.6478 62.3021 51.6478C62.3021 52.8656 61.0513 53.8521 59.5069 53.8521H39.306C37.7631 53.8521 36.5107 52.8656 36.5107 51.6478C36.5107 51.6478 34.807 41.5112 36.5107 38.7643ZM43.9565 60.764C43.9565 61.1478 43.641 61.4592 43.2522 61.4592H36.4936C36.1047 61.4592 35.7893 61.1478 35.7893 60.764V58.9389C35.7893 58.5551 36.1047 58.2437 36.4936 58.2437H43.2522C43.641 58.2437 43.9565 58.5551 43.9565 58.9389V60.764ZM64.2089 60.764C64.2089 61.1478 63.8934 61.4592 63.5046 61.4592H56.746C56.3571 61.4592 56.0417 61.1478 56.0417 60.764V58.9389C56.0417 58.5551 56.3571 58.2437 56.746 58.2437H63.5046C63.8934 58.2437 64.2089 58.5551 64.2089 58.9389V60.764Z" fill="black"/>
</svg>
