<svg width="100" height="100" viewBox="0 0 100 100" fill="none" xmlns="http://www.w3.org/2000/svg">
<mask id="mask0_140_1883" style="mask-type:alpha" maskUnits="userSpaceOnUse" x="0" y="0" width="100" height="100">
<circle cx="50" cy="50" r="50" fill="white"/>
</mask>
<g mask="url(#mask0_140_1883)">
<path d="M50.7206 62.3124C42.1217 62.3124 35.1299 55.3206 35.1299 46.7216C35.1299 38.1227 42.1217 31.1309 50.7206 31.1309C59.3196 31.1309 66.3114 38.1267 66.3114 46.7216C66.3114 55.3166 59.3196 62.3124 50.7206 62.3124ZM50.7206 33.9085C43.6534 33.9085 37.9076 39.6584 37.9076 46.7216C37.9076 53.7849 43.6574 59.5347 50.7206 59.5347C57.7839 59.5347 63.5337 53.7889 63.5337 46.7216C63.5337 39.6544 57.7879 33.9085 50.7206 33.9085Z" fill="#00295D"/>
<path d="M50.6928 67.4422C48.0858 67.4422 45.4351 66.9461 42.8756 65.8986C32.3006 61.5733 27.2174 49.4507 31.5427 38.8756C35.8679 28.3006 47.9905 23.2174 58.5656 27.5427C59.2759 27.8323 59.6171 28.6458 59.3235 29.3521C59.0338 30.0624 58.2204 30.4037 57.514 30.11C48.3556 26.3681 37.8599 30.7687 34.114 39.9272C30.3681 49.0816 34.7727 59.5813 43.9272 63.3272C53.0816 67.0731 63.5813 62.6685 67.3272 53.5101C67.6169 52.7998 68.4304 52.4585 69.1367 52.7522C69.847 53.0418 70.1882 53.8553 69.8946 54.5616C66.6169 62.5772 58.8553 67.4382 50.6889 67.4382L50.6928 67.4422Z" fill="#00295D"/>
<path d="M52.1092 60.9219H49.3315V72.7786H52.1092V60.9219Z" fill="#00295D"/>
<path d="M61.6884 74.1644H39.7526C38.9868 74.1644 38.3638 73.5414 38.3638 72.7756C38.3638 72.0097 38.9868 71.3867 39.7526 71.3867H61.6924C62.4582 71.3867 63.0812 72.0097 63.0812 72.7756C63.0812 73.5414 62.4582 74.1644 61.6924 74.1644H61.6884Z" fill="#00295D"/>
<path d="M64.5021 53.5775L62.4109 52.4387C62.3395 52.5696 62.3355 52.6648 62.3355 52.6688C62.3712 51.8673 60.6332 48.2761 57.788 47.8991C55.5302 47.5976 54.0342 46.9269 53.2207 45.8436C52.3636 44.7008 52.5501 43.4747 52.6374 42.8834L52.6573 42.7445C53.1969 38.6613 55.673 38.2725 57.0024 38.0661C57.165 38.0423 57.3158 38.0185 57.4388 37.9907C57.9944 37.6653 57.9111 36.1257 57.7365 35.3797L60.0538 34.8281C60.4308 36.4035 60.4824 39.3121 58.292 40.2168L58.1531 40.2645C57.8952 40.3359 57.6293 40.3756 57.3714 40.4152C56.2286 40.5938 55.3278 40.7327 55.0223 43.054L54.9945 43.2366C54.9191 43.7207 54.8873 44.0858 55.1294 44.4072C55.3556 44.7088 56.046 45.2603 58.1055 45.5341C61.5974 45.9984 63.4942 49.2324 63.9942 50.2125C64.51 51.2284 65.018 52.6331 64.51 53.5696L64.5021 53.5775Z" fill="#00295D"/>
<path d="M55.4744 60.8596L53.2403 60.0382C54.4943 56.6296 53.0737 54.9193 51.4269 52.9352C50.792 52.1694 50.1333 51.3758 49.665 50.4829C49.292 49.7687 48.55 49.7211 47.0699 49.7846C46.3636 49.8163 45.6929 49.8441 45.0819 49.6695C41.9153 48.7687 41.2129 47.7251 41.0701 46.2291C41.0621 46.1458 41.0502 46.0307 41.0383 45.995C40.3995 44.1339 37.1774 45.1815 37.1456 45.1895L36.3877 42.9316C38.2845 42.2927 42.1613 41.9435 43.2922 45.2172C43.3954 45.5149 43.4192 45.7847 43.443 45.999C43.4748 46.3323 43.5144 46.745 45.7366 47.3759C45.9787 47.4434 46.5064 47.4235 46.9707 47.4037C48.4389 47.3402 50.6571 47.245 51.7761 49.3719C52.1292 50.0425 52.6808 50.7091 53.2641 51.4115C55.022 53.5265 57.2045 56.1613 55.4783 60.8596H55.4744Z" fill="#00295D"/>
</g>
</svg>
