<svg width="75" height="75" viewBox="0 0 75 75" fill="none" xmlns="http://www.w3.org/2000/svg">
<mask id="mask0_140_6473" style="mask-type:alpha" maskUnits="userSpaceOnUse" x="0" y="0" width="75" height="75">
<circle cx="37.5" cy="37.5" r="37.5" fill="white"/>
</mask>
<g mask="url(#mask0_140_6473)">
<path d="M38 25C30.8206 25 25 30.8206 25 38C25 45.1794 30.8206 51 38 51C45.1794 51 51 45.1794 51 38C51 30.8206 45.1794 25 38 25ZM49.5163 37.3015H45.7726C45.7088 35.5115 45.3627 33.7738 44.7403 32.1281C44.5668 31.6686 44.3738 31.2216 44.1614 30.7878C44.1543 30.7719 44.1171 30.6825 44.0906 30.6196C44.2251 30.5559 44.3588 30.4912 44.4916 30.424C44.5084 30.4151 44.5252 30.4071 44.542 30.3983C44.5757 30.3815 44.6093 30.3638 44.643 30.3461C44.7209 30.3053 44.7979 30.2637 44.8749 30.2212C44.9112 30.2009 44.9484 30.1805 44.9847 30.1602C45.0484 30.1239 45.1122 30.0876 45.175 30.0504C45.1963 30.038 45.2184 30.0247 45.2405 30.0123C45.252 30.0052 45.2626 29.999 45.2742 29.992C45.3671 29.9371 45.4592 29.8804 45.5512 29.822C45.5822 29.8025 45.6132 29.783 45.6442 29.7636C45.6947 29.7308 45.7451 29.6981 45.7956 29.6653C45.8195 29.6494 45.8434 29.6334 45.8664 29.6184C45.877 29.6113 45.8868 29.6042 45.8974 29.598C47.9795 31.5544 49.3366 34.2722 49.5181 37.3033L49.5163 37.3015ZM42.1837 30.0052C41.0895 30.3647 39.9272 30.5718 38.7224 30.6019V26.4855C38.8277 26.4917 38.9331 26.5005 39.0375 26.5094C40.2654 27.4495 41.3339 28.634 42.1837 30.0052ZM41.4799 26.998C42.7131 27.3893 43.8569 27.9815 44.8731 28.7367C44.8448 28.7544 44.8156 28.773 44.7873 28.7907C44.7607 28.8066 44.735 28.8234 44.7085 28.8394C44.6819 28.8553 44.6562 28.8712 44.6288 28.8872C44.5978 28.9058 44.5668 28.9243 44.5359 28.9429C44.5279 28.9482 44.519 28.9527 44.5102 28.958C44.4482 28.9943 44.3845 29.0306 44.3216 29.066C44.2809 29.0881 44.2411 29.1111 44.2003 29.1333C44.1685 29.1501 44.1375 29.1669 44.1056 29.1837C44.0959 29.189 44.0853 29.1943 44.0746 29.1997C44.0419 29.2165 44.01 29.2342 43.9773 29.251C43.8436 29.3201 43.7081 29.3873 43.5709 29.452C43.5674 29.4537 43.5638 29.4555 43.5603 29.4573C43.5585 29.4582 43.5568 29.459 43.555 29.4599C43.5337 29.4697 43.5134 29.4794 43.4921 29.4891C43.4629 29.5024 43.4346 29.5157 43.4054 29.529C42.9344 28.7579 42.3218 27.9302 41.7269 27.2663C41.6464 27.1768 41.564 27.0874 41.4799 26.998ZM38.8808 49.4127C38.8339 49.4464 38.7861 49.48 38.7383 49.5128C38.7365 49.5128 38.7339 49.5128 38.7321 49.5128L38.7215 45.3901C38.7321 45.3901 38.7427 45.3901 38.7534 45.3901C39.9369 45.4193 41.0798 45.6203 42.1563 45.9673C41.2648 47.3297 40.1529 48.5 38.8799 49.411L38.8808 49.4127ZM37.4494 26.4748V30.5674C36.2375 30.4718 35.0751 30.1965 33.9889 29.7689C34.8122 28.4985 35.8258 27.3937 36.9828 26.5076C37.1378 26.4943 37.2927 26.4819 37.4494 26.474V26.4748ZM34.2961 27.2663C33.749 27.878 33.255 28.5348 32.815 29.2324C32.7655 29.2067 32.7159 29.1802 32.6672 29.1545C32.2733 28.9412 31.8926 28.7066 31.527 28.4525C32.4494 27.8249 33.4666 27.3282 34.5528 26.9874C34.4661 27.0795 34.3811 27.1724 34.2961 27.2671V27.2663ZM33.2152 31.1446C33.2152 31.1446 33.2152 31.1446 33.2161 31.1446C33.2594 31.0578 33.3028 30.9719 33.348 30.8861C33.3834 30.9011 33.4188 30.9153 33.4542 30.9286C33.4896 30.9427 33.525 30.9569 33.5604 30.9702C33.5781 30.9773 33.5967 30.9843 33.6144 30.9914C33.6463 31.0038 33.6782 31.0162 33.71 31.0277C33.7401 31.0392 33.7702 31.0507 33.7995 31.0614C33.8225 31.0702 33.8446 31.0782 33.8676 31.0861C33.9021 31.0985 33.9376 31.1109 33.973 31.1233C34.0429 31.1481 34.1128 31.172 34.1837 31.1959C34.2146 31.2057 34.2456 31.2163 34.2766 31.226C34.3386 31.2464 34.4005 31.2658 34.4625 31.2844C34.4643 31.2844 34.4669 31.2853 34.4687 31.2862C34.5103 31.2995 34.5528 31.3119 34.5953 31.3243C34.6794 31.3499 34.7644 31.3739 34.8485 31.3969C34.9184 31.4163 34.9884 31.4349 35.0592 31.4535C35.0804 31.4588 35.1026 31.465 35.1238 31.4703C35.2433 31.5004 35.3637 31.5288 35.4841 31.5562C35.57 31.5757 35.6558 31.5934 35.7426 31.6111C35.7762 31.6182 35.809 31.6244 35.8426 31.6306C35.8745 31.6368 35.9073 31.643 35.9391 31.6492C35.9931 31.6589 36.048 31.6695 36.102 31.6784C36.1286 31.6828 36.1551 31.6872 36.1826 31.6917C36.241 31.7014 36.2994 31.7111 36.3578 31.72C36.3879 31.7244 36.4189 31.7288 36.449 31.7333C36.4605 31.735 36.472 31.7368 36.4827 31.7386C36.5075 31.7421 36.5322 31.7457 36.5579 31.7492C36.627 31.7589 36.696 31.7678 36.766 31.7766C36.7828 31.7784 36.7996 31.7811 36.8155 31.7828C36.8385 31.7855 36.8624 31.7882 36.8855 31.7908C36.9253 31.7952 36.966 31.7997 37.0059 31.8041C37.0475 31.8085 37.0891 31.8129 37.1307 31.8165C37.1794 31.8209 37.2272 31.8253 37.2759 31.8298C37.2962 31.8315 37.3166 31.8333 37.3369 31.8351C37.3741 31.8377 37.4104 31.8404 37.4476 31.843V37.3006H31.6766C31.7439 35.0848 32.3096 32.9709 33.2125 31.1437L33.2152 31.1446ZM37.4494 38.5736V44.1517C36.1038 44.2499 34.7936 44.5482 33.5392 45.0422C33.5233 45.013 33.5064 44.9838 33.4905 44.9546C33.4887 44.9519 33.4878 44.9502 33.487 44.9475C33.4737 44.9236 33.4604 44.9006 33.448 44.8767C33.4454 44.8722 33.4436 44.8678 33.4409 44.8634C33.4082 44.8041 33.3763 44.7439 33.3444 44.6828C33.3126 44.6226 33.2807 44.5615 33.2506 44.5004C33.2355 44.4695 33.2196 44.4394 33.2046 44.4093C33.2037 44.4084 33.2028 44.4066 33.2019 44.4048C33.1798 44.3606 33.1576 44.3154 33.1364 44.2712C33.1152 44.2269 33.093 44.1817 33.0718 44.1366C33.0558 44.1038 33.0408 44.0702 33.0257 44.0375C33.0116 44.0065 32.9974 43.9755 32.9832 43.9436C32.9399 43.8498 32.8983 43.7551 32.8584 43.6594C32.8451 43.6276 32.831 43.5957 32.8177 43.5638C32.8044 43.532 32.7911 43.5001 32.7779 43.4682C32.7646 43.4364 32.7513 43.4036 32.7389 43.3717C32.7256 43.3399 32.7132 43.3071 32.7009 43.2752C32.6876 43.2425 32.6752 43.2106 32.6628 43.1779C32.6513 43.1478 32.6398 43.1177 32.6283 43.0867C32.6274 43.084 32.6265 43.0823 32.6256 43.0796C32.6194 43.0628 32.6132 43.046 32.607 43.0291C32.576 42.9468 32.5459 42.8645 32.5176 42.7822C32.5061 42.7503 32.4955 42.7193 32.4848 42.6874C32.4742 42.6573 32.4645 42.6272 32.4539 42.5971C32.4415 42.5608 32.4291 42.5245 32.4176 42.4883C32.4069 42.4546 32.3963 42.4219 32.3848 42.3882C32.3742 42.3546 32.3636 42.3209 32.3529 42.2873C32.3423 42.2537 32.3317 42.22 32.322 42.1864C32.3113 42.1527 32.3016 42.1191 32.2919 42.0855C32.2777 42.0377 32.2635 41.9907 32.2503 41.9429C32.2441 41.9208 32.2379 41.8987 32.2317 41.8774C32.2219 41.842 32.2122 41.8075 32.2025 41.773C32.1945 41.7455 32.1874 41.7181 32.1803 41.6906C32.1785 41.6853 32.1768 41.68 32.1759 41.6738C32.1644 41.6322 32.1538 41.5906 32.1431 41.549C32.1281 41.4915 32.1139 41.433 32.0998 41.3746C32.0998 41.3719 32.0989 41.3702 32.098 41.3675C32.0891 41.333 32.0812 41.2985 32.0732 41.2639C32.0502 41.1666 32.0281 41.0692 32.0077 40.9718C32.0015 40.9444 31.9962 40.9178 31.9909 40.8904C31.9882 40.8806 31.9864 40.87 31.9847 40.8603C31.9794 40.8346 31.9741 40.808 31.9687 40.7824C31.9395 40.6354 31.9121 40.4876 31.8864 40.3388C31.8793 40.2981 31.8731 40.2574 31.8661 40.2158C31.859 40.1751 31.8528 40.1335 31.8466 40.0927C31.8413 40.06 31.8368 40.0272 31.8315 39.9945C31.828 39.9697 31.8244 39.9449 31.8209 39.9201C31.8085 39.8351 31.7979 39.7502 31.7873 39.6643C31.7828 39.6306 31.7784 39.5961 31.7749 39.5616C31.7713 39.535 31.7687 39.5094 31.766 39.4828C31.7607 39.4368 31.7563 39.3899 31.751 39.3438C31.7474 39.3075 31.7439 39.2712 31.7403 39.234C31.7306 39.1322 31.7218 39.0304 31.7147 38.9286C31.7102 38.8702 31.7058 38.8118 31.7023 38.7534C31.7023 38.7516 31.7023 38.7489 31.7023 38.7472C31.6987 38.6887 31.6952 38.6303 31.6925 38.5719H37.4511L37.4494 38.5736ZM37.4494 45.4291V49.3906C37.4016 49.3578 37.3546 49.3242 37.3077 49.2906C37.298 49.2835 37.2874 49.2755 37.2776 49.2684C37.2378 49.2401 37.1988 49.2109 37.159 49.1817C37.1484 49.1737 37.1378 49.1657 37.1271 49.1578C37.0988 49.1374 37.0714 49.1162 37.0439 49.0949C37.0413 49.094 37.0395 49.0914 37.0368 49.0896C37.0129 49.0719 36.989 49.0533 36.966 49.0356C36.9244 49.0037 36.8828 48.971 36.8412 48.9382C36.8005 48.9055 36.7589 48.8736 36.719 48.84C36.6748 48.8037 36.6305 48.7674 36.5871 48.7311C36.5544 48.7036 36.5225 48.6771 36.4906 48.6496C36.457 48.6213 36.4242 48.593 36.3906 48.5638C36.3879 48.562 36.3862 48.5602 36.3835 48.5576C36.3552 48.5328 36.3269 48.508 36.2985 48.4832C36.2817 48.469 36.2658 48.454 36.249 48.4389C36.21 48.4044 36.1711 48.369 36.133 48.3336C36.0542 48.261 35.9754 48.1875 35.8984 48.1123C35.8754 48.091 35.8524 48.068 35.8293 48.0459C35.8116 48.0291 35.7939 48.0114 35.7771 47.9937C35.7532 47.9698 35.7284 47.9459 35.7045 47.9211C35.6727 47.8892 35.6408 47.8565 35.6098 47.8237C35.5894 47.8033 35.57 47.783 35.5514 47.7626C35.5461 47.7582 35.5416 47.7529 35.5372 47.7476C35.5222 47.7316 35.5071 47.7157 35.4921 47.6998C35.4876 47.6953 35.4832 47.69 35.4788 47.6856C35.4629 47.6697 35.4478 47.6528 35.4328 47.6369C35.4106 47.613 35.3885 47.5891 35.3664 47.5652C35.3495 47.5466 35.3318 47.528 35.315 47.5085C35.3106 47.5041 35.3062 47.4997 35.3026 47.4944C35.2743 47.4625 35.246 47.4315 35.2176 47.3997C35.2052 47.3855 35.1929 47.3722 35.1813 47.3581C35.1539 47.328 35.1282 47.2979 35.1026 47.2678C35.0654 47.2253 35.0291 47.1828 34.9937 47.1403C34.9742 47.1173 34.9547 47.0951 34.9361 47.0721C34.9352 47.0712 34.9344 47.0703 34.9335 47.0695C34.9051 47.0358 34.8768 47.0013 34.8494 46.9677C34.8131 46.9234 34.7785 46.88 34.7431 46.8358C34.7254 46.8145 34.7086 46.7924 34.6918 46.7702C34.6909 46.7694 34.6891 46.7676 34.6883 46.7658C34.6652 46.7366 34.6422 46.7065 34.6192 46.6773C34.5741 46.618 34.5289 46.5587 34.4846 46.4994C34.4634 46.4701 34.4422 46.4418 34.4209 46.4126C34.4191 46.4108 34.4182 46.4099 34.4174 46.4082C34.4085 46.3967 34.4005 46.3852 34.3926 46.3745C34.3917 46.3736 34.3908 46.3719 34.3908 46.371C34.3678 46.3391 34.3457 46.3073 34.3226 46.2763C34.3218 46.2754 34.3209 46.2745 34.32 46.2736C34.3147 46.2674 34.3102 46.2603 34.3067 46.2541C34.3058 46.2541 34.3058 46.2533 34.3058 46.2524C34.2801 46.217 34.2554 46.1807 34.2306 46.1453C35.2469 45.7664 36.3277 45.5211 37.4511 45.4291H37.4494ZM32.6991 46.8393C32.7478 46.8127 32.7973 46.7862 32.8469 46.7614C32.9098 46.7286 32.9726 46.6968 33.0355 46.6649C33.0948 46.7534 33.1541 46.8411 33.2152 46.9278C33.2851 47.027 33.3559 47.1252 33.4276 47.2235C33.471 47.2819 33.5144 47.3403 33.5587 47.3988C33.6109 47.4669 33.6631 47.5351 33.7162 47.6024C33.7534 47.6502 33.7915 47.6971 33.8296 47.744C33.8464 47.7653 33.8641 47.7865 33.8809 47.8069C33.9278 47.8644 33.9747 47.9211 34.0225 47.9777C34.0641 48.0273 34.1058 48.076 34.1482 48.1247C34.1571 48.1362 34.1668 48.1468 34.1766 48.1574C34.1863 48.1689 34.196 48.1796 34.2058 48.1902C34.2076 48.1928 34.2093 48.1946 34.212 48.1973C34.2394 48.2291 34.2669 48.2601 34.2952 48.2911C34.5767 48.6063 34.8706 48.9046 35.1734 49.1888C33.8588 48.8568 32.6318 48.2991 31.5394 47.5581C31.9112 47.2979 32.2972 47.0571 32.6982 46.8402L32.6991 46.8393ZM41.8854 48.4177C42.436 47.8016 42.9335 47.1403 43.3753 46.4365C43.902 46.672 44.4075 46.9446 44.8908 47.25C43.8126 48.0547 42.5892 48.6744 41.2684 49.0648C41.4791 48.8568 41.6853 48.6417 41.8854 48.4177ZM42.8193 44.8457C41.5136 44.3933 40.1503 44.1499 38.7534 44.1189C38.7427 44.1189 38.7321 44.1189 38.7215 44.1189V38.5745H44.496C44.4942 38.617 44.4925 38.6595 44.4898 38.702C44.3747 40.9364 43.7798 43.0274 42.8185 44.8475L42.8193 44.8457ZM38.7224 37.3015V31.874C40.1627 31.8422 41.5764 31.5978 42.9194 31.118C42.93 31.149 42.9769 31.2685 42.9769 31.272C43.8719 33.0709 44.4146 35.1203 44.4996 37.3015H38.7224ZM30.4691 29.2678C30.9728 29.6405 31.5022 29.9769 32.0537 30.2744C32.0962 30.2974 32.1387 30.3195 32.1803 30.3416C32.183 30.3434 32.1856 30.3443 32.1883 30.3461C32.1538 30.4116 32.0847 30.5426 32.0829 30.5417C31.8581 30.9976 31.6235 31.5173 31.4411 32.0006C30.8037 33.6861 30.4558 35.4673 30.4045 37.3015H26.4837C26.6758 34.0969 28.1825 31.2428 30.4691 29.2678ZM26.4748 38.5736H30.4169C30.4974 40.2964 30.8409 41.9686 31.442 43.5568C31.4987 43.7064 31.5571 43.8542 31.6173 44.0003C31.627 44.0259 31.6377 44.0507 31.6492 44.0764C31.6872 44.1676 31.7262 44.2588 31.7669 44.3491C31.7775 44.3739 31.789 44.3995 31.8005 44.4252C31.8439 44.5235 31.8891 44.62 31.9342 44.7164C31.9555 44.7616 31.9767 44.8067 31.9988 44.8519C32.0183 44.8926 32.0387 44.9333 32.059 44.9741C32.0732 45.0033 32.0874 45.0316 32.1024 45.0608C32.1237 45.1033 32.1449 45.1458 32.167 45.1874C32.1901 45.2317 32.2122 45.2759 32.2361 45.3193C32.2618 45.3689 32.2883 45.4185 32.3158 45.468C32.3344 45.5026 32.3529 45.5371 32.3715 45.5707C32.3184 45.5973 32.2662 45.6247 32.214 45.6522C32.1715 45.6743 32.129 45.6964 32.0874 45.7194C31.5279 46.0213 30.9923 46.3639 30.4824 46.7428C28.1595 44.7421 26.6368 41.8349 26.4766 38.5745L26.4748 38.5736ZM45.9115 46.3887C45.3166 45.9877 44.6899 45.6353 44.0339 45.3335C44.033 45.3361 44.0242 45.3344 44.0082 45.3299C44.2818 44.8005 44.5261 44.2517 44.7412 43.6833C45.3414 42.0961 45.6858 40.4229 45.7664 38.7002C45.7681 38.6577 45.7699 38.6153 45.7717 38.5728H49.526C49.3747 41.6464 48.014 44.4048 45.9124 46.3878L45.9115 46.3887Z" fill="#00295D"/>
</g>
</svg>
