<svg width="100" height="100" viewBox="0 0 100 100" fill="none" xmlns="http://www.w3.org/2000/svg">
<mask id="mask0_140_1822" style="mask-type:alpha" maskUnits="userSpaceOnUse" x="0" y="0" width="100" height="100">
<circle cx="50" cy="50" r="50" fill="white"/>
</mask>
<g mask="url(#mask0_140_1822)">
<path d="M66.8682 67.9856H33.1317C31.4039 67.9856 30 66.5817 30 64.8538V36.1317C30 34.4039 31.4039 33 33.1317 33H66.8682C68.5961 33 70 34.4039 70 36.1317V64.8503C70 66.5781 68.5961 67.982 66.8682 67.982V67.9856ZM33.1317 35.5198C32.8006 35.5198 32.5198 35.8006 32.5198 36.1317V64.8503C32.5198 65.1814 32.8006 65.4622 33.1317 65.4622H66.8682C67.1994 65.4622 67.4802 65.1814 67.4802 64.8503V36.1317C67.4802 35.8006 67.1994 35.5198 66.8682 35.5198H33.1317Z" fill="#00295D"/>
<path d="M43.6715 67.627C42.9768 67.627 42.4116 67.0618 42.4116 66.3671V34.6212C42.4116 33.9265 42.9768 33.3613 43.6715 33.3613C44.3663 33.3613 44.9314 33.9265 44.9314 34.6212V66.3671C44.9314 67.0618 44.3663 67.627 43.6715 67.627Z" fill="#00295D"/>
<path d="M56.2887 67.627C55.594 67.627 55.0288 67.0618 55.0288 66.3671V34.6212C55.0288 33.9265 55.594 33.3613 56.2887 33.3613C56.9835 33.3613 57.5486 33.9265 57.5486 34.6212V66.3671C57.5486 67.0618 56.9835 67.627 56.2887 67.627Z" fill="#00295D"/>
<path d="M39.928 41.1715H35.2484C34.6508 41.1715 34.1685 40.6892 34.1685 40.0916C34.1685 39.4941 34.6508 39.0117 35.2484 39.0117H39.928C40.5255 39.0117 41.0079 39.4941 41.0079 40.0916C41.0079 40.6892 40.5255 41.1715 39.928 41.1715Z" fill="#00295D"/>
<path d="M39.928 45.3356H35.2484C34.6508 45.3356 34.1685 44.8532 34.1685 44.2557C34.1685 43.6581 34.6508 43.1758 35.2484 43.1758H39.928C40.5255 43.1758 41.0079 43.6581 41.0079 44.2557C41.0079 44.8532 40.5255 45.3356 39.928 45.3356Z" fill="#00295D"/>
<path d="M39.928 49.5036H35.2484C34.6508 49.5036 34.1685 49.0212 34.1685 48.4237C34.1685 47.8261 34.6508 47.3438 35.2484 47.3438H39.928C40.5255 47.3438 41.0079 47.8261 41.0079 48.4237C41.0079 49.0212 40.5255 49.5036 39.928 49.5036Z" fill="#00295D"/>
<path d="M52.1922 41.1715H47.5125C46.915 41.1715 46.4326 40.6892 46.4326 40.0916C46.4326 39.4941 46.915 39.0117 47.5125 39.0117H52.1922C52.7897 39.0117 53.2721 39.4941 53.2721 40.0916C53.2721 40.6892 52.7897 41.1715 52.1922 41.1715Z" fill="#00295D"/>
<path d="M52.1922 45.3844H47.5125C46.915 45.3844 46.4326 44.9021 46.4326 44.3045C46.4326 43.707 46.915 43.2246 47.5125 43.2246H52.1922C52.7897 43.2246 53.2721 43.707 53.2721 44.3045C53.2721 44.9021 52.7897 45.3844 52.1922 45.3844Z" fill="#00295D"/>
<path d="M52.1922 49.5036H47.5125C46.915 49.5036 46.4326 49.0212 46.4326 48.4237C46.4326 47.8261 46.915 47.3438 47.5125 47.3438H52.1922C52.7897 47.3438 53.2721 47.8261 53.2721 48.4237C53.2721 49.0212 52.7897 49.5036 52.1922 49.5036Z" fill="#00295D"/>
<path d="M64.8308 41.1715H60.1512C59.5537 41.1715 59.0713 40.6892 59.0713 40.0916C59.0713 39.4941 59.5537 39.0117 60.1512 39.0117H64.8308C65.4284 39.0117 65.9107 39.4941 65.9107 40.0916C65.9107 40.6892 65.4284 41.1715 64.8308 41.1715Z" fill="#00295D"/>
<path d="M64.8308 45.3844H60.1512C59.5537 45.3844 59.0713 44.9021 59.0713 44.3045C59.0713 43.707 59.5537 43.2246 60.1512 43.2246H64.8308C65.4284 43.2246 65.9107 43.707 65.9107 44.3045C65.9107 44.9021 65.4284 45.3844 64.8308 45.3844Z" fill="#00295D"/>
<path d="M64.8308 49.5036H60.1512C59.5537 49.5036 59.0713 49.0212 59.0713 48.4237C59.0713 47.8261 59.5537 47.3438 60.1512 47.3438H64.8308C65.4284 47.3438 65.9107 47.8261 65.9107 48.4237C65.9107 49.0212 65.4284 49.5036 64.8308 49.5036Z" fill="#00295D"/>
<path d="M39.9278 62.4163H35.2482C34.5534 62.4163 33.9883 61.8511 33.9883 61.1564C33.9883 60.4616 34.5534 59.8965 35.2482 59.8965H39.9278C40.6226 59.8965 41.1877 60.4616 41.1877 61.1564C41.1877 61.8511 40.6226 62.4163 39.9278 62.4163Z" fill="#00295D"/>
<path d="M52.1925 62.4163H47.5128C46.8181 62.4163 46.2529 61.8511 46.2529 61.1564C46.2529 60.4616 46.8181 59.8965 47.5128 59.8965H52.1925C52.8872 59.8965 53.4524 60.4616 53.4524 61.1564C53.4524 61.8511 52.8872 62.4163 52.1925 62.4163Z" fill="#00295D"/>
<path d="M64.8306 62.4163H60.151C59.4563 62.4163 58.8911 61.8511 58.8911 61.1564C58.8911 60.4616 59.4563 59.8965 60.151 59.8965H64.8306C65.5254 59.8965 66.0905 60.4616 66.0905 61.1564C66.0905 61.8511 65.5254 62.4163 64.8306 62.4163Z" fill="#00295D"/>
</g>
</svg>
