<svg width="100" height="100" viewBox="0 0 100 100" fill="none" xmlns="http://www.w3.org/2000/svg">
<mask id="mask0_140_1899" style="mask-type:alpha" maskUnits="userSpaceOnUse" x="0" y="0" width="100" height="100">
<circle cx="50" cy="50" r="50" fill="white"/>
</mask>
<g mask="url(#mask0_140_1899)">
<path d="M67.8293 51.285H65.5141C64.8044 51.285 64.229 50.7097 64.229 49.9999C64.229 49.2902 64.8044 48.7148 65.5141 48.7148H67.8293C68.5391 48.7148 69.1144 49.2902 69.1144 49.9999C69.1144 50.7097 68.5391 51.285 67.8293 51.285Z" fill="#00295D"/>
<path d="M50 69.9966C38.9716 69.9966 30 61.025 30 50C30 38.975 38.9716 30 50 30C61.0284 30 70 38.9716 70 50C70 61.0284 61.0284 70 50 70V69.9966ZM50 32.5702C40.3876 32.5702 32.5702 40.3876 32.5702 50C32.5702 59.6124 40.391 67.4298 50 67.4298C59.609 67.4298 67.4298 59.6124 67.4298 50C67.4298 40.3876 59.6124 32.5702 50 32.5702Z" fill="#00295D"/>
<path d="M49.9999 35.2235C49.2902 35.2235 48.7148 34.6481 48.7148 33.9384V31.3613C48.7148 30.6515 49.2902 30.0762 49.9999 30.0762C50.7097 30.0762 51.285 30.6515 51.285 31.3613V33.9418C51.285 34.6515 50.7097 35.2269 49.9999 35.2269V35.2235Z" fill="#00295D"/>
<path d="M49.9999 69.9242C49.2902 69.9242 48.7148 69.3488 48.7148 68.6391V66.0585C48.7148 65.3488 49.2902 64.7734 49.9999 64.7734C50.7097 64.7734 51.285 65.3488 51.285 66.0585V68.6391C51.285 69.3488 50.7097 69.9242 49.9999 69.9242Z" fill="#00295D"/>
<path d="M33.9413 51.285H31.3608C30.651 51.285 30.0757 50.7097 30.0757 49.9999C30.0757 49.2902 30.651 48.7148 31.3608 48.7148H33.9413C34.651 48.7148 35.2264 49.2902 35.2264 49.9999C35.2264 50.7097 34.651 51.285 33.9413 51.285Z" fill="#00295D"/>
<path d="M49.9999 51.0203C49.2902 51.0203 48.7148 50.445 48.7148 49.7352V38.5449C48.7148 37.8351 49.2902 37.2598 49.9999 37.2598C50.7097 37.2598 51.285 37.8351 51.285 38.5449V49.7352C51.285 50.445 50.7097 51.0203 49.9999 51.0203Z" fill="#00295D"/>
<path d="M58.2548 58.5782C57.9516 58.5782 57.6484 58.4714 57.4038 58.2578L49.1489 50.9606C48.6183 50.4886 48.5666 49.679 49.0386 49.1484C49.5072 48.6178 50.3203 48.5661 50.8509 49.0381L59.1058 56.3353C59.6364 56.8039 59.6881 57.6169 59.2161 58.1475C58.9611 58.4335 58.6097 58.5816 58.2548 58.5816V58.5782Z" fill="#00295D"/>
</g>
</svg>
