<svg width="33" height="34" viewBox="0 0 33 34" fill="none" xmlns="http://www.w3.org/2000/svg">
<path d="M32.1487 17.6171C32.0086 17.2175 32.0086 16.7829 32.1487 16.3832L32.8957 14.2466C33.131 13.5717 32.9609 12.8206 32.4579 12.3148L30.8643 10.7161C30.5674 10.4179 30.38 10.0261 30.333 9.60574L30.0858 7.35424C30.0078 6.64217 29.5308 6.03945 28.8599 5.8047L26.735 5.06093C26.3382 4.9222 26.0012 4.65023 25.7777 4.29237L24.5855 2.37163C24.2084 1.76431 23.5188 1.43033 22.8132 1.5121L20.5789 1.76982C20.1616 1.81806 19.7397 1.72067 19.3854 1.49556L17.4831 0.285974C16.8824 -0.0953246 16.1171 -0.0953246 15.5169 0.285974L13.6146 1.49556C13.2603 1.72067 12.8384 1.8176 12.4211 1.76982L10.1868 1.5121C9.48122 1.43033 8.79163 1.76431 8.41445 2.37163L7.22227 4.29237C6.99879 4.65069 6.66175 4.9222 6.26497 5.06093L4.14011 5.8047C3.46922 6.03945 2.99217 6.64217 2.91418 7.35424L2.66698 9.60574C2.62046 10.0261 2.43302 10.4179 2.13565 10.7161L0.542125 12.3148C0.0390727 12.8201 -0.131044 13.5717 0.104292 14.2466L0.851344 16.3832C0.99136 16.7829 0.99136 17.2175 0.851344 17.6171L0.104292 19.7538C-0.131044 20.4286 0.0390727 21.1798 0.542125 21.6856L2.13565 23.2842C2.43256 23.5824 2.62001 23.9743 2.66698 24.3946L2.91418 26.6461C2.99217 27.3582 3.46922 27.9609 4.14011 28.1957L6.26497 28.9394C6.66175 29.0781 6.99879 29.3501 7.22227 29.708L8.41445 31.6287C8.79163 32.236 9.48122 32.57 10.1868 32.4882L12.4211 32.2305C12.8384 32.1823 13.2603 32.2797 13.6146 32.5048L15.5169 33.7144C16.1176 34.0952 16.8829 34.0952 17.4831 33.7144L19.3854 32.5048C19.7397 32.2797 20.1616 32.1827 20.5789 32.2305L22.8132 32.4882C23.5188 32.57 24.2084 32.236 24.5855 31.6287L25.7777 29.708C26.0012 29.3497 26.3382 29.0781 26.735 28.9394L28.8599 28.1957C29.5308 27.9609 30.0078 27.3582 30.0858 26.6461L30.333 24.3946C30.3795 23.9743 30.567 23.5824 30.8643 23.2842L32.4579 21.6856C32.9609 21.1802 33.131 20.4286 32.8957 19.7538L32.1487 17.6171ZM13.5211 23.9297L13.4609 23.9867L13.3921 23.921L7.56661 18.0531L9.40596 16.2004L13.4048 20.2283L23.4869 10.0716L25.3828 11.9813L13.5207 23.9297H13.5211Z" fill="#009843"/>
</svg>
