<svg width="240" height="65" viewBox="0 0 240 65" fill="none" xmlns="http://www.w3.org/2000/svg">
<path d="M206.14 1.35352H218.036L240 64.0816H228.499L223.786 49.6854H200.464L195.43 64.0816H183.93L206.14 1.35352ZM203.228 40.8754H220.898L211.94 14.4455L203.228 40.8754Z" fill="#06487B"/>
<path d="M45.5568 64.1313L14.9799 31.992L44.4216 1.35391H29.9105L12.7342 19.2692V1.30469H0V64.1313H12.7342V45.5515L30.3301 64.1313H45.5568Z" fill="#06487B"/>
<path d="M192.568 10.6311C191.235 8.34245 189.582 6.52139 187.361 5.14329C185.115 3.76519 182.573 2.83005 179.562 2.21483C176.576 1.5996 173.491 1.35352 170.16 1.35352H154.785V10.2373H168.654C173.047 10.2373 176.132 10.8033 178.402 12.526C180.673 14.2486 181.536 16.4388 181.536 19.6625V25.298C181.536 31.9916 177.588 35.6583 168.654 35.6583H139.509V64.1309H152.243V44.5422H169.296C172.603 44.5422 175.811 43.9269 178.871 43.3117C181.931 42.6965 184.671 41.5153 187.04 40.088C189.409 38.6606 191.038 36.7165 192.444 34.4279C193.851 32.1639 194.271 29.2354 194.271 25.8148V19.0719C194.271 15.7251 193.9 12.9197 192.568 10.6311Z" fill="#06487B"/>
<path d="M152.243 1.35352H139.509V31.844H152.243V1.35352Z" fill="#06487B"/>
<path d="M232.917 1.35352H227.191H226.648H220.923L226.574 17.6692H232.3H233.065H238.79L232.917 1.35352Z" fill="#46A4C6"/>
<path d="M126.256 21.0898C126.034 19.5149 125.541 18.0383 124.726 16.6848C123.912 15.3314 122.875 14.1993 121.617 13.2396C120.358 12.2799 118.927 11.5416 117.323 10.9756C115.719 10.4096 113.991 10.1389 112.165 10.1389C109.055 10.1389 106.415 10.7541 104.243 11.9599C102.071 13.1658 100.294 14.8146 98.9124 16.8571C97.555 18.9243 96.5432 21.3359 95.9262 24.0675C95.3093 26.8237 94.9884 29.703 94.9884 32.7053C94.9884 35.5599 95.3093 38.3161 95.9262 40.9739C96.5432 43.6316 97.5797 45.9941 98.9617 48.0612C100.344 50.1284 102.121 51.7526 104.292 52.983C106.439 54.1888 109.08 54.8041 112.165 54.8041C114.262 54.8041 116.187 54.4103 117.964 53.6475C119.716 52.8846 121.222 51.851 122.505 50.5467C123.764 49.2425 124.751 47.7413 125.491 46.0187C126.232 44.2961 126.602 42.9426 126.725 41.7367L137.14 41.6875C136.819 44.6652 136.078 47.5198 134.721 50.4483C133.339 53.3768 131.562 55.8869 129.366 57.9786C127.169 60.0704 124.603 61.67 121.691 62.802C118.779 63.934 115.595 64.5 112.189 64.5C107.821 64.5 103.922 63.6879 100.442 62.0391C96.9627 60.3903 94.026 58.1509 91.6321 55.2716C89.2136 52.3924 87.3627 49.021 86.0795 45.1328C84.7962 41.2446 84.1545 37.0856 84.1545 32.656C84.1545 28.2264 84.7962 23.7722 86.0795 19.8102C87.3627 15.8481 89.2383 12.4029 91.6815 9.47443C94.1247 6.54597 97.0615 4.23273 100.516 2.53472C103.947 0.836703 107.846 0 112.214 0C115.373 0 118.384 0.492178 121.247 1.47654C124.109 2.46089 126.651 3.8636 128.848 5.68466C131.044 7.50572 132.846 9.72052 134.252 12.3045C135.634 14.8884 136.473 17.7923 136.745 21.016H126.355L126.256 21.0898Z" fill="#06487B"/>
<path d="M137.287 35.7324H126.799V39.9405H137.287V35.7324Z" fill="#46A4C6"/>
<path d="M47.3339 1.35352L18.0156 31.9916H28.8742L58.1678 1.35352H47.3339Z" fill="#46A4C6"/>
<path d="M47.8018 26.7499H60.5359V10.7787H94.2963V1.35352H47.8018V26.7499Z" fill="#06487B"/>
<path d="M47.4072 29.2852V64.1314H60.1414V39.5717H77.4658L80.8221 29.2852H47.4072Z" fill="#06487B"/>
</svg>
