<svg width="215" height="162" viewBox="0 0 215 162" fill="none" xmlns="http://www.w3.org/2000/svg">
<g opacity="0.8">
<path d="M1.05283 0C0.394813 0 0 0.38046 0 1.01456C0 1.64866 0.394813 2.02912 1.05283 2.02912C1.71086 2.02912 2.10567 1.64866 2.10567 1.01456C2.10567 0.38046 1.57925 0 1.05283 0Z" fill="#CDC6BD"/>
<path d="M12.2392 0C11.7128 0 11.1864 0.38046 11.1864 1.01456C11.1864 1.64866 11.5812 2.02912 12.2392 2.02912C12.8972 2.02912 13.292 1.64866 13.292 1.01456C13.292 0.38046 12.8972 0 12.2392 0Z" fill="#CDC6BD"/>
<path d="M23.5572 0C23.0307 0 22.5043 0.38046 22.5043 1.01456C22.5043 1.64866 22.8991 2.02912 23.5572 2.02912C24.0836 2.02912 24.61 1.64866 24.61 1.01456C24.61 0.38046 24.0836 0 23.5572 0Z" fill="#CDC6BD"/>
<path d="M34.7435 0C34.2171 0 33.6907 0.38046 33.6907 1.01456C33.6907 1.64866 34.0855 2.02912 34.7435 2.02912C35.2699 2.02912 35.7964 1.64866 35.7964 1.01456C35.7964 0.38046 35.2699 0 34.7435 0Z" fill="#CDC6BD"/>
<path d="M46.0615 0C45.5351 0 45.0086 0.38046 45.0086 1.01456C45.0086 1.64866 45.4035 2.02912 46.0615 2.02912C46.5879 2.02912 47.1143 1.64866 47.1143 1.01456C47.1143 0.38046 46.5879 0 46.0615 0Z" fill="#CDC6BD"/>
<path d="M57.2478 0C56.7214 0 56.195 0.38046 56.195 1.01456C56.195 1.64866 56.5898 2.02912 57.2478 2.02912C57.9059 2.02912 58.3007 1.64866 58.3007 1.01456C58.3007 0.38046 57.7743 0 57.2478 0Z" fill="#CDC6BD"/>
<path d="M68.4342 0C67.9078 0 67.3814 0.38046 67.3814 1.01456C67.3814 1.64866 67.7762 2.02912 68.4342 2.02912C68.9606 2.02912 69.487 1.64866 69.487 1.01456C69.487 0.38046 69.0922 0 68.4342 0Z" fill="#CDC6BD"/>
<path d="M79.7522 0C79.2257 0 78.6993 0.38046 78.6993 1.01456C78.6993 1.64866 79.0941 2.02912 79.7522 2.02912C80.4102 2.02912 80.805 1.64866 80.805 1.01456C80.805 0.38046 80.2786 0 79.7522 0Z" fill="#CDC6BD"/>
<path d="M90.9385 0C90.4121 0 89.8857 0.38046 89.8857 1.01456C89.8857 1.64866 90.2805 2.02912 90.9385 2.02912C91.5965 2.02912 91.9914 1.64866 91.9914 1.01456C91.9914 0.38046 91.5965 0 90.9385 0Z" fill="#CDC6BD"/>
<path d="M102.256 0C101.73 0 101.204 0.38046 101.204 1.01456C101.204 1.64866 101.598 2.02912 102.256 2.02912C102.783 2.02912 103.309 1.64866 103.309 1.01456C103.309 0.38046 102.783 0 102.256 0Z" fill="#CDC6BD"/>
<path d="M113.443 0C112.916 0 112.39 0.38046 112.39 1.01456C112.39 1.64866 112.785 2.02912 113.443 2.02912C114.101 2.02912 114.496 1.52184 114.496 1.01456C114.496 0.50728 114.101 0 113.443 0Z" fill="#CDC6BD"/>
<path d="M124.761 0C124.103 0 123.708 0.38046 123.708 1.01456C123.708 1.64866 124.103 2.02912 124.761 2.02912C125.419 2.02912 125.814 1.64866 125.814 1.01456C125.814 0.38046 125.287 0 124.761 0Z" fill="#CDC6BD"/>
<path d="M135.947 0C135.421 0 134.894 0.38046 134.894 1.01456C134.894 1.64866 135.289 2.02912 135.947 2.02912C136.605 2.02912 137 1.64866 137 1.01456C137 0.38046 136.474 0 135.947 0Z" fill="#CDC6BD"/>
<path d="M1.05283 9.38468C0.394813 9.38468 0 9.76514 0 10.3992C0 10.9065 0.394813 11.4138 1.05283 11.4138C1.71086 11.4138 2.10567 11.0333 2.10567 10.3992C2.10567 9.76514 1.57925 9.38468 1.05283 9.38468Z" fill="#CDC6BD"/>
<path d="M12.2392 9.38468C11.7128 9.38468 11.1864 9.76514 11.1864 10.3992C11.1864 10.9065 11.5812 11.4138 12.2392 11.4138C12.8972 11.4138 13.292 11.0333 13.292 10.3992C13.292 9.76514 12.8972 9.38468 12.2392 9.38468Z" fill="#CDC6BD"/>
<path d="M23.5572 9.38468C23.0307 9.38468 22.5043 9.76514 22.5043 10.3992C22.5043 10.9065 22.8991 11.4138 23.5572 11.4138C24.0836 11.4138 24.61 11.0333 24.61 10.3992C24.4784 9.76514 24.0836 9.38468 23.5572 9.38468Z" fill="#CDC6BD"/>
<path d="M34.7435 9.38468C34.2171 9.38468 33.6907 9.76514 33.6907 10.3992C33.6907 10.9065 34.0855 11.4138 34.7435 11.4138C35.2699 11.4138 35.7964 11.0333 35.7964 10.3992C35.7964 9.76514 35.2699 9.38468 34.7435 9.38468Z" fill="#CDC6BD"/>
<path d="M46.0615 9.38468C45.5351 9.38468 45.0086 9.76514 45.0086 10.3992C45.0086 10.9065 45.4035 11.4138 46.0615 11.4138C46.5879 11.4138 47.1143 11.0333 47.1143 10.3992C46.9827 9.76514 46.5879 9.38468 46.0615 9.38468Z" fill="#CDC6BD"/>
<path d="M57.2478 9.38468C56.7214 9.38468 56.195 9.76514 56.195 10.3992C56.195 10.9065 56.5898 11.4138 57.2478 11.4138C57.9059 11.4138 58.3007 11.0333 58.3007 10.3992C58.3007 9.76514 57.7743 9.38468 57.2478 9.38468Z" fill="#CDC6BD"/>
<path d="M68.4342 9.38468C67.9078 9.38468 67.3814 9.76514 67.3814 10.3992C67.3814 10.9065 67.7762 11.4138 68.4342 11.4138C68.9606 11.4138 69.487 11.0333 69.487 10.3992C69.487 9.76514 69.0922 9.38468 68.4342 9.38468Z" fill="#CDC6BD"/>
<path d="M79.7522 9.38468C79.2257 9.38468 78.6993 9.76514 78.6993 10.3992C78.6993 10.9065 79.0941 11.4138 79.7522 11.4138C80.4102 11.4138 80.805 11.0333 80.805 10.3992C80.805 9.76514 80.2786 9.38468 79.7522 9.38468Z" fill="#CDC6BD"/>
<path d="M90.9385 9.38468C90.4121 9.38468 89.8857 9.76514 89.8857 10.3992C89.8857 10.9065 90.2805 11.4138 90.9385 11.4138C91.5965 11.4138 91.9914 11.0333 91.9914 10.3992C91.9914 9.76514 91.5965 9.38468 90.9385 9.38468Z" fill="#CDC6BD"/>
<path d="M102.256 9.38468C101.73 9.38468 101.204 9.76514 101.204 10.3992C101.204 10.9065 101.598 11.4138 102.256 11.4138C102.783 11.4138 103.309 11.0333 103.309 10.3992C103.309 9.76514 102.783 9.38468 102.256 9.38468Z" fill="#CDC6BD"/>
<path d="M113.443 9.38468C112.916 9.38468 112.39 9.76514 112.39 10.3992C112.39 10.9065 112.785 11.4138 113.443 11.4138C114.101 11.4138 114.496 10.9065 114.496 10.3992C114.496 9.76514 114.101 9.38468 113.443 9.38468Z" fill="#CDC6BD"/>
<path d="M124.761 9.38468C124.234 9.38468 123.708 9.76514 123.708 10.3992C123.708 10.9065 124.103 11.4138 124.761 11.4138C125.419 11.4138 125.814 11.0333 125.814 10.3992C125.682 9.76514 125.287 9.38468 124.761 9.38468Z" fill="#CDC6BD"/>
<path d="M135.947 9.38468C135.421 9.38468 134.894 9.76514 134.894 10.3992C134.894 10.9065 135.289 11.4138 135.947 11.4138C136.605 11.4138 137 11.0333 137 10.3992C137 9.76514 136.474 9.38468 135.947 9.38468Z" fill="#CDC6BD"/>
<path d="M1.05283 20.6717C1.6343 20.6717 2.10567 20.2174 2.10567 19.6571C2.10567 19.0968 1.6343 18.6425 1.05283 18.6425C0.47137 18.6425 0 19.0968 0 19.6571C0 20.2174 0.47137 20.6717 1.05283 20.6717Z" fill="#CDC6BD"/>
<path d="M12.2392 20.6717C12.8207 20.6717 13.292 20.2174 13.292 19.6571C13.292 19.0968 12.8207 18.6425 12.2392 18.6425C11.6577 18.6425 11.1864 19.0968 11.1864 19.6571C11.1864 20.2174 11.6577 20.6717 12.2392 20.6717Z" fill="#CDC6BD"/>
<path d="M23.5572 20.6717C24.1386 20.6717 24.61 20.2174 24.61 19.6571C24.61 19.0968 24.1386 18.6425 23.5572 18.6425C22.9757 18.6425 22.5043 19.0968 22.5043 19.6571C22.5043 20.2174 22.9757 20.6717 23.5572 20.6717Z" fill="#CDC6BD"/>
<path d="M34.7435 20.6717C35.325 20.6717 35.7964 20.2174 35.7964 19.6571C35.7964 19.0968 35.325 18.6425 34.7435 18.6425C34.1621 18.6425 33.6907 19.0968 33.6907 19.6571C33.6907 20.2174 34.1621 20.6717 34.7435 20.6717Z" fill="#CDC6BD"/>
<path d="M46.0615 20.6717C46.6429 20.6717 47.1143 20.2174 47.1143 19.6571C47.1143 19.0968 46.6429 18.6425 46.0615 18.6425C45.48 18.6425 45.0086 19.0968 45.0086 19.6571C45.0086 20.2174 45.48 20.6717 46.0615 20.6717Z" fill="#CDC6BD"/>
<path d="M57.2478 20.6717C57.8293 20.6717 58.3007 20.2174 58.3007 19.6571C58.3007 19.0968 57.8293 18.6425 57.2478 18.6425C56.6664 18.6425 56.195 19.0968 56.195 19.6571C56.195 20.2174 56.6664 20.6717 57.2478 20.6717Z" fill="#CDC6BD"/>
<path d="M68.4342 20.6717C69.0157 20.6717 69.487 20.2174 69.487 19.6571C69.487 19.0968 69.0157 18.6425 68.4342 18.6425C67.8527 18.6425 67.3814 19.0968 67.3814 19.6571C67.3814 20.2174 67.8527 20.6717 68.4342 20.6717Z" fill="#CDC6BD"/>
<path d="M79.7522 20.6717C80.3336 20.6717 80.805 20.2174 80.805 19.6571C80.805 19.0968 80.3336 18.6425 79.7522 18.6425C79.1707 18.6425 78.6993 19.0968 78.6993 19.6571C78.6993 20.2174 79.1707 20.6717 79.7522 20.6717Z" fill="#CDC6BD"/>
<path d="M90.9385 20.6717C91.52 20.6717 91.9914 20.2174 91.9914 19.6571C91.9914 19.0968 91.52 18.6425 90.9385 18.6425C90.3571 18.6425 89.8857 19.0968 89.8857 19.6571C89.8857 20.2174 90.3571 20.6717 90.9385 20.6717Z" fill="#CDC6BD"/>
<path d="M102.256 20.6717C102.838 20.6717 103.309 20.2174 103.309 19.6571C103.309 19.0968 102.838 18.6425 102.256 18.6425C101.675 18.6425 101.204 19.0968 101.204 19.6571C101.204 20.2174 101.675 20.6717 102.256 20.6717Z" fill="#CDC6BD"/>
<path d="M113.443 20.6717C114.024 20.6717 114.496 20.2174 114.496 19.6571C114.496 19.0968 114.024 18.6425 113.443 18.6425C112.861 18.6425 112.39 19.0968 112.39 19.6571C112.39 20.2174 112.861 20.6717 113.443 20.6717Z" fill="#CDC6BD"/>
<path d="M124.761 20.6717C125.342 20.6717 125.814 20.2174 125.814 19.6571C125.814 19.0968 125.342 18.6425 124.761 18.6425C124.179 18.6425 123.708 19.0968 123.708 19.6571C123.708 20.2174 124.179 20.6717 124.761 20.6717Z" fill="#CDC6BD"/>
<path d="M135.947 18.7694C135.421 18.7694 134.894 19.1498 134.894 19.7839C134.894 20.418 135.289 20.7985 135.947 20.7985C136.605 20.7985 137 20.418 137 19.7839C137 19.1498 136.474 18.7694 135.947 18.7694Z" fill="#CDC6BD"/>
<path d="M1.05283 30.0563C1.6343 30.0563 2.10567 29.6021 2.10567 29.0418C2.10567 28.4814 1.6343 28.0272 1.05283 28.0272C0.47137 28.0272 0 28.4814 0 29.0418C0 29.6021 0.47137 30.0563 1.05283 30.0563Z" fill="#CDC6BD"/>
<path d="M12.2392 30.0563C12.8207 30.0563 13.292 29.6021 13.292 29.0418C13.292 28.4814 12.8207 28.0272 12.2392 28.0272C11.6577 28.0272 11.1864 28.4814 11.1864 29.0418C11.1864 29.6021 11.6577 30.0563 12.2392 30.0563Z" fill="#CDC6BD"/>
<path d="M23.5572 30.0563C24.1386 30.0563 24.61 29.6021 24.61 29.0418C24.61 28.4814 24.1386 28.0272 23.5572 28.0272C22.9757 28.0272 22.5043 28.4814 22.5043 29.0418C22.5043 29.6021 22.9757 30.0563 23.5572 30.0563Z" fill="#CDC6BD"/>
<path d="M34.7435 30.0563C35.325 30.0563 35.7964 29.6021 35.7964 29.0418C35.7964 28.4814 35.325 28.0272 34.7435 28.0272C34.1621 28.0272 33.6907 28.4814 33.6907 29.0418C33.6907 29.6021 34.1621 30.0563 34.7435 30.0563Z" fill="#CDC6BD"/>
<path d="M46.0615 30.0563C46.6429 30.0563 47.1143 29.6021 47.1143 29.0418C47.1143 28.4814 46.6429 28.0272 46.0615 28.0272C45.48 28.0272 45.0086 28.4814 45.0086 29.0418C45.0086 29.6021 45.48 30.0563 46.0615 30.0563Z" fill="#CDC6BD"/>
<path d="M57.2478 30.0563C57.8293 30.0563 58.3007 29.6021 58.3007 29.0418C58.3007 28.4814 57.8293 28.0272 57.2478 28.0272C56.6664 28.0272 56.195 28.4814 56.195 29.0418C56.195 29.6021 56.6664 30.0563 57.2478 30.0563Z" fill="#CDC6BD"/>
<path d="M68.4342 30.0563C69.0157 30.0563 69.487 29.6021 69.487 29.0418C69.487 28.4814 69.0157 28.0272 68.4342 28.0272C67.8527 28.0272 67.3814 28.4814 67.3814 29.0418C67.3814 29.6021 67.8527 30.0563 68.4342 30.0563Z" fill="#CDC6BD"/>
<path d="M79.7522 30.0563C80.3336 30.0563 80.805 29.6021 80.805 29.0418C80.805 28.4814 80.3336 28.0272 79.7522 28.0272C79.1707 28.0272 78.6993 28.4814 78.6993 29.0418C78.6993 29.6021 79.1707 30.0563 79.7522 30.0563Z" fill="#CDC6BD"/>
<path d="M90.9385 30.0563C91.52 30.0563 91.9914 29.6021 91.9914 29.0418C91.9914 28.4814 91.52 28.0272 90.9385 28.0272C90.3571 28.0272 89.8857 28.4814 89.8857 29.0418C89.8857 29.6021 90.3571 30.0563 90.9385 30.0563Z" fill="#CDC6BD"/>
<path d="M102.256 30.0563C102.838 30.0563 103.309 29.6021 103.309 29.0418C103.309 28.4814 102.838 28.0272 102.256 28.0272C101.675 28.0272 101.204 28.4814 101.204 29.0418C101.204 29.6021 101.675 30.0563 102.256 30.0563Z" fill="#CDC6BD"/>
<path d="M113.443 30.0563C114.024 30.0563 114.496 29.6021 114.496 29.0418C114.496 28.4814 114.024 28.0272 113.443 28.0272C112.861 28.0272 112.39 28.4814 112.39 29.0418C112.39 29.6021 112.861 30.0563 113.443 30.0563Z" fill="#CDC6BD"/>
<path d="M124.761 30.0563C125.342 30.0563 125.814 29.6021 125.814 29.0418C125.814 28.4814 125.342 28.0272 124.761 28.0272C124.179 28.0272 123.708 28.4814 123.708 29.0418C123.708 29.6021 124.179 30.0563 124.761 30.0563Z" fill="#CDC6BD"/>
<path d="M135.947 28.0272C135.421 28.0272 134.894 28.4077 134.894 29.0418C134.894 29.5491 135.289 30.0563 135.947 30.0563C136.605 30.0563 137 29.6759 137 29.0418C137 28.5345 136.474 28.0272 135.947 28.0272Z" fill="#CDC6BD"/>
<path d="M1.05283 37.4119C0.526417 37.4119 0 37.7924 0 38.4265C0 38.9337 0.394813 39.441 1.05283 39.441C1.71086 39.441 2.10567 39.0606 2.10567 38.4265C2.10567 37.9192 1.57925 37.4119 1.05283 37.4119Z" fill="#CDC6BD"/>
<path d="M12.2392 37.4119C11.7128 37.4119 11.1864 37.7924 11.1864 38.4265C11.1864 38.9337 11.5812 39.441 12.2392 39.441C12.8972 39.441 13.292 39.0606 13.292 38.4265C13.292 37.9192 12.8972 37.4119 12.2392 37.4119Z" fill="#CDC6BD"/>
<path d="M23.5572 37.4119C23.0307 37.4119 22.5043 37.7924 22.5043 38.4265C22.5043 38.9337 22.8991 39.441 23.5572 39.441C24.0836 39.441 24.61 39.0606 24.61 38.4265C24.4784 37.9192 24.0836 37.4119 23.5572 37.4119Z" fill="#CDC6BD"/>
<path d="M34.7435 37.4119C34.2171 37.4119 33.6907 37.7924 33.6907 38.4265C33.6907 38.9337 34.0855 39.441 34.7435 39.441C35.2699 39.441 35.7964 39.0606 35.7964 38.4265C35.7964 37.9192 35.2699 37.4119 34.7435 37.4119Z" fill="#CDC6BD"/>
<path d="M46.0615 37.4119C45.5351 37.4119 45.0086 37.7924 45.0086 38.4265C45.0086 38.9337 45.4035 39.441 46.0615 39.441C46.5879 39.441 47.1143 39.0606 47.1143 38.4265C46.9827 37.9192 46.5879 37.4119 46.0615 37.4119Z" fill="#CDC6BD"/>
<path d="M57.2478 37.4119C56.7214 37.4119 56.195 37.7924 56.195 38.4265C56.195 38.9337 56.5898 39.441 57.2478 39.441C57.9059 39.441 58.3007 39.0606 58.3007 38.4265C58.3007 37.9192 57.7743 37.4119 57.2478 37.4119Z" fill="#CDC6BD"/>
<path d="M68.4342 37.4119C67.9078 37.4119 67.3814 37.7924 67.3814 38.4265C67.3814 38.9337 67.7762 39.441 68.4342 39.441C68.9606 39.441 69.487 39.0606 69.487 38.4265C69.487 37.9192 69.0922 37.4119 68.4342 37.4119Z" fill="#CDC6BD"/>
<path d="M79.7522 37.4119C79.2257 37.4119 78.6993 37.7924 78.6993 38.4265C78.6993 38.9337 79.0941 39.441 79.7522 39.441C80.4102 39.441 80.805 39.0606 80.805 38.4265C80.805 37.9192 80.2786 37.4119 79.7522 37.4119Z" fill="#CDC6BD"/>
<path d="M90.9385 37.4119C90.4121 37.4119 89.8857 37.7924 89.8857 38.4265C89.8857 38.9337 90.2805 39.441 90.9385 39.441C91.5965 39.441 91.9914 39.0606 91.9914 38.4265C91.9914 37.9192 91.5965 37.4119 90.9385 37.4119Z" fill="#CDC6BD"/>
<path d="M102.256 37.4119C101.73 37.4119 101.204 37.7924 101.204 38.4265C101.204 38.9337 101.598 39.441 102.256 39.441C102.783 39.441 103.309 39.0606 103.309 38.4265C103.309 37.9192 102.783 37.4119 102.256 37.4119Z" fill="#CDC6BD"/>
<path d="M113.443 37.4119C112.916 37.4119 112.39 37.7924 112.39 38.4265C112.39 38.9337 112.785 39.441 113.443 39.441C114.101 39.441 114.496 39.0606 114.496 38.4265C114.496 37.9192 114.101 37.4119 113.443 37.4119Z" fill="#CDC6BD"/>
<path d="M124.761 37.4119C124.234 37.4119 123.708 37.7924 123.708 38.4265C123.708 38.9337 124.103 39.441 124.761 39.441C125.419 39.441 125.814 39.0606 125.814 38.4265C125.682 37.9192 125.287 37.4119 124.761 37.4119Z" fill="#CDC6BD"/>
<path d="M135.947 37.4119C135.421 37.4119 134.894 37.7924 134.894 38.4265C134.894 38.9337 135.289 39.441 135.947 39.441C136.605 39.441 137 39.0606 137 38.4265C137 37.9192 136.474 37.4119 135.947 37.4119Z" fill="#CDC6BD"/>
<path d="M1.05283 46.7966C0.526417 46.7966 0 47.177 0 47.8111C0 48.4452 0.394813 48.8257 1.05283 48.8257C1.71086 48.8257 2.10567 48.4452 2.10567 47.8111C2.10567 47.177 1.57925 46.7966 1.05283 46.7966Z" fill="#CDC6BD"/>
<path d="M12.2392 46.7966C11.7128 46.7966 11.1864 47.177 11.1864 47.8111C11.1864 48.4452 11.5812 48.8257 12.2392 48.8257C12.8972 48.8257 13.292 48.4452 13.292 47.8111C13.292 47.177 12.8972 46.7966 12.2392 46.7966Z" fill="#CDC6BD"/>
<path d="M23.5572 46.7966C23.0307 46.7966 22.5043 47.177 22.5043 47.8111C22.5043 48.4452 22.8991 48.8257 23.5572 48.8257C24.0836 48.8257 24.61 48.4452 24.61 47.8111C24.61 47.177 24.0836 46.7966 23.5572 46.7966Z" fill="#CDC6BD"/>
<path d="M34.7435 46.7966C34.2171 46.7966 33.6907 47.177 33.6907 47.8111C33.6907 48.4452 34.0855 48.8257 34.7435 48.8257C35.2699 48.8257 35.7964 48.4452 35.7964 47.8111C35.7964 47.177 35.2699 46.7966 34.7435 46.7966Z" fill="#CDC6BD"/>
<path d="M46.0615 46.7966C45.5351 46.7966 45.0086 47.177 45.0086 47.8111C45.0086 48.4452 45.4035 48.8257 46.0615 48.8257C46.5879 48.8257 47.1143 48.4452 47.1143 47.8111C47.1143 47.177 46.5879 46.7966 46.0615 46.7966Z" fill="#CDC6BD"/>
<path d="M57.2478 46.7966C56.7214 46.7966 56.195 47.177 56.195 47.8111C56.195 48.4452 56.5898 48.8257 57.2478 48.8257C57.9059 48.8257 58.3007 48.4452 58.3007 47.8111C58.3007 47.177 57.7743 46.7966 57.2478 46.7966Z" fill="#CDC6BD"/>
<path d="M68.4342 46.7966C67.9078 46.7966 67.3814 47.177 67.3814 47.8111C67.3814 48.4452 67.7762 48.8257 68.4342 48.8257C68.9606 48.8257 69.487 48.4452 69.487 47.8111C69.487 47.177 69.0922 46.7966 68.4342 46.7966Z" fill="#CDC6BD"/>
<path d="M79.7522 46.7966C79.2257 46.7966 78.6993 47.177 78.6993 47.8111C78.6993 48.4452 79.0941 48.8257 79.7522 48.8257C80.4102 48.8257 80.805 48.4452 80.805 47.8111C80.805 47.177 80.2786 46.7966 79.7522 46.7966Z" fill="#CDC6BD"/>
<path d="M90.9385 46.7966C90.4121 46.7966 89.8857 47.177 89.8857 47.8111C89.8857 48.4452 90.2805 48.8257 90.9385 48.8257C91.5965 48.8257 91.9914 48.4452 91.9914 47.8111C91.9914 47.177 91.5965 46.7966 90.9385 46.7966Z" fill="#CDC6BD"/>
<path d="M102.256 46.7966C101.73 46.7966 101.204 47.177 101.204 47.8111C101.204 48.4452 101.598 48.8257 102.256 48.8257C102.783 48.8257 103.309 48.4452 103.309 47.8111C103.309 47.177 102.783 46.7966 102.256 46.7966Z" fill="#CDC6BD"/>
<path d="M113.443 46.7966C112.916 46.7966 112.39 47.177 112.39 47.8111C112.39 48.4452 112.785 48.8257 113.443 48.8257C114.101 48.8257 114.496 48.4452 114.496 47.8111C114.496 47.177 114.101 46.7966 113.443 46.7966Z" fill="#CDC6BD"/>
<path d="M124.761 46.7966C124.234 46.7966 123.708 47.177 123.708 47.8111C123.708 48.4452 124.103 48.8257 124.761 48.8257C125.419 48.8257 125.814 48.4452 125.814 47.8111C125.814 47.177 125.287 46.7966 124.761 46.7966Z" fill="#CDC6BD"/>
<path d="M135.947 46.7966C135.421 46.7966 134.894 47.177 134.894 47.8111C134.894 48.4452 135.289 48.8257 135.947 48.8257C136.605 48.8257 137 48.4452 137 47.8111C137 47.177 136.474 46.7966 135.947 46.7966Z" fill="#CDC6BD"/>
<path d="M1.05283 58.2104C1.6343 58.2104 2.10567 57.7561 2.10567 57.1958C2.10567 56.6355 1.6343 56.1813 1.05283 56.1813C0.47137 56.1813 0 56.6355 0 57.1958C0 57.7561 0.47137 58.2104 1.05283 58.2104Z" fill="#CDC6BD"/>
<path d="M12.2392 58.2104C12.8207 58.2104 13.292 57.7561 13.292 57.1958C13.292 56.6355 12.8207 56.1813 12.2392 56.1813C11.6577 56.1813 11.1864 56.6355 11.1864 57.1958C11.1864 57.7561 11.6577 58.2104 12.2392 58.2104Z" fill="#CDC6BD"/>
<path d="M23.5572 58.2104C24.1386 58.2104 24.61 57.7561 24.61 57.1958C24.61 56.6355 24.1386 56.1813 23.5572 56.1813C22.9757 56.1813 22.5043 56.6355 22.5043 57.1958C22.5043 57.7561 22.9757 58.2104 23.5572 58.2104Z" fill="#CDC6BD"/>
<path d="M34.7435 58.2104C35.325 58.2104 35.7964 57.7561 35.7964 57.1958C35.7964 56.6355 35.325 56.1813 34.7435 56.1813C34.1621 56.1813 33.6907 56.6355 33.6907 57.1958C33.6907 57.7561 34.1621 58.2104 34.7435 58.2104Z" fill="#CDC6BD"/>
<path d="M46.0615 58.2104C46.6429 58.2104 47.1143 57.7561 47.1143 57.1958C47.1143 56.6355 46.6429 56.1813 46.0615 56.1813C45.48 56.1813 45.0086 56.6355 45.0086 57.1958C45.0086 57.7561 45.48 58.2104 46.0615 58.2104Z" fill="#CDC6BD"/>
<path d="M57.2478 58.2104C57.8293 58.2104 58.3007 57.7561 58.3007 57.1958C58.3007 56.6355 57.8293 56.1813 57.2478 56.1813C56.6664 56.1813 56.195 56.6355 56.195 57.1958C56.195 57.7561 56.6664 58.2104 57.2478 58.2104Z" fill="#CDC6BD"/>
<path d="M68.4342 58.2104C69.0157 58.2104 69.487 57.7561 69.487 57.1958C69.487 56.6355 69.0157 56.1813 68.4342 56.1813C67.8527 56.1813 67.3814 56.6355 67.3814 57.1958C67.3814 57.7561 67.8527 58.2104 68.4342 58.2104Z" fill="#CDC6BD"/>
<path d="M79.7522 58.2104C80.3336 58.2104 80.805 57.7561 80.805 57.1958C80.805 56.6355 80.3336 56.1813 79.7522 56.1813C79.1707 56.1813 78.6993 56.6355 78.6993 57.1958C78.6993 57.7561 79.1707 58.2104 79.7522 58.2104Z" fill="#CDC6BD"/>
<path d="M90.9385 58.2104C91.52 58.2104 91.9914 57.7561 91.9914 57.1958C91.9914 56.6355 91.52 56.1813 90.9385 56.1813C90.3571 56.1813 89.8857 56.6355 89.8857 57.1958C89.8857 57.7561 90.3571 58.2104 90.9385 58.2104Z" fill="#CDC6BD"/>
<path d="M102.256 58.2104C102.838 58.2104 103.309 57.7561 103.309 57.1958C103.309 56.6355 102.838 56.1813 102.256 56.1813C101.675 56.1813 101.204 56.6355 101.204 57.1958C101.204 57.7561 101.675 58.2104 102.256 58.2104Z" fill="#CDC6BD"/>
<path d="M113.443 58.2104C114.024 58.2104 114.496 57.7561 114.496 57.1958C114.496 56.6355 114.024 56.1813 113.443 56.1813C112.861 56.1813 112.39 56.6355 112.39 57.1958C112.39 57.7561 112.861 58.2104 113.443 58.2104Z" fill="#CDC6BD"/>
<path d="M124.761 58.2104C125.342 58.2104 125.814 57.7561 125.814 57.1958C125.814 56.6355 125.342 56.1813 124.761 56.1813C124.179 56.1813 123.708 56.6355 123.708 57.1958C123.708 57.7561 124.179 58.2104 124.761 58.2104Z" fill="#CDC6BD"/>
<path d="M135.947 56.1813C135.421 56.1813 134.894 56.5617 134.894 57.1958C134.894 57.7031 135.289 58.2104 135.947 58.2104C136.605 58.2104 137 57.8299 137 57.1958C137 56.5617 136.474 56.1813 135.947 56.1813Z" fill="#CDC6BD"/>
<path d="M1.05283 67.4682C1.6343 67.4682 2.10567 67.014 2.10567 66.4537C2.10567 65.8933 1.6343 65.4391 1.05283 65.4391C0.47137 65.4391 0 65.8933 0 66.4537C0 67.014 0.47137 67.4682 1.05283 67.4682Z" fill="#CDC6BD"/>
<path d="M12.2392 67.4682C12.8207 67.4682 13.292 67.014 13.292 66.4537C13.292 65.8933 12.8207 65.4391 12.2392 65.4391C11.6577 65.4391 11.1864 65.8933 11.1864 66.4537C11.1864 67.014 11.6577 67.4682 12.2392 67.4682Z" fill="#CDC6BD"/>
<path d="M23.5572 67.4682C24.1386 67.4682 24.61 67.014 24.61 66.4537C24.61 65.8933 24.1386 65.4391 23.5572 65.4391C22.9757 65.4391 22.5043 65.8933 22.5043 66.4537C22.5043 67.014 22.9757 67.4682 23.5572 67.4682Z" fill="#CDC6BD"/>
<path d="M34.7435 67.4682C35.325 67.4682 35.7964 67.014 35.7964 66.4537C35.7964 65.8933 35.325 65.4391 34.7435 65.4391C34.1621 65.4391 33.6907 65.8933 33.6907 66.4537C33.6907 67.014 34.1621 67.4682 34.7435 67.4682Z" fill="#CDC6BD"/>
<path d="M46.0615 67.4682C46.6429 67.4682 47.1143 67.014 47.1143 66.4537C47.1143 65.8933 46.6429 65.4391 46.0615 65.4391C45.48 65.4391 45.0086 65.8933 45.0086 66.4537C45.0086 67.014 45.48 67.4682 46.0615 67.4682Z" fill="#CDC6BD"/>
<path d="M57.2478 67.4682C57.8293 67.4682 58.3007 67.014 58.3007 66.4537C58.3007 65.8933 57.8293 65.4391 57.2478 65.4391C56.6664 65.4391 56.195 65.8933 56.195 66.4537C56.195 67.014 56.6664 67.4682 57.2478 67.4682Z" fill="#CDC6BD"/>
<path d="M68.4342 67.4682C69.0157 67.4682 69.487 67.014 69.487 66.4537C69.487 65.8933 69.0157 65.4391 68.4342 65.4391C67.8527 65.4391 67.3814 65.8933 67.3814 66.4537C67.3814 67.014 67.8527 67.4682 68.4342 67.4682Z" fill="#CDC6BD"/>
<path d="M79.7522 67.4682C80.3336 67.4682 80.805 67.014 80.805 66.4537C80.805 65.8933 80.3336 65.4391 79.7522 65.4391C79.1707 65.4391 78.6993 65.8933 78.6993 66.4537C78.6993 67.014 79.1707 67.4682 79.7522 67.4682Z" fill="#CDC6BD"/>
<path d="M90.9385 67.4682C91.52 67.4682 91.9914 67.014 91.9914 66.4537C91.9914 65.8933 91.52 65.4391 90.9385 65.4391C90.3571 65.4391 89.8857 65.8933 89.8857 66.4537C89.8857 67.014 90.3571 67.4682 90.9385 67.4682Z" fill="#CDC6BD"/>
<path d="M102.256 67.4682C102.838 67.4682 103.309 67.014 103.309 66.4537C103.309 65.8933 102.838 65.4391 102.256 65.4391C101.675 65.4391 101.204 65.8933 101.204 66.4537C101.204 67.014 101.675 67.4682 102.256 67.4682Z" fill="#CDC6BD"/>
<path d="M113.443 67.4682C114.024 67.4682 114.496 67.014 114.496 66.4537C114.496 65.8933 114.024 65.4391 113.443 65.4391C112.861 65.4391 112.39 65.8933 112.39 66.4537C112.39 67.014 112.861 67.4682 113.443 67.4682Z" fill="#CDC6BD"/>
<path d="M124.761 67.4682C125.342 67.4682 125.814 67.014 125.814 66.4537C125.814 65.8933 125.342 65.4391 124.761 65.4391C124.179 65.4391 123.708 65.8933 123.708 66.4537C123.708 67.014 124.179 67.4682 124.761 67.4682Z" fill="#CDC6BD"/>
<path d="M135.947 65.5659C135.421 65.5659 134.894 65.9464 134.894 66.5805C134.894 67.0878 135.289 67.595 135.947 67.595C136.605 67.595 137 67.2146 137 66.5805C137 65.9464 136.474 65.5659 135.947 65.5659Z" fill="#CDC6BD"/>
<path d="M1.05283 76.8529C1.6343 76.8529 2.10567 76.3987 2.10567 75.8383C2.10567 75.278 1.6343 74.8238 1.05283 74.8238C0.47137 74.8238 0 75.278 0 75.8383C0 76.3987 0.47137 76.8529 1.05283 76.8529Z" fill="#CDC6BD"/>
<path d="M12.2392 76.8529C12.8207 76.8529 13.292 76.3987 13.292 75.8383C13.292 75.278 12.8207 74.8238 12.2392 74.8238C11.6577 74.8238 11.1864 75.278 11.1864 75.8383C11.1864 76.3987 11.6577 76.8529 12.2392 76.8529Z" fill="#CDC6BD"/>
<path d="M23.5572 76.8529C24.1386 76.8529 24.61 76.3987 24.61 75.8383C24.61 75.278 24.1386 74.8238 23.5572 74.8238C22.9757 74.8238 22.5043 75.278 22.5043 75.8383C22.5043 76.3987 22.9757 76.8529 23.5572 76.8529Z" fill="#CDC6BD"/>
<path d="M34.7435 76.8529C35.325 76.8529 35.7964 76.3987 35.7964 75.8383C35.7964 75.278 35.325 74.8238 34.7435 74.8238C34.1621 74.8238 33.6907 75.278 33.6907 75.8383C33.6907 76.3987 34.1621 76.8529 34.7435 76.8529Z" fill="#CDC6BD"/>
<path d="M46.0615 76.8529C46.6429 76.8529 47.1143 76.3987 47.1143 75.8383C47.1143 75.278 46.6429 74.8238 46.0615 74.8238C45.48 74.8238 45.0086 75.278 45.0086 75.8383C45.0086 76.3987 45.48 76.8529 46.0615 76.8529Z" fill="#CDC6BD"/>
<path d="M57.2478 76.8529C57.8293 76.8529 58.3007 76.3987 58.3007 75.8383C58.3007 75.278 57.8293 74.8238 57.2478 74.8238C56.6664 74.8238 56.195 75.278 56.195 75.8383C56.195 76.3987 56.6664 76.8529 57.2478 76.8529Z" fill="#CDC6BD"/>
<path d="M68.4342 76.8529C69.0157 76.8529 69.487 76.3987 69.487 75.8383C69.487 75.278 69.0157 74.8238 68.4342 74.8238C67.8527 74.8238 67.3814 75.278 67.3814 75.8383C67.3814 76.3987 67.8527 76.8529 68.4342 76.8529Z" fill="#CDC6BD"/>
<path d="M79.7522 76.8529C80.3336 76.8529 80.805 76.3987 80.805 75.8383C80.805 75.278 80.3336 74.8238 79.7522 74.8238C79.1707 74.8238 78.6993 75.278 78.6993 75.8383C78.6993 76.3987 79.1707 76.8529 79.7522 76.8529Z" fill="#CDC6BD"/>
<path d="M90.9385 76.8529C91.52 76.8529 91.9914 76.3987 91.9914 75.8383C91.9914 75.278 91.52 74.8238 90.9385 74.8238C90.3571 74.8238 89.8857 75.278 89.8857 75.8383C89.8857 76.3987 90.3571 76.8529 90.9385 76.8529Z" fill="#CDC6BD"/>
<path d="M102.256 76.8529C102.838 76.8529 103.309 76.3987 103.309 75.8383C103.309 75.278 102.838 74.8238 102.256 74.8238C101.675 74.8238 101.204 75.278 101.204 75.8383C101.204 76.3987 101.675 76.8529 102.256 76.8529Z" fill="#CDC6BD"/>
<path d="M113.443 76.8529C114.024 76.8529 114.496 76.3987 114.496 75.8383C114.496 75.278 114.024 74.8238 113.443 74.8238C112.861 74.8238 112.39 75.278 112.39 75.8383C112.39 76.3987 112.861 76.8529 113.443 76.8529Z" fill="#CDC6BD"/>
<path d="M124.761 76.8529C125.342 76.8529 125.814 76.3987 125.814 75.8383C125.814 75.278 125.342 74.8238 124.761 74.8238C124.179 74.8238 123.708 75.278 123.708 75.8383C123.708 76.3987 124.179 76.8529 124.761 76.8529Z" fill="#CDC6BD"/>
<path d="M135.947 74.8238C135.421 74.8238 134.894 75.2042 134.894 75.8383C134.894 76.4725 135.289 76.8529 135.947 76.8529C136.605 76.8529 137 76.4725 137 75.8383C137 75.2042 136.474 74.8238 135.947 74.8238Z" fill="#CDC6BD"/>
</g>
<circle opacity="0.14" cx="145" cy="92" r="50" stroke="#AFCA0B" stroke-width="40"/>
</svg>
