<svg width="40" height="44" viewBox="0 0 40 44" fill="none" xmlns="http://www.w3.org/2000/svg">
<path d="M19.9966 23.0381C17.7148 23.0381 15.8583 21.1816 15.8583 18.8998C15.8583 16.6181 17.7148 14.7697 19.9966 14.7697C22.2784 14.7697 24.1349 16.6262 24.1349 18.8998C24.1349 21.1734 22.2784 23.0381 19.9966 23.0381ZM19.9966 16.8143C18.8434 16.8143 17.9029 17.7549 17.9029 18.8998C17.9029 20.0448 18.8434 20.9935 19.9966 20.9935C21.1497 20.9935 22.0903 20.053 22.0903 18.8998C22.0903 17.7467 21.1497 16.8143 19.9966 16.8143Z" fill="#E7BD1E"/>
<path d="M4.24422 19.0808C1.96245 19.0808 0.105957 17.2243 0.105957 14.9426C0.105957 12.6608 1.96245 10.8125 4.24422 10.8125C6.52598 10.8125 8.38247 12.669 8.38247 14.9426C8.38247 17.2162 6.52598 19.0808 4.24422 19.0808ZM4.24422 12.8571C3.09106 12.8571 2.15055 13.7976 2.15055 14.9426C2.15055 16.0876 3.09106 17.0362 4.24422 17.0362C5.39737 17.0362 6.33788 16.0957 6.33788 14.9426C6.33788 13.7894 5.39737 12.8571 4.24422 12.8571Z" fill="#E7BD1E"/>
<path d="M19.9966 8.26834C17.7148 8.26834 15.8583 6.41185 15.8583 4.13008C15.8583 1.84831 17.723 0 19.9966 0C22.2702 0 24.1349 1.85649 24.1349 4.13008C24.1349 6.40367 22.2784 8.26834 19.9966 8.26834ZM19.9966 2.04459C18.8434 2.04459 17.9029 2.98511 17.9029 4.13008C17.9029 5.27505 18.8434 6.22375 19.9966 6.22375C21.1497 6.22375 22.0903 5.28323 22.0903 4.13008C22.0903 2.97693 21.1497 2.04459 19.9966 2.04459Z" fill="#E7BD1E"/>
<path d="M19.9966 26.0816C16.4799 26.0816 11.123 24.5114 8.24423 21.878L9.62638 20.3731C12.0226 22.5649 16.9215 24.0371 19.9966 24.0371V26.0816Z" fill="#E7BD1E"/>
<path d="M19.9964 26.0816V24.0371C23.0715 24.0371 27.9703 22.5649 30.3666 20.3731L31.7487 21.878C28.8781 24.5032 23.5213 26.0816 19.9964 26.0816Z" fill="#E7BD1E"/>
<path d="M16.5451 43.9089L14.6723 43.0828C18.8105 33.735 17.3548 29.1305 13.6827 24.7224L15.2529 23.4138C19.3176 28.28 21.0923 33.6286 16.5451 43.9089Z" fill="#E7BD1E"/>
<path d="M23.4561 43.9089C18.9089 33.6286 20.6836 28.28 24.7483 23.4138L26.3185 24.7224C22.6382 29.1224 21.1907 33.735 25.3289 43.0828L23.4561 43.9089Z" fill="#E7BD1E"/>
<path d="M1.7011 40.5075L0 39.3789C6.4691 29.6303 4.09737 25.3694 0.597021 21.1739L2.16727 19.8653C5.89661 24.3389 8.93896 29.614 1.70928 40.5157L1.7011 40.5075Z" fill="#E7BD1E"/>
<path d="M13.3388 9.63473L12.5046 7.77006C14.7619 6.76412 17.3544 6.23253 19.996 6.23253V8.27712C17.6407 8.27712 15.3425 8.75147 13.3388 9.64291V9.63473Z" fill="#E7BD1E"/>
<path d="M7.09107 13.3962L5.64349 11.9486C6.69033 10.9018 8.15425 9.84679 10.1171 8.72635L11.1312 10.5011C9.32376 11.5315 7.99887 12.4802 7.08289 13.3962H7.09107Z" fill="#E7BD1E"/>
<path d="M35.7476 19.0808C33.4659 19.0808 31.6094 17.2243 31.6094 14.9426C31.6094 12.6608 33.4659 10.8125 35.7476 10.8125C38.0294 10.8125 39.8859 12.669 39.8859 14.9426C39.8859 17.2162 38.0294 19.0808 35.7476 19.0808ZM35.7476 12.8571C34.5945 12.8571 33.654 13.7976 33.654 14.9426C33.654 16.0876 34.5945 17.0362 35.7476 17.0362C36.9008 17.0362 37.8413 16.0957 37.8413 14.9426C37.8413 13.7894 36.9008 12.8571 35.7476 12.8571Z" fill="#E7BD1E"/>
<path d="M38.2907 40.5078C31.061 29.606 34.0952 24.331 37.8327 19.8574L39.4029 21.166C35.9026 25.3615 33.5309 29.6224 40 39.371L38.2989 40.4996L38.2907 40.5078Z" fill="#E7BD1E"/>
<path d="M26.6538 9.63499C24.6583 8.74355 22.352 8.2692 19.9966 8.2692V6.22461C22.6382 6.22461 25.2307 6.7562 27.488 7.76214L26.6538 9.62681V9.63499Z" fill="#E7BD1E"/>
<path d="M32.9011 13.3962C31.9851 12.4802 30.6602 11.5315 28.8528 10.5011L29.8669 8.72635C31.8297 9.85496 33.2936 10.91 34.3405 11.9486L32.8929 13.3962H32.9011Z" fill="#E7BD1E"/>
<path d="M7.72038 40.9978H5.67578C5.67578 36.009 6.75533 32.9503 7.62223 30.4968C8.64453 27.5935 9.38876 25.4998 7.96573 21.4679L9.89582 20.7891C11.556 25.508 10.6237 28.1332 9.54415 31.1838C8.68542 33.6128 7.7122 36.3689 7.7122 40.9978H7.72038Z" fill="#E7BD1E"/>
<path d="M34.3167 40.9978H32.2721C32.2721 36.3607 31.2989 33.6046 30.4402 31.1838C29.3606 28.1414 28.4365 25.508 30.0885 20.7891L32.0186 21.4679C30.5956 25.508 31.3398 27.6017 32.3621 30.4968C33.229 32.9503 34.3086 36.009 34.3086 40.9978H34.3167Z" fill="#E7BD1E"/>
<path d="M7.72885 40.5399L5.68426 40.5072C5.72515 37.383 5.25898 35.5184 4.80917 33.7191C4.41661 32.1407 4.04041 30.644 4.04041 28.5177H6.085C6.085 30.3905 6.41213 31.7072 6.79652 33.2202C7.25451 35.0604 7.77792 37.1377 7.72885 40.5317V40.5399Z" fill="#E7BD1E"/>
<path d="M32.2718 40.5404C32.2227 37.1464 32.7461 35.0691 33.2041 33.2289C33.5803 31.7078 33.9156 30.3992 33.9156 28.5264H35.9602C35.9602 30.6527 35.584 32.1494 35.1914 33.7278C34.7416 35.5271 34.2755 37.3917 34.3164 40.5159L32.2718 40.5486V40.5404Z" fill="#E7BD1E"/>
<path d="M22.1387 40.5815C21.2881 37.9644 20.4457 36.7213 19.9959 36.1979C19.5461 36.7213 18.7037 37.9644 17.8532 40.5815L15.9067 39.9518C17.0844 36.3288 18.7201 33.8916 19.9877 33.8916C21.2554 33.8916 22.8993 36.3288 24.0688 39.9518L22.1223 40.5815H22.1387Z" fill="#E7BD1E"/>
<path d="M17.1744 13.4935C17.0681 12.1522 16.5365 10.4675 15.5878 9.72327C15.138 9.3716 14.6228 9.24074 14.0094 9.33889L13.7068 7.31883C14.8845 7.1389 15.9722 7.41697 16.8637 8.12848C18.3849 9.33888 19.08 11.6125 19.219 13.3381L17.1826 13.5017L17.1744 13.4935Z" fill="#E7BD1E"/>
<path d="M22.8177 13.4937L20.7812 13.3302C20.9203 11.6045 21.6073 9.32276 23.1366 8.12053C24.0281 7.41719 25.1158 7.13913 26.2935 7.31087L25.9909 9.33093C25.3775 9.24097 24.8541 9.36365 24.4124 9.71532C23.4638 10.4677 22.9322 12.1525 22.8258 13.4855L22.8177 13.4937Z" fill="#E7BD1E"/>
</svg>
