<svg width="34" height="37" viewBox="0 0 34 37" fill="none" xmlns="http://www.w3.org/2000/svg">
<path d="M31.0481 36.2856H31.1981V36.1356V17.8818V17.7318H31.0481H29.4054H29.2554V17.8818V34.3429H4.74388V17.8818V17.7318H4.59388H2.95117H2.80117V17.8818V36.1356V36.2856H2.95117H31.0481Z" fill="#554894" stroke="#554894" stroke-width="0.3"/>
<path d="M33 16.3828H33.15V16.2328V10.2402V10.0902H33H1H0.85V10.2402V16.2328V16.3828H1H33ZM31.2073 14.4401H2.79271V12.0329H31.2073V14.4401Z" fill="#554894" stroke="#554894" stroke-width="0.3"/>
<path d="M19.9569 16.3828H20.1069V16.2328V10.2402V10.0902H19.9569H14.0366H13.8866V10.2402V16.2328V16.3828H14.0366H19.9569ZM18.1642 14.4401H15.8293V12.0329H18.1642V14.4401Z" fill="#554894" stroke="#554894" stroke-width="0.3"/>
<path d="M16.175 12.0657H16.1128C15.2353 12.0657 13.8641 11.9962 12.4245 11.6517C10.9861 11.3074 9.46788 10.6858 8.30806 9.57306C8.30803 9.57303 8.308 9.573 8.30797 9.57297L8.41182 9.46473L16.175 12.0657ZM16.175 12.0657L16.1817 12.0589L16.175 12.0657ZM13.775 3.84985L13.7752 3.85005C14.68 4.71342 15.2255 5.94491 15.549 7.15601C15.8501 8.28311 15.9554 9.37943 15.9841 10.1156C15.2413 10.1081 14.1436 10.0442 13.0089 9.78982C11.7903 9.51668 10.5442 9.02729 9.64576 8.16709C8.45692 7.02831 8.41337 5.13228 9.55176 3.94385C10.6905 2.75501 12.5866 2.71146 13.775 3.84985Z" fill="#554894" stroke="#554894" stroke-width="0.3"/>
<path d="M16.9617 12.0389L16.9617 12.0388L16.239 12.0126L16.1058 12.0077L16.0949 11.8749L16.0358 11.1527C16.0358 11.1526 16.0358 11.1525 16.0358 11.1524C16.0253 11.0292 15.9149 9.6001 16.1665 7.82436C16.4179 6.05093 17.0336 3.90799 18.4944 2.38291C19.3962 1.42044 20.6238 0.878186 21.9448 0.851085L16.9617 12.0389ZM16.9617 12.0389H16.9672M16.9617 12.0389H16.9672M16.9672 12.0389H16.9674M16.9672 12.0389H16.9674M22.203 2.79376H22.053H22.053H22.053H22.053H22.053H22.053H22.053H22.053H22.053H22.053H22.053H22.0529H22.0529H22.0529H22.0529H22.0529H22.0529H22.0528H22.0528H22.0528H22.0528H22.0528H22.0527H22.0527H22.0527H22.0527H22.0526H22.0526H22.0526H22.0525H22.0525H22.0525H22.0524H22.0524H22.0524H22.0523H22.0523H22.0523H22.0522H22.0522H22.0521H22.0521H22.0521H22.052H22.052H22.0519H22.0519H22.0518H22.0518H22.0517H22.0517H22.0516H22.0516H22.0515H22.0515H22.0514H22.0514H22.0513H22.0512H22.0512H22.0511H22.0511H22.051H22.0509H22.0509H22.0508H22.0507H22.0507H22.0506H22.0505H22.0505H22.0504H22.0503H22.0503H22.0502H22.0501H22.0501H22.05H22.0499H22.0498H22.0498H22.0497H22.0496H22.0495H22.0494H22.0494H22.0493H22.0492H22.0491H22.049H22.049H22.0489H22.0488H22.0487H22.0486H22.0485H22.0484H22.0483H22.0483H22.0482H22.0481H22.048H22.0479H22.0478H22.0477H22.0476H22.0475H22.0474H22.0473H22.0472H22.0471H22.047H22.0469H22.0468H22.0467H22.0466H22.0465H22.0464H22.0463H22.0462H22.0461H22.046H22.0459H22.0458H22.0457H22.0455H22.0454H22.0453H22.0452H22.0451H22.045H22.0449H22.0448H22.0446H22.0445H22.0444H22.0443H22.0442H22.0441H22.0439H22.0438H22.0437H22.0436H22.0435H22.0433H22.0432H22.0431H22.043H22.0428H22.0427H22.0426H22.0425H22.0423H22.0422H22.0421H22.0419H22.0418H22.0417H22.0416H22.0414H22.0413H22.0412H22.041H22.0409H22.0408H22.0406H22.0405H22.0404H22.0402H22.0401H22.0399H22.0398H22.0397H22.0395H22.0394H22.0393H22.0391H22.039H22.0388H22.0387H22.0385H22.0384H22.0383H22.0381H22.038H22.0378H22.0377H22.0375H22.0374H22.0372H22.0371H22.0369H22.0368H22.0366H22.0365H22.0363H22.0362H22.036H22.0359H22.0357H22.0356H22.0354H22.0353H22.0351H22.035H22.0348H22.0347H22.0345H22.0343H22.0342H22.034H22.0339H22.0337H22.0336H22.0334H22.0332H22.0331H22.0329H22.0328H22.0326H22.0324H22.0323H22.0321H22.032H22.0318H22.0316H22.0315H22.0313H22.0311H22.031H22.0308H22.0306H22.0305H22.0303H22.0301H22.03H22.0298H22.0296H22.0295H22.0293H22.0291H22.029H22.0288H22.0286H22.0285H22.0283H22.0281H22.0279H22.0278H22.0276H22.0274H22.0273H22.0271H22.0269H22.0267H22.0266H22.0264H22.0262H22.026H22.0259H22.0257H22.0255H22.0253H22.0252H22.025H22.0248H22.0246H22.0245H22.0243H22.0241H22.0239H22.0238H22.0236H22.0234H22.0232H22.023H22.0229H22.0227H22.0225H22.0223H22.0221H22.022H22.0218H22.0216H22.0214H22.0212H22.0211H22.0209H22.0207H22.0205H22.0203H22.0202H22.02H22.0198H22.0196H22.0194H22.0192H22.0191H22.0189H22.0187H22.0185H22.0183H22.0181H22.018H22.0178H22.0176H22.0174H22.0172H22.017H22.0168H22.0167H22.0165H22.0163H22.0161H22.0159H22.0157H22.0155H22.0154H22.0152H22.015H22.0148H22.0146H22.0144H22.0142H22.014H22.0139H22.0137H22.0135H22.0133H22.0131H22.0129H22.0127H22.0125H22.0124H22.0122H22.012H22.0118H22.0116H22.0114H22.0112H22.011H22.0109H22.0107H22.0105H22.0103H22.0101H22.0099H22.0097H22.0095H22.0093H22.0092H22.009H22.0088H22.0086H22.0084H22.0082H22.008H22.0078H22.0076H22.0075H22.0073H22.0071H22.0069H22.0067H22.0065H22.0063H22.0061H22.006H22.0058H22.0056H22.0054H22.0052H22.005H22.0048H22.0046H22.0044H22.0043H22.0041H22.0039H22.0037H22.0035H22.0033H22.0031H22.0029H22.0028H22.0026H22.0024H22.0022H22.002H22.0018H22.0016H22.0014H22.0013H22.0011H22.0009H22.0007H22.0005H22.0003H22.0001H22H21.9998H21.9996H21.9994H21.9992H21.999H21.9988H21.9987H21.9985H21.9983H21.9981H21.9979H21.9977H21.9975H21.9974H21.9972H21.997H21.9968H21.9966H21.9964H21.9963H21.9961H21.9959H21.9957H21.9955H21.9953H21.9952H21.995H21.9948H21.9946H21.9944H21.9943H21.9941H21.9939H21.9937H21.9935H21.9934H21.9932H21.993H21.9928H21.9926H21.9925H21.9923H21.9921H21.9919H21.9918H21.9916H21.9914H21.9912H21.991H21.9909H21.9907H21.9905H21.9903H21.9902H21.99H21.9898H21.9896H21.9895H21.9893H21.9891H21.989H21.9888H21.9886H21.9884H21.9883H21.9881H21.9879H21.9877H21.9876H21.9874H21.9872H21.9871H21.9869H21.9867H21.9866H21.9864H21.9862H21.9861H21.9859H21.9857H21.9856H21.9854H21.9852H21.9851H21.9849H21.9847H21.9846H21.9844H21.9842H21.9841H21.9839H21.9838H21.9836H21.9834H21.9833H21.9831H21.9829H21.9828H21.9826H21.9825C21.1819 2.81297 20.4447 3.13791 19.8876 3.71369C19.0244 4.61523 18.535 5.86923 18.2627 7.09438C18.0094 8.23364 17.9468 9.33464 17.9393 10.0754C18.6768 10.0352 19.7725 9.92397 20.8986 9.62089C22.1101 9.29486 23.3416 8.75089 24.205 7.84932L22.203 2.79376ZM22.203 2.79376V2.79087M22.203 2.79376V2.79087M22.203 2.79087C22.9218 2.82623 23.5902 3.11555 24.1174 3.61922C24.6935 4.17662 25.0184 4.91424 25.0373 5.71527C25.0497 6.51715 24.7555 7.27374 24.2051 7.84926L22.203 2.79087ZM16.9674 12.0389H16.9675M16.9674 12.0389H16.9675M16.9675 12.0389H16.9677M16.9675 12.0389H16.9677M16.9677 12.0389H16.9678M16.9677 12.0389H16.9678M16.9678 12.0389H16.968M16.9678 12.0389H16.968M16.968 12.0389H16.9682M16.968 12.0389H16.9682M16.9682 12.0389H16.9683M16.9682 12.0389H16.9683M16.9683 12.0389H16.9685M16.9683 12.0389H16.9685M16.9685 12.0389H16.9687M16.9685 12.0389H16.9687M16.9687 12.0389H16.9688M16.9687 12.0389H16.9688M16.9688 12.0389H16.969M16.9688 12.0389H16.969M16.969 12.0389H16.9692M16.969 12.0389H16.9692M16.9692 12.0389H16.9694M16.9692 12.0389H16.9694M16.9694 12.0389H16.9695M16.9694 12.0389H16.9695M16.9695 12.0389H16.9697M16.9695 12.0389H16.9697M16.9697 12.0389H16.9699M16.9697 12.0389H16.9699M16.9699 12.0389H16.9701M16.9699 12.0389H16.9701M16.9701 12.0389H16.9703M16.9701 12.0389H16.9703M16.9703 12.0389H16.9705M16.9703 12.0389H16.9705M16.9705 12.0389H16.9707M16.9705 12.0389H16.9707M16.9707 12.0389H16.9709M16.9707 12.0389H16.9709M16.9709 12.0389H16.9711M16.9709 12.0389H16.9711M16.9711 12.0389H16.9713M16.9711 12.0389H16.9713M16.9713 12.0389H16.9715M16.9713 12.0389H16.9715M16.9715 12.0389H16.9717M16.9715 12.0389H16.9717M16.9717 12.0389H16.9719M16.9717 12.0389H16.9719M16.9719 12.0389H16.9721M16.9719 12.0389H16.9721M16.9721 12.0389H16.9723M16.9721 12.0389H16.9723M16.9723 12.0389H16.9725M16.9723 12.0389H16.9725M16.9725 12.0389H16.9727M16.9725 12.0389H16.9727M16.9727 12.0389H16.9729M16.9727 12.0389H16.9729M16.9729 12.0389H16.9731M16.9729 12.0389H16.9731M16.9731 12.0389H16.9733M16.9731 12.0389H16.9733M16.9733 12.0389H16.9736M16.9733 12.0389H16.9736M16.9736 12.0389H16.9738M16.9736 12.0389H16.9738M16.9738 12.0389H16.974M16.9738 12.0389H16.974M16.974 12.0389H16.9742M16.974 12.0389H16.9742M16.9742 12.0389H16.9744M16.9742 12.0389H16.9744M16.9744 12.0389H16.9747M16.9744 12.0389H16.9747M16.9747 12.0389H16.9749M16.9747 12.0389H16.9749M16.9749 12.0389H16.9751M16.9749 12.0389H16.9751M16.9751 12.0389H16.9754M16.9751 12.0389H16.9754M16.9754 12.0389H16.9756M16.9754 12.0389H16.9756M16.9756 12.0389H16.9758M16.9756 12.0389H16.9758M16.9758 12.0389H16.9761M16.9758 12.0389H16.9761M16.9761 12.0389H16.9763M16.9761 12.0389H16.9763M16.9763 12.0389H16.9766M16.9763 12.0389H16.9766M16.9766 12.0389H16.9768M16.9766 12.0389H16.9768M16.9768 12.0389H16.9771M16.9768 12.0389H16.9771M16.9771 12.0389H16.9773M16.9771 12.0389H16.9773M16.9773 12.0389H16.9776M16.9773 12.0389H16.9776M16.9776 12.0389H16.9778M16.9776 12.0389H16.9778M16.9778 12.0389H16.9781M16.9778 12.0389H16.9781M16.9781 12.0389H16.9783M16.9781 12.0389H16.9783M16.9783 12.0389H16.9786M16.9783 12.0389H16.9786M16.9786 12.0389H16.9789M16.9786 12.0389H16.9789M16.9789 12.0389H16.9791M16.9789 12.0389H16.9791M16.9791 12.0389H16.9794M16.9791 12.0389H16.9794M16.9794 12.0389H16.9796M16.9794 12.0389H16.9796M16.9796 12.0389H16.9799M16.9796 12.0389H16.9799M16.9799 12.0389H16.9802M16.9799 12.0389H16.9802M16.9802 12.0389H16.9805M16.9802 12.0389H16.9805M16.9805 12.0389H16.9807M16.9805 12.0389H16.9807M16.9807 12.0389H16.981M16.9807 12.0389H16.981M16.981 12.0389H16.9813M16.981 12.0389H16.9813M16.9813 12.0389H16.9816M16.9813 12.0389H16.9816M16.9816 12.0389H16.9818M16.9816 12.0389H16.9818M16.9818 12.0389H16.9821M16.9818 12.0389H16.9821M16.9821 12.0389H16.9824M16.9821 12.0389H16.9824M16.9824 12.0389H16.9827M16.9824 12.0389H16.9827M16.9827 12.0389H16.983M16.9827 12.0389H16.983M16.983 12.0389H16.9833M16.983 12.0389H16.9833M16.9833 12.0389H16.9836M16.9833 12.0389H16.9836M16.9836 12.0389H16.9839M16.9836 12.0389H16.9839M16.9839 12.0389H16.9842M16.9839 12.0389H16.9842M16.9842 12.0389H16.9845M16.9842 12.0389H16.9845M16.9845 12.0389H16.9848M16.9845 12.0389H16.9848M16.9848 12.0389H16.9851M16.9848 12.0389H16.9851M16.9851 12.0389H16.9854M16.9851 12.0389H16.9854M16.9854 12.0389H16.9857M16.9854 12.0389H16.9857M16.9857 12.0389H16.986M16.9857 12.0389H16.986M16.986 12.0389H16.9863M16.986 12.0389H16.9863M16.9863 12.0389H16.9866M16.9863 12.0389H16.9866M16.9866 12.0389H16.9869M16.9866 12.0389H16.9869M16.9869 12.0389H16.9872M16.9869 12.0389H16.9872M16.9872 12.0389H16.9875M16.9872 12.0389H16.9875M16.9875 12.0389H16.9879M16.9875 12.0389H16.9879M16.9879 12.0389H16.9882M16.9879 12.0389H16.9882M16.9882 12.0389H16.9885M16.9882 12.0389H16.9885M16.9885 12.0389H16.9888M16.9885 12.0389H16.9888M16.9888 12.0389H16.9892M16.9888 12.0389H16.9892M16.9892 12.0389H16.9895M16.9892 12.0389H16.9895M16.9895 12.0389H16.9898M16.9895 12.0389H16.9898M16.9898 12.0389H16.9901M16.9898 12.0389H16.9901M16.9901 12.0389H16.9905M16.9901 12.0389H16.9905M16.9905 12.0389H16.9908M16.9905 12.0389H16.9908M16.9908 12.0389H16.9912M16.9908 12.0389H16.9912M16.9912 12.0389H16.9915M16.9912 12.0389H16.9915M16.9915 12.0389H16.9918M16.9915 12.0389H16.9918M16.9918 12.0389H16.9922M16.9918 12.0389H16.9922M16.9922 12.0389H16.9925M16.9922 12.0389H16.9925M16.9925 12.0389H16.9929M16.9925 12.0389H16.9929M16.9929 12.0389H16.9932M16.9929 12.0389H16.9932M16.9932 12.0389H16.9936M16.9932 12.0389H16.9936M16.9936 12.0389H16.9939M16.9936 12.0389H16.9939M16.9939 12.0389H16.9943M16.9939 12.0389H16.9943M16.9943 12.0389H16.9946M16.9943 12.0389H16.9946M16.9946 12.0389H16.995M16.9946 12.0389H16.995M16.995 12.0389H16.9953M16.995 12.0389H16.9953M16.9953 12.0389H16.9957M16.9953 12.0389H16.9957M16.9957 12.0389H16.9961M16.9957 12.0389H16.9961M16.9961 12.0389H16.9964M16.9961 12.0389H16.9964M16.9964 12.0389H16.9968M16.9964 12.0389H16.9968M16.9968 12.0389H16.9972M16.9968 12.0389H16.9972M16.9972 12.0389H16.9975M16.9972 12.0389H16.9975M16.9975 12.0389H16.9979M16.9975 12.0389H16.9979M16.9979 12.0389H16.9983M16.9979 12.0389H16.9983M16.9983 12.0389H16.9987M16.9983 12.0389H16.9987M16.9987 12.0389H16.999M16.9987 12.0389H16.999M16.999 12.0389H16.9994M16.999 12.0389H16.9994M16.9994 12.0389H16.9998M16.9994 12.0389H16.9998M16.9998 12.0389H17.0002M16.9998 12.0389H17.0002M17.0002 12.0389H17.0006M17.0002 12.0389H17.0006M17.0006 12.0389H17.001M17.0006 12.0389H17.001M17.001 12.0389H17.0013M17.001 12.0389H17.0013M17.0013 12.0389H17.0017M17.0013 12.0389H17.0017M17.0017 12.0389H17.0021M17.0017 12.0389H17.0021M17.0021 12.0389H17.0025M17.0021 12.0389H17.0025M17.0025 12.0389H17.0029M17.0025 12.0389H17.0029M17.0029 12.0389H17.0033M17.0029 12.0389H17.0033M17.0033 12.0389H17.0037M17.0033 12.0389H17.0037M17.0037 12.0389H17.0041M17.0037 12.0389H17.0041M17.0041 12.0389H17.0045M17.0041 12.0389H17.0045M17.0045 12.0389H17.0049M17.0045 12.0389H17.0049M17.0049 12.0389H17.0053M17.0049 12.0389H17.0053M17.0053 12.0389H17.0057M17.0053 12.0389H17.0057M17.0057 12.0389H17.0061M17.0057 12.0389H17.0061M17.0061 12.0389H17.0066M17.0061 12.0389H17.0066M17.0066 12.0389H17.007M17.0066 12.0389H17.007M17.007 12.0389H17.0074M17.007 12.0389H17.0074M17.0074 12.0389H17.0078M17.0074 12.0389H17.0078M17.0078 12.0389H17.0082M17.0078 12.0389H17.0082M17.0082 12.0389H17.0086M17.0082 12.0389H17.0086M17.0086 12.0389H17.0091M17.0086 12.0389H17.0091M17.0091 12.0389H17.0095M17.0091 12.0389H17.0095M17.0095 12.0389H17.0099M17.0095 12.0389H17.0099M17.0099 12.0389H17.0103M17.0099 12.0389H17.0103M17.0103 12.0389H17.0108M17.0103 12.0389H17.0108M17.0108 12.0389H17.0112M17.0108 12.0389H17.0112M17.0112 12.0389H17.0116M17.0112 12.0389H17.0116M17.0116 12.0389H17.0121M17.0116 12.0389H17.0121M17.0121 12.0389H17.0125M17.0121 12.0389H17.0125M17.0125 12.0389H17.0129M17.0125 12.0389H17.0129M17.0129 12.0389H17.0134M17.0129 12.0389H17.0134M17.0134 12.0389H17.0138M17.0134 12.0389H17.0138M17.0138 12.0389H17.0143M17.0138 12.0389H17.0143M17.0143 12.0389H17.0147M17.0143 12.0389H17.0147M17.0147 12.0389H17.0152M17.0147 12.0389H17.0152M17.0152 12.0389H17.0156M17.0152 12.0389H17.0156M17.0156 12.0389H17.0161M17.0156 12.0389H17.0161M17.0161 12.0389H17.0165M17.0161 12.0389H17.0165M17.0165 12.0389H17.017M17.0165 12.0389H17.017M17.017 12.0389H17.0174M17.017 12.0389H17.0174M17.0174 12.0389H17.0179M17.0174 12.0389H17.0179M17.0179 12.0389H17.0183M17.0179 12.0389H17.0183M17.0183 12.0389H17.0188M17.0183 12.0389H17.0188M17.0188 12.0389H17.0193M17.0188 12.0389H17.0193M17.0193 12.0389H17.0197M17.0193 12.0389H17.0197M17.0197 12.0389H17.0202M17.0197 12.0389H17.0202M17.0202 12.0389H17.0207M17.0202 12.0389H17.0207M17.0207 12.0389H17.0211M17.0207 12.0389H17.0211M17.0211 12.0389H17.0216M17.0211 12.0389H17.0216M17.0216 12.0389H17.0221M17.0216 12.0389H17.0221M17.0221 12.0389H17.0226M17.0221 12.0389H17.0226M17.0226 12.0389H17.023M17.0226 12.0389H17.023M17.023 12.0389H17.0235M17.023 12.0389H17.0235M17.0235 12.0389H17.024M17.0235 12.0389H17.024M17.024 12.0389H17.0245M17.024 12.0389H17.0245M17.0245 12.0389H17.025M17.0245 12.0389H17.025M17.025 12.0389H17.0254M17.025 12.0389H17.0254M17.0254 12.0389H17.0259M17.0254 12.0389H17.0259M17.0259 12.0389H17.0264M17.0259 12.0389H17.0264M17.0264 12.0389H17.0269M17.0264 12.0389H17.0269M17.0269 12.0389H17.0274M17.0269 12.0389H17.0274M17.0274 12.0389H17.0279M17.0274 12.0389H17.0279M17.0279 12.0389H17.0284M17.0279 12.0389H17.0284M17.0284 12.0389H17.0289M17.0284 12.0389H17.0289M17.0289 12.0389H17.0294M17.0289 12.0389H17.0294M17.0294 12.0389H17.0299M17.0294 12.0389H17.0299M17.0299 12.0389H17.0304M17.0299 12.0389H17.0304M17.0304 12.0389H17.0309M17.0304 12.0389H17.0309M17.0309 12.0389H17.0314M17.0309 12.0389H17.0314M17.0314 12.0389H17.0319M17.0314 12.0389H17.0319M17.0319 12.0389H17.0324M17.0319 12.0389H17.0324M17.0324 12.0389H17.0329M17.0324 12.0389H17.0329M17.0329 12.0389H17.0335M17.0329 12.0389H17.0335M17.0335 12.0389H17.034M17.0335 12.0389H17.034M17.034 12.0389H17.0345M17.034 12.0389H17.0345M17.0345 12.0389H17.035M17.0345 12.0389H17.035M17.035 12.0389H17.0355M17.035 12.0389H17.0355M17.0355 12.0389H17.0361M17.0355 12.0389H17.0361M17.0361 12.0389H17.0366M17.0361 12.0389H17.0366M17.0366 12.0389H17.0371M17.0366 12.0389H17.0371M17.0371 12.0389H17.0376M17.0371 12.0389H17.0376M17.0376 12.0389H17.0382M17.0376 12.0389H17.0382M17.0382 12.0389H17.0387M17.0382 12.0389H17.0387M17.0387 12.0389H17.0392M17.0387 12.0389H17.0392M17.0392 12.0389H17.0398M17.0392 12.0389H17.0398M17.0398 12.0389H17.0403M17.0398 12.0389H17.0403M17.0403 12.0389H17.0408M17.0403 12.0389H17.0408M17.0408 12.0389H17.0414M17.0408 12.0389H17.0414M17.0414 12.0389H17.0419M17.0414 12.0389H17.0419M17.0419 12.0389H17.0425M17.0419 12.0389H17.0425M17.0425 12.0389H17.043M17.0425 12.0389H17.043M17.043 12.0389H17.0435M17.043 12.0389H17.0435M17.0435 12.0389H17.0441M17.0435 12.0389H17.0441M17.0441 12.0389H17.0446M17.0441 12.0389H17.0446M17.0446 12.0389H17.0452M17.0446 12.0389H17.0452M17.0452 12.0389H17.0458M17.0452 12.0389H17.0458M17.0458 12.0389H17.0463M17.0458 12.0389H17.0463M17.0463 12.0389H17.0469M17.0463 12.0389H17.0469M17.0469 12.0389H17.0474M17.0469 12.0389H17.0474M17.0474 12.0389H17.048M17.0474 12.0389H17.048M17.048 12.0389H17.0485M17.048 12.0389H17.0485M17.0485 12.0389H17.0491M17.0485 12.0389H17.0491M17.0491 12.0389H17.0497M17.0491 12.0389H17.0497M17.0497 12.0389H17.0502M17.0497 12.0389H17.0502M17.0502 12.0389H17.0508M17.0502 12.0389H17.0508M17.0508 12.0389H17.0514M17.0508 12.0389H17.0514M17.0514 12.0389H17.0519M17.0514 12.0389H17.0519M17.0519 12.0389H17.0525M17.0519 12.0389H17.0525M17.0525 12.0389H17.0531M17.0525 12.0389H17.0531M17.0531 12.0389H17.0537M17.0531 12.0389H17.0537M17.0537 12.0389H17.0543M17.0537 12.0389H17.0543M17.0543 12.0389H17.0548M17.0543 12.0389H17.0548M17.0548 12.0389H17.0554M17.0548 12.0389H17.0554M17.0554 12.0389H17.056M17.0554 12.0389H17.056M17.056 12.0389H17.0566M17.056 12.0389H17.0566M17.0566 12.0389H17.0572M17.0566 12.0389H17.0572M17.0572 12.0389H17.0578M17.0572 12.0389H17.0578M17.0578 12.0389H17.0583M17.0578 12.0389H17.0583M17.0583 12.0389H17.0589M17.0583 12.0389H17.0589M17.0589 12.0389H17.0595M17.0589 12.0389H17.0595M17.0595 12.0389H17.0601M17.0595 12.0389H17.0601M17.0601 12.0389H17.0607M17.0601 12.0389H17.0607M17.0607 12.0389H17.0613M17.0607 12.0389H17.0613M17.0613 12.0389H17.0619M17.0613 12.0389H17.0619M17.0619 12.0389H17.0625M17.0619 12.0389H17.0625M17.0625 12.0389H17.0631M17.0625 12.0389H17.0631M17.0631 12.0389H17.0637M17.0631 12.0389H17.0637M17.0637 12.0389H17.0643M17.0637 12.0389H17.0643M17.0643 12.0389H17.065M17.0643 12.0389H17.065M17.065 12.0389H17.0656M17.065 12.0389H17.0656M17.0656 12.0389H17.0662M17.0656 12.0389H17.0662M17.0662 12.0389H17.0668M17.0662 12.0389H17.0668M17.0668 12.0389H17.0674M17.0668 12.0389H17.0674M17.0674 12.0389H17.068M17.0674 12.0389H17.068M17.068 12.0389H17.0686M17.068 12.0389H17.0686M17.0686 12.0389H17.0693M17.0686 12.0389H17.0693M17.0693 12.0389H17.0699M17.0693 12.0389H17.0699M17.0699 12.0389H17.0705M17.0699 12.0389H17.0705M17.0705 12.0389H17.0711M17.0705 12.0389H17.0711M17.0711 12.0389H17.0718M17.0711 12.0389H17.0718M17.0718 12.0389H17.0724M17.0718 12.0389H17.0724M17.0724 12.0389H17.073M17.0724 12.0389H17.073M17.073 12.0389H17.0736M17.073 12.0389H17.0736M17.0736 12.0389H17.0743M17.0736 12.0389H17.0743M17.0743 12.0389H17.0749M17.0743 12.0389H17.0749M17.0749 12.0389H17.0755M17.0749 12.0389H17.0755M17.0755 12.0389H17.0762M17.0755 12.0389H17.0762M17.0762 12.0389H17.0768M17.0762 12.0389H17.0768M17.0768 12.0389H17.0775M17.0768 12.0389H17.0775M17.0775 12.0389H17.0781M17.0775 12.0389H17.0781M17.0781 12.0389H17.0788M17.0781 12.0389H17.0788M17.0788 12.0389H17.0794M17.0788 12.0389H17.0794M17.0794 12.0389H17.0801M17.0794 12.0389H17.0801M17.0801 12.0389H17.0807M17.0801 12.0389H17.0807M17.0807 12.0389H17.0814M17.0807 12.0389H17.0814M17.0814 12.0389H17.082M17.0814 12.0389H17.082M17.082 12.0389H17.0827M17.082 12.0389H17.0827M17.0827 12.0389H17.0833M17.0827 12.0389H17.0833M17.0833 12.0389H17.084M17.0833 12.0389H17.084M17.084 12.0389H17.0846M17.084 12.0389H17.0846M17.0846 12.0389H17.0853M17.0846 12.0389H17.0853M17.0853 12.0389H17.086M17.0853 12.0389H17.086M17.086 12.0389H17.0866M17.086 12.0389H17.0866M17.0866 12.0389H17.0873M17.0866 12.0389H17.0873M17.0873 12.0389H17.088M17.0873 12.0389H17.088M17.088 12.0389H17.0886M17.088 12.0389H17.0886M17.0886 12.0389H17.0893M17.0886 12.0389H17.0893M17.0893 12.0389H17.09M17.0893 12.0389H17.09M17.09 12.0389H17.0906M17.09 12.0389H17.0906M17.0906 12.0389H17.0913M17.0906 12.0389H17.0913M17.0913 12.0389H17.092M17.0913 12.0389H17.092M17.092 12.0389H17.0927M17.092 12.0389H17.0927M17.0927 12.0389H17.0934M17.0927 12.0389H17.0934M17.0934 12.0389H17.094M17.0934 12.0389H17.094M17.094 12.0389H17.0947M17.094 12.0389H17.0947M17.0947 12.0389H17.0954M17.0947 12.0389H17.0954M17.0954 12.0389H17.0961M17.0954 12.0389H17.0961M17.0961 12.0389H17.0968M17.0961 12.0389H17.0968M17.0968 12.0389H17.0975M17.0968 12.0389H17.0975M17.0975 12.0389H17.0982M17.0975 12.0389H17.0982M17.0982 12.0389H17.0989M17.0982 12.0389H17.0989M17.0989 12.0389H17.0995M17.0989 12.0389H17.0995M17.0995 12.0389H17.1002M17.0995 12.0389H17.1002M17.1002 12.0389H17.1009M17.1002 12.0389H17.1009M17.1009 12.0389H17.1016M17.1009 12.0389H17.1016M17.1016 12.0389H17.1023M17.1016 12.0389H17.1023M17.1023 12.0389H17.103M17.1023 12.0389H17.103M17.103 12.0389H17.1038M17.103 12.0389H17.1038M17.1038 12.0389H17.1045M17.1038 12.0389H17.1045M17.1045 12.0389H17.1052M17.1045 12.0389H17.1052M17.1052 12.0389H17.1059M17.1052 12.0389H17.1059M17.1059 12.0389H17.1066M17.1059 12.0389H17.1066M17.1066 12.0389H17.1073M17.1066 12.0389H17.1073M17.1073 12.0389H17.108M17.1073 12.0389H17.108M17.108 12.0389H17.1087M17.108 12.0389H17.1087M17.1087 12.0389H17.1094M17.1087 12.0389H17.1094M17.1094 12.0389H17.1102M17.1094 12.0389H17.1102M17.1102 12.0389H17.1109M17.1102 12.0389H17.1109M17.1109 12.0389H17.1116M17.1109 12.0389H17.1116M17.1116 12.0389H17.1123M17.1116 12.0389H17.1123M17.1123 12.0389H17.1131M17.1123 12.0389H17.1131M17.1131 12.0389H17.1138M17.1131 12.0389H17.1138M17.1138 12.0389H17.1145M17.1138 12.0389H17.1145M17.1145 12.0389H17.1152M17.1145 12.0389H17.1152M17.1152 12.0389H17.116M17.1152 12.0389H17.116M17.116 12.0389H17.1167M17.116 12.0389H17.1167M17.1167 12.0389H17.1174M17.1167 12.0389H17.1174M17.1174 12.0389H17.1182M17.1174 12.0389H17.1182M17.1182 12.0389H17.1189M17.1182 12.0389H17.1189M17.1189 12.0389H17.1196M17.1189 12.0389H17.1196M17.1196 12.0389H17.1204M17.1196 12.0389H17.1204M17.1204 12.0389H17.1211M17.1204 12.0389H17.1211M17.1211 12.0389H17.1219M17.1211 12.0389H17.1219M17.1219 12.0389H17.1226M17.1219 12.0389H17.1226M17.1226 12.0389H17.1234M17.1226 12.0389H17.1234M17.1234 12.0389H17.1241M17.1234 12.0389H17.1241M17.1241 12.0389H17.1249M17.1241 12.0389H17.1249M17.1249 12.0389H17.1256M17.1249 12.0389H17.1256M17.1256 12.0389H17.1264M17.1256 12.0389H17.1264M17.1264 12.0389H17.1271M17.1264 12.0389H17.1271M17.1271 12.0389H17.1279M17.1271 12.0389H17.1279M17.1279 12.0389H17.1286M17.1279 12.0389H17.1286M17.1286 12.0389H17.1294M17.1286 12.0389H17.1294M17.1294 12.0389H17.1302M17.1294 12.0389H17.1302M17.1302 12.0389H17.1309M17.1302 12.0389H17.1309M17.1309 12.0389H17.1317M17.1309 12.0389H17.1317M17.1317 12.0389H17.1325M17.1317 12.0389H17.1325M17.1325 12.0389H17.1332M17.1325 12.0389H17.1332M17.1332 12.0389H17.134M17.1332 12.0389H17.134M17.134 12.0389H17.1348M17.134 12.0389H17.1348M17.1348 12.0389H17.1355M17.1348 12.0389H17.1355M17.1355 12.0389H17.1363M17.1355 12.0389H17.1363M17.1363 12.0389H17.1371M17.1363 12.0389H17.1371M17.1371 12.0389H17.1379M17.1371 12.0389H17.1379M17.1379 12.0389H17.1386M17.1379 12.0389H17.1386M17.1386 12.0389H17.1394M17.1386 12.0389H17.1394M17.1394 12.0389H17.1402M17.1394 12.0389H17.1402M17.1402 12.0389H17.141M17.1402 12.0389H17.141M17.141 12.0389H17.1418M17.141 12.0389H17.1418M17.1418 12.0389H17.1425M17.1418 12.0389H17.1425M17.1425 12.0389H17.1433M17.1425 12.0389H17.1433M17.1433 12.0389H17.1441M17.1433 12.0389H17.1441M17.1441 12.0389H17.1449M17.1441 12.0389H17.1449M17.1449 12.0389H17.1457M17.1449 12.0389H17.1457M17.1457 12.0389H17.1465M17.1457 12.0389H17.1465M17.1465 12.0389H17.1473M17.1465 12.0389H17.1473M17.1473 12.0389H17.1481M17.1473 12.0389H17.1481M17.1481 12.0389H17.1489M17.1481 12.0389H17.1489M17.1489 12.0389H17.1497M17.1489 12.0389H17.1497M17.1497 12.0389H17.1505M17.1497 12.0389H17.1505M17.1505 12.0389H17.1513M17.1505 12.0389H17.1513M17.1513 12.0389H17.1521M17.1513 12.0389H17.1521M17.1521 12.0389H17.1529M17.1521 12.0389H17.1529M17.1529 12.0389H17.1537M17.1529 12.0389H17.1537M17.1537 12.0389H17.1545M17.1537 12.0389H17.1545M17.1545 12.0389H17.1553M17.1545 12.0389H17.1553M17.1553 12.0389H17.1561M17.1553 12.0389H17.1561M17.1561 12.0389H17.1569M17.1561 12.0389H17.1569M17.1569 12.0389H17.1578M17.1569 12.0389H17.1578M17.1578 12.0389H17.1586M17.1578 12.0389H17.1586M17.1586 12.0389H17.1594M17.1586 12.0389H17.1594M17.1594 12.0389H17.1602M17.1594 12.0389H17.1602M17.1602 12.0389H17.161M17.1602 12.0389H17.161M17.161 12.0389H17.1619M17.161 12.0389H17.1619M17.1619 12.0389H17.1627M17.1619 12.0389H17.1627M17.1627 12.0389H17.1635M17.1627 12.0389H17.1635M17.1635 12.0389H17.1643M17.1635 12.0389H17.1643M17.1643 12.0389H17.1652M17.1643 12.0389H17.1652M17.1652 12.0389H17.166M17.1652 12.0389H17.166M17.166 12.0389H17.1668M17.166 12.0389H17.1668M17.1668 12.0389H17.1677M17.1668 12.0389H17.1677M17.1677 12.0389H17.1685M17.1677 12.0389H17.1685M17.1685 12.0389H17.1693M17.1685 12.0389H17.1693M17.1693 12.0389H17.1702M17.1693 12.0389H17.1702M17.1702 12.0389H17.171M17.1702 12.0389H17.171M17.171 12.0389H17.1718M17.171 12.0389H17.1718M17.1718 12.0389H17.1727M17.1718 12.0389H17.1727M17.1727 12.0389H17.1735M17.1727 12.0389H17.1735M17.1735 12.0389H17.1744M17.1735 12.0389H17.1744M17.1744 12.0389H17.1752M17.1744 12.0389H17.1752M17.1752 12.0389H17.1761M17.1752 12.0389H17.1761M17.1761 12.0389H17.1769M17.1761 12.0389H17.1769M17.1769 12.0389H17.1778M17.1769 12.0389H17.1778M17.1778 12.0389H17.1786M17.1778 12.0389H17.1786M17.1786 12.0389H17.1795M17.1786 12.0389H17.1795M17.1795 12.0389H17.1803M17.1795 12.0389H17.1803M17.1803 12.0389H17.1812M17.1803 12.0389H17.1812M17.1812 12.0389H17.182M17.1812 12.0389H17.182M17.182 12.0389H17.1829M17.182 12.0389H17.1829M17.1829 12.0389H17.1837M17.1829 12.0389H17.1837M17.1837 12.0389H17.1846M17.1837 12.0389H17.1846M17.1846 12.0389H17.1855M17.1846 12.0389H17.1855M17.1855 12.0389H17.1863M17.1855 12.0389H17.1863M17.1863 12.0389H17.1872M17.1863 12.0389H17.1872M17.1872 12.0389H17.1881M17.1872 12.0389H17.1881M17.1881 12.0389H17.1889M17.1881 12.0389H17.1889M17.1889 12.0389H17.1898M17.1889 12.0389H17.1898M17.1898 12.0389H17.1907M17.1898 12.0389H17.1907M17.1907 12.0389H17.1916M17.1907 12.0389H17.1916M17.1916 12.0389H17.1924M17.1916 12.0389H17.1924M17.1924 12.0389H17.1933M17.1924 12.0389H17.1933M17.1933 12.0389H17.1942M17.1933 12.0389H17.1942M17.1942 12.0389H17.1951M17.1942 12.0389H17.1951M17.1951 12.0389H17.1959M17.1951 12.0389H17.1959M17.1959 12.0389H17.1968M17.1959 12.0389H17.1968M17.1968 12.0389H17.1977M17.1968 12.0389H17.1977M17.1977 12.0389H17.1986M17.1977 12.0389H17.1986M17.1986 12.0389H17.1995M17.1986 12.0389H17.1995M17.1995 12.0389H17.2004M17.1995 12.0389H17.2004M17.2004 12.0389H17.2013M17.2004 12.0389H17.2013M17.2013 12.0389H17.2022M17.2013 12.0389H17.2022M17.2022 12.0389H17.203M17.2022 12.0389H17.203M17.203 12.0389H17.2039M17.203 12.0389H17.2039M17.2039 12.0389H17.2048M17.2039 12.0389H17.2048M17.2048 12.0389H17.2057M17.2048 12.0389H17.2057M17.2057 12.0389H17.2066M17.2057 12.0389H17.2066M17.2066 12.0389H17.2075M17.2066 12.0389H17.2075M17.2075 12.0389H17.2084M17.2075 12.0389H17.2084M17.2084 12.0389H17.2093M17.2084 12.0389H17.2093M17.2093 12.0389H17.2102M17.2093 12.0389H17.2102M17.2102 12.0389H17.2111M17.2102 12.0389H17.2111M17.2111 12.0389H17.2121M17.2111 12.0389H17.2121M17.2121 12.0389H17.213M17.2121 12.0389H17.213M17.213 12.0389H17.2139M17.213 12.0389H17.2139M17.2139 12.0389H17.2148M17.2139 12.0389H17.2148M17.2148 12.0389H17.2157M17.2148 12.0389H17.2157M17.2157 12.0389H17.2166M17.2157 12.0389H17.2166M17.2166 12.0389H17.2175M17.2166 12.0389H17.2175M17.2175 12.0389H17.2184M17.2175 12.0389H17.2184M17.2184 12.0389H17.2194M17.2184 12.0389H17.2194M17.2194 12.0389H17.2203M17.2194 12.0389H17.2203M17.2203 12.0389H17.2212M17.2203 12.0389H17.2212M17.2212 12.0389H17.2221M17.2212 12.0389H17.2221M17.2221 12.0389H17.223M17.2221 12.0389H17.223M17.223 12.0389H17.224M17.223 12.0389H17.224M17.224 12.0389H17.2249M17.224 12.0389H17.2249M17.2249 12.0389H17.2258M17.2249 12.0389H17.2258M17.2258 12.0389H17.2268M17.2258 12.0389H17.2268M17.2268 12.0389H17.2277M17.2268 12.0389H17.2277M17.2277 12.0389H17.2286M17.2277 12.0389H17.2286M17.2286 12.0389H17.2296M17.2286 12.0389H17.2296M17.2296 12.0389H17.2305M17.2296 12.0389H17.2305M17.2305 12.0389H17.2314M17.2305 12.0389H17.2314M17.2314 12.0389H17.2324M17.2314 12.0389H17.2324M17.2324 12.0389H17.2333M17.2324 12.0389H17.2333M17.2333 12.0389H17.2342M17.2333 12.0389H17.2342M17.2342 12.0389H17.2352M17.2342 12.0389H17.2352M17.2352 12.0389H17.2361M17.2352 12.0389H17.2361M17.2361 12.0389H17.2371M17.2361 12.0389H17.2371M17.2371 12.0389H17.238M17.2371 12.0389H17.238M17.238 12.0389H17.239M17.238 12.0389H17.239M17.239 12.0389H17.2399M17.239 12.0389H17.2399M17.2399 12.0389H17.2409M17.2399 12.0389H17.2409M17.2409 12.0389H17.2418M17.2409 12.0389H17.2418M17.2418 12.0389H17.2428M17.2418 12.0389H17.2428M17.2428 12.0389H17.2437M17.2428 12.0389H17.2437M17.2437 12.0389H17.2447M17.2437 12.0389H17.2447M17.2447 12.0389H17.2457M17.2447 12.0389H17.2457M17.2457 12.0389H17.2466M17.2457 12.0389H17.2466M17.2466 12.0389H17.2476M17.2466 12.0389H17.2476M17.2476 12.0389H17.2485M17.2476 12.0389H17.2485M17.2485 12.0389H17.2495M17.2485 12.0389H17.2495M17.2495 12.0389H17.2505M17.2495 12.0389H17.2505M17.2505 12.0389H17.2514M17.2505 12.0389H17.2514M17.2514 12.0389H17.2524M17.2514 12.0389H17.2524M17.2524 12.0389H17.2534M17.2524 12.0389H17.2534M17.2534 12.0389H17.2543M17.2534 12.0389H17.2543M17.2543 12.0389H17.2553M17.2543 12.0389H17.2553M17.2553 12.0389H17.2563M17.2553 12.0389H17.2563M17.2563 12.0389H17.2573M17.2563 12.0389H17.2573M17.2573 12.0389H17.2582M17.2573 12.0389H17.2582M17.2582 12.0389H17.2592M17.2582 12.0389H17.2592M17.2592 12.0389H17.2602M17.2592 12.0389H17.2602M17.2602 12.0389H17.2612M17.2602 12.0389H17.2612M17.2612 12.0389H17.2621M17.2612 12.0389H17.2621M17.2621 12.0389H17.2631M17.2621 12.0389H17.2631M17.2631 12.0389H17.2641M17.2631 12.0389H17.2641M17.2641 12.0389H17.2651M17.2641 12.0389H17.2651M17.2651 12.0389H17.2661M17.2651 12.0389H17.2661M17.2661 12.0389H17.2671M17.2661 12.0389H17.2671M17.2671 12.0389H17.2681M17.2671 12.0389H17.2681M17.2681 12.0389H17.2691M17.2681 12.0389H17.2691M17.2691 12.0389H17.2695H17.2691ZM25.462 2.22014C24.5129 1.30503 23.2586 0.824 21.9448 0.851084L25.462 2.22014ZM25.462 2.22014C26.4106 3.12809 26.9529 4.35519 26.98 5.6764C26.98 5.6764 26.98 5.67641 26.98 5.67642L26.83 5.67949L25.462 2.22014ZM20.9423 11.6161C22.5472 11.2401 24.3305 10.5311 25.6109 9.19368L17.27 12.0389H17.271H17.272H17.273H17.274H17.275H17.276C17.9003 12.0386 19.3408 11.9913 20.9423 11.6161Z" fill="#554894" stroke="#554894" stroke-width="0.3"/>
<path d="M11.8737 4.72752L11.7662 4.62292L11.6616 4.73044L10.5161 5.90792L10.4115 6.01544L10.5191 6.12003L16.317 11.7602L16.4245 11.8648L16.5291 11.7573L17.6745 10.5798L17.7791 10.4723L17.6716 10.3677L11.8737 4.72752Z" fill="#554894" stroke="#554894" stroke-width="0.3"/>
<path d="M22.3257 4.73498L22.2212 4.62743L22.1136 4.73199L16.3137 10.3701L16.2062 10.4747L16.3107 10.5822L17.4558 11.7601L17.5603 11.8677L17.6679 11.7631L23.4678 6.12497L23.5753 6.02042L23.4708 5.91286L22.3257 4.73498Z" fill="#554894" stroke="#554894" stroke-width="0.3"/>
<path d="M16.8942 31.5496L16.8942 31.5497L16.9008 31.5562L17.0068 31.6623L17.1129 31.5562L20.7334 27.9357L20.8395 27.8296L20.7334 27.7235L19.5704 26.5605L19.4643 26.4544L19.3583 26.5605L17.0068 28.9119L12.9798 24.8849C12.6796 24.5847 12.5178 24.1893 12.5178 23.7688C12.5178 23.3484 12.6796 22.9529 12.9798 22.6527C13.5915 22.0411 14.5938 22.0411 15.2055 22.6527L16.8942 24.3414L17.0003 24.4475L17.1063 24.3414L18.795 22.6527C19.4067 22.0411 20.409 22.0411 21.0207 22.6527C21.3209 22.9529 21.4827 23.3484 21.4827 23.7688C21.4827 24.1893 21.3209 24.5847 21.0207 24.8849L20.9146 24.991L21.0207 25.0971L22.1837 26.2601L22.2892 26.3656L22.3953 26.2607C23.0617 25.6011 23.4254 24.7082 23.4254 23.7754C23.4254 22.8421 23.0614 21.9563 22.3958 21.2907C21.0231 19.9179 18.7926 19.9179 17.4199 21.2907L17.0003 21.7103L16.5806 21.2907C15.208 19.918 12.9777 19.9179 11.6049 21.2904C10.9388 21.9499 10.5751 22.836 10.5751 23.7754C10.5751 24.7154 10.9392 25.5946 11.6047 26.2601L16.8942 31.5496Z" fill="#554894" stroke="#554894" stroke-width="0.3"/>
</svg>
