<svg width="37" height="44" viewBox="0 0 37 44" fill="none" xmlns="http://www.w3.org/2000/svg">
<path d="M18.5039 29.4196L12.602 23.5176C11.1568 22.0724 11.1568 19.7149 12.602 18.2697C13.3044 17.5672 14.2329 17.1797 15.226 17.1797C16.219 17.1797 17.1475 17.5672 17.85 18.2697L18.5039 18.9236L19.1579 18.2697C19.8603 17.5672 20.7888 17.1797 21.7819 17.1797C22.775 17.1797 23.7035 17.5672 24.4059 18.2697C25.8511 19.7149 25.8511 22.0724 24.4059 23.5176L18.5039 29.4196ZM15.226 19.1981C14.7738 19.1981 14.3459 19.3758 14.031 19.6906C13.369 20.3527 13.369 21.4265 14.031 22.0886L18.5039 26.5615L22.9768 22.0886C23.6389 21.4265 23.6389 20.3527 22.9768 19.6906C22.339 19.0528 21.2248 19.0528 20.5789 19.6906L18.4959 21.7737L16.4128 19.6906C16.0899 19.3677 15.67 19.1981 15.2179 19.1981H15.226Z" fill="#24AF54" stroke="#24AF54" stroke-width="0.5"/>
<path d="M28.4831 9.53382C26.1336 9.53382 24.2201 7.62033 24.2201 5.27085C24.2201 2.92137 26.1336 1.00787 28.4831 1.00787C30.8326 1.00787 32.746 2.92137 32.746 5.27085C32.746 7.62033 30.8326 9.53382 28.4831 9.53382ZM28.4831 3.01825C27.2478 3.01825 26.2385 4.02748 26.2385 5.26278C26.2385 6.49807 27.2478 7.5073 28.4831 7.5073C29.7184 7.5073 30.7276 6.49807 30.7276 5.26278C30.7276 4.02748 29.7184 3.01825 28.4831 3.01825Z" fill="#24AF54" stroke="#24AF54" stroke-width="0.5"/>
<path d="M8.51658 9.53403C6.1671 9.53403 4.2536 7.62053 4.2536 5.27105C4.2536 2.92157 6.1671 1 8.51658 1C10.8661 1 12.7796 2.91349 12.7796 5.26298C12.7796 7.61246 10.8661 9.52595 8.51658 9.52595V9.53403ZM8.51658 3.01845C7.28128 3.01845 6.27206 4.02768 6.27206 5.26298C6.27206 6.49827 7.28128 7.5075 8.51658 7.5075C9.75187 7.5075 10.7611 6.49827 10.7611 5.26298C10.7611 4.02768 9.75187 3.01845 8.51658 3.01845Z" fill="#24AF54" stroke="#24AF54" stroke-width="0.5"/>
<path d="M32.2537 43.0482H24.7128L23.3645 29.4922L25.3749 29.2904L26.5456 41.0297H30.421L31.8258 26.9974L33.9815 25.5118V13.8694L28.4833 11.9317L22.1453 14.16H14.8547L8.51673 11.9317L3.01845 13.8694V25.5118L5.17416 26.9974L6.57901 41.0297H10.4544L11.6251 29.2904L13.6355 29.4922L12.2872 43.0482H4.74625L3.26067 28.1278L1 26.5695V12.4403L8.51673 9.79211L15.1938 12.1416H21.8062L28.4833 9.79211L36 12.4403V26.5695L33.7393 28.1278L32.2537 43.0482Z" fill="#24AF54" stroke="#24AF54" stroke-width="0.5"/>
</svg>
