<svg width="34" height="35" viewBox="0 0 34 35" fill="none" xmlns="http://www.w3.org/2000/svg">
<path d="M3.24311 33.0497L6.10757 24.8478H3.77126C2.24272 24.8478 1 23.605 1 22.0765V3.77748C1 2.24272 2.24272 1 3.77126 1H30.2287C31.7573 1 33 2.24272 33 3.77748V22.0703C33 23.5988 31.7573 24.8416 30.2287 24.8416H15.4342L3.24311 33.0497ZM3.77126 2.5534C3.10019 2.5534 2.5534 3.10019 2.5534 3.77748V22.0703C2.5534 22.7414 3.10019 23.2882 3.77126 23.2882H8.29476L6.25049 29.1538L14.9619 23.2882H30.2287C30.8998 23.2882 31.4466 22.7414 31.4466 22.0703V3.77748C31.4466 3.10641 30.8998 2.5534 30.2287 2.5534H3.77126Z" fill="#3890DC" stroke="#3890DC"/>
<path d="M17.435 20.2923L11.0536 13.9109C9.49401 12.3513 9.49401 9.8224 11.0536 8.26279C11.8055 7.51095 12.8121 7.09464 13.8746 7.09464C14.9371 7.09464 15.9437 7.51095 16.6956 8.26279L17.4288 8.99599L18.162 8.26279C18.9138 7.51095 19.9204 7.09464 20.9829 7.09464C22.0455 7.09464 23.0521 7.51095 23.8039 8.26279C25.3635 9.8224 25.3635 12.3513 23.8039 13.9109L22.7041 12.8111C23.6548 11.8605 23.6548 10.3133 22.7041 9.3626C21.7845 8.44298 20.1752 8.44298 19.2556 9.3626L17.4226 11.1956L15.5895 9.3626C14.6699 8.44298 13.0606 8.43677 12.141 9.3626C11.6812 9.8224 11.4264 10.4375 11.4264 11.09C11.4264 11.7424 11.6812 12.3575 12.141 12.8174L17.4226 18.0989L21.101 14.4205L22.2008 15.5203L17.4226 20.2985L17.435 20.2923Z" fill="#3890DC" stroke="#3890DC"/>
</svg>
