<svg width="44" height="41" viewBox="0 0 44 41" fill="none" xmlns="http://www.w3.org/2000/svg">
<path d="M21.7885 22.1729C15.9533 22.1729 11.2021 17.4217 11.2021 11.5864C11.2021 5.75121 15.9456 1 21.7885 1C27.6314 1 32.3749 5.75121 32.3749 11.5864C32.3749 17.4217 27.6237 22.1729 21.7885 22.1729ZM21.7885 2.92201C17.0142 2.92201 13.1241 6.81216 13.1241 11.5864C13.1241 16.3607 17.0142 20.2509 21.7885 20.2509C26.5628 20.2509 30.4529 16.3607 30.4529 11.5864C30.4529 6.81216 26.5628 2.92201 21.7885 2.92201Z" fill="#AFC82C" stroke="#AFC82C" stroke-width="0.5"/>
<path d="M21.7882 18.098L16.6219 12.9317C15.9838 12.2936 15.6301 11.4402 15.6301 10.5407C15.6301 9.64119 15.9838 8.78782 16.6219 8.14203C17.26 7.50392 18.1133 7.15027 19.0128 7.15027C19.9124 7.15027 20.7657 7.50392 21.4115 8.14203L21.7882 8.51874L22.1649 8.14203C22.8031 7.50392 23.6564 7.15027 24.5636 7.15027C25.4708 7.15027 26.3165 7.50392 26.9546 8.14203C27.5927 8.78013 27.9464 9.63351 27.9464 10.533C27.9464 11.4325 27.5927 12.2859 26.9546 12.924L25.5938 11.5632C25.8706 11.2864 26.0243 10.9174 26.0243 10.5253C26.0243 10.1332 25.8706 9.7642 25.5938 9.48743C25.0403 8.93389 24.0793 8.93389 23.5257 9.48743L21.7882 11.2249L20.0507 9.48743C19.4972 8.93389 18.5362 8.93389 17.9827 9.48743C17.7059 9.7642 17.5521 10.1332 17.5521 10.5253C17.5521 10.9174 17.7059 11.2864 17.9827 11.5632L21.7882 15.3688L24.0024 13.1546L25.3632 14.5154L21.7882 18.0904V18.098Z" fill="#AFC82C" stroke="#AFC82C" stroke-width="0.5"/>
<path d="M10.5178 39.6325L8.7803 38.8099L10.7946 34.5815L1 25.548V9.5492L1.89181 9.48C3.34485 9.38006 6.28937 10.1489 7.05049 13.8776C7.48102 15.9995 8.31133 22.2883 8.34977 22.5574L6.44313 22.8111C6.43544 22.7496 5.58976 16.3224 5.16692 14.2697C4.78252 12.3938 3.70619 11.7403 2.92201 11.5096V24.7023L13.1394 34.1202L10.5178 39.6325Z" fill="#AFC82C" stroke="#AFC82C" stroke-width="0.5"/>
<path d="M20.4043 40.0784H18.4823V31.2448L15.1456 25.0636L10.2637 21.4579C9.97929 21.2503 9.64101 21.1735 9.29505 21.2503C8.94909 21.3195 8.66463 21.5271 8.4955 21.8269C8.18797 22.3574 8.32636 23.034 8.81839 23.403L13.2775 26.7165L12.1319 28.2618L7.67288 24.9483C6.39666 24.0027 6.03532 22.2498 6.82719 20.8659C7.2731 20.0971 8.02652 19.5436 8.90296 19.3668C9.77171 19.1899 10.6866 19.3821 11.4016 19.9126L16.6294 23.772L20.4043 30.7528V40.0707V40.0784Z" fill="#AFC82C" stroke="#AFC82C" stroke-width="0.5"/>
<path d="M33.4825 39.6318L30.8609 34.1195L41.0783 24.7016V11.509C40.2865 11.7319 39.2178 12.3931 38.8334 14.2613C38.4106 16.314 37.5649 22.7412 37.5572 22.8027L35.6506 22.549C35.689 22.2799 36.5116 15.9911 36.9498 13.8692C37.711 10.1405 40.6555 9.35631 42.1085 9.47163L43.0003 9.54082V25.5396L33.1981 34.5654L35.2123 38.7938L33.4749 39.6164L33.4825 39.6318Z" fill="#AFC82C" stroke="#AFC82C" stroke-width="0.5"/>
<path d="M25.5176 40.0778H23.5956V30.7599L27.3704 23.7792L32.5982 19.9198C33.3132 19.3893 34.2281 19.1894 35.0969 19.374C35.9656 19.5585 36.7267 20.1043 37.1726 20.8731C37.9645 22.2493 37.6032 24.0022 36.3269 24.9555L31.8679 28.269L30.7224 26.7237L35.1814 23.4102C35.6735 23.0411 35.8118 22.3646 35.5043 21.8341C35.3275 21.5343 35.043 21.3267 34.7048 21.2575C34.3588 21.1883 34.0205 21.2575 33.7361 21.4651L28.8542 25.0708L25.5176 31.252V40.0855V40.0778Z" fill="#AFC82C" stroke="#AFC82C" stroke-width="0.5"/>
</svg>
